  0
SECTION
  2
HEADER
  9
$ACADVER
  1
AC1009
  9
$EXTMIN
 10
0.0
 20
0.0
 30
0.0
  9
$EXTMAX
 10
1000.0
 20
1000.0
 30
0.0
  9
$FILLMODE
 70
 0
  9
$SPLFRAME
 70
 1
  0
ENDSEC
  0
SECTION
  2
TABLES
  0
TABLE
  2
LAYER
 70
1
  0
LAYER
  2
0
 70
     0
 62
     7
  6
CONTINUOUS
  0
ENDTAB
  0
ENDSEC
  0
SECTION
  2
ENTITIES
  0
POLYLINE
  8
0
 62
     0
 66
     1
 10
0
 20
0
 30
0.0
 70
     1
 40
0.283465
 41
0.283465
  0
VERTEX
  8
0
 10
1.42188
 20
5.20833
 30
0.0
 40
0.00393701
 41
0.00393701
  0
VERTEX
  8
0
 10
1.38525
 20
5.26156
 30
0.0
 40
0.00393701
 41
0.00393701
  0
VERTEX
  8
0
 10
1.3361
 20
5.30165
 30
0.0
 40
0.00393701
 41
0.00393701
  0
VERTEX
  8
0
 10
1.27631
 20
5.32844
 30
0.0
 40
0.00393701
 41
0.00393701
  0
VERTEX
  8
0
 10
1.20779
 20
5.34196
 30
0.0
 40
0.00393701
 41
0.00393701
  0
VERTEX
  8
0
 10
1.13243
 20
5.34212
 30
0.0
 40
0.00393701
 41
0.00393701
  0
VERTEX
  8
0
 10
1.05214
 20
5.32878
 30
0.0
 40
0.00393701
 41
0.00393701
  0
VERTEX
  8
0
 10
0.968804
 20
5.30192
 30
0.0
 40
0.00393701
 41
0.00393701
  0
VERTEX
  8
0
 10
0.884386
 20
5.26144
 30
0.0
 40
0.00393701
 41
0.00393701
  0
VERTEX
  8
0
 10
0.929904
 20
5.26183
 30
0.0
 40
0.00393701
 41
0.00393701
  0
VERTEX
  8
0
 10
0.985135
 20
5.25857
 30
0.0
 40
0.00393701
 41
0.00393701
  0
VERTEX
  8
0
 10
1.04291
 20
5.24881
 30
0.0
 40
0.00393701
 41
0.00393701
  0
VERTEX
  8
0
 10
1.09608
 20
5.2296
 30
0.0
 40
0.00393701
 41
0.00393701
  0
VERTEX
  8
0
 10
1.13742
 20
5.19803
 30
0.0
 40
0.00393701
 41
0.00393701
  0
VERTEX
  8
0
 10
1.15978
 20
5.15121
 30
0.0
 40
0.00393701
 41
0.00393701
  0
VERTEX
  8
0
 10
1.15593
 20
5.08615
 30
0.0
 40
0.00393701
 41
0.00393701
  0
VERTEX
  8
0
 10
1.11876
 20
5
 30
0.0
 40
0.00393701
 41
0.00393701
  0
VERTEX
  8
0
 10
1.037
 20
4.88938
 30
0.0
 40
0.00393701
 41
0.00393701
  0
VERTEX
  8
0
 10
0.942437
 20
4.80533
 30
0.0
 40
0.00393701
 41
0.00393701
  0
VERTEX
  8
0
 10
0.842719
 20
4.74501
 30
0.0
 40
0.00393701
 41
0.00393701
  0
VERTEX
  8
0
 10
0.745822
 20
4.70524
 30
0.0
 40
0.00393701
 41
0.00393701
  0
VERTEX
  8
0
 10
0.675564
 20
4.68608
 30
0.0
 40
0.00393701
 41
0.00393701
  0
VERTEX
  8
0
 10
0.616103
 20
4.6754
 30
0.0
 40
0.00393701
 41
0.00393701
  0
VERTEX
  8
0
 10
0.571506
 20
4.67085
 30
0.0
 40
0.00393701
 41
0.00393701
  0
VERTEX
  8
0
 10
0.545844
 20
4.66982
 30
0.0
 40
0.00393701
 41
0.00393701
  0
VERTEX
  8
0
 10
0.558322
 20
4.64063
 30
0.0
 40
0.00393701
 41
0.00393701
  0
VERTEX
  8
0
 10
0.597819
 20
4.58442
 30
0.0
 40
0.00393701
 41
0.00393701
  0
VERTEX
  8
0
 10
0.651639
 20
4.54318
 30
0.0
 40
0.00393701
 41
0.00393701
  0
VERTEX
  8
0
 10
0.717393
 20
4.51699
 30
0.0
 40
0.00393701
 41
0.00393701
  0
VERTEX
  8
0
 10
0.792697
 20
4.50603
 30
0.0
 40
0.00393701
 41
0.00393701
  0
VERTEX
  8
0
 10
0.875217
 20
4.51042
 30
0.0
 40
0.00393701
 41
0.00393701
  0
VERTEX
  8
0
 10
0.962619
 20
4.53022
 30
0.0
 40
0.00393701
 41
0.00393701
  0
VERTEX
  8
0
 10
1.05252
 20
4.5656
 30
0.0
 40
0.00393701
 41
0.00393701
  0
VERTEX
  8
0
 10
1.14269
 20
4.61669
 30
0.0
 40
0.00393701
 41
0.00393701
  0
VERTEX
  8
0
 10
1.22629
 20
4.68007
 30
0.0
 40
0.00393701
 41
0.00393701
  0
VERTEX
  8
0
 10
1.29834
 20
4.75119
 30
0.0
 40
0.00393701
 41
0.00393701
  0
VERTEX
  8
0
 10
1.35764
 20
4.82785
 30
0.0
 40
0.00393701
 41
0.00393701
  0
VERTEX
  8
0
 10
1.40294
 20
4.9075
 30
0.0
 40
0.00393701
 41
0.00393701
  0
VERTEX
  8
0
 10
1.43321
 20
4.98774
 30
0.0
 40
0.00393701
 41
0.00393701
  0
VERTEX
  8
0
 10
1.44721
 20
5.06629
 30
0.0
 40
0.00393701
 41
0.00393701
  0
VERTEX
  8
0
 10
1.44379
 20
5.14063
 30
0.0
 40
0.00393701
 41
0.00393701
  0
VERTEX
  8
0
 10
1.42188
 20
5.20833
 30
0.0
 40
0.00393701
 41
0.00393701
  0
SEQEND
 8
0
  0
POLYLINE
  8
0
 62
     0
 66
     1
 10
0
 20
0
 30
0.0
 70
     1
 40
0.283465
 41
0.283465
  0
VERTEX
  8
0
 10
0.885417
 20
4.97396
 30
0.0
 40
0.00393701
 41
0.00393701
  0
VERTEX
  8
0
 10
0.904731
 20
5.01551
 30
0.0
 40
0.00393701
 41
0.00393701
  0
VERTEX
  8
0
 10
0.908365
 20
5.0446
 30
0.0
 40
0.00393701
 41
0.00393701
  0
VERTEX
  8
0
 10
0.900336
 20
5.06337
 30
0.0
 40
0.00393701
 41
0.00393701
  0
VERTEX
  8
0
 10
0.884765
 20
5.074
 30
0.0
 40
0.00393701
 41
0.00393701
  0
VERTEX
  8
0
 10
0.86556
 20
5.07856
 30
0.0
 40
0.00393701
 41
0.00393701
  0
VERTEX
  8
0
 10
0.846897
 20
5.07915
 30
0.0
 40
0.00393701
 41
0.00393701
  0
VERTEX
  8
0
 10
0.832682
 20
5.07796
 30
0.0
 40
0.00393701
 41
0.00393701
  0
VERTEX
  8
0
 10
0.827094
 20
5.0771
 30
0.0
 40
0.00393701
 41
0.00393701
  0
VERTEX
  8
0
 10
0.664606
 20
4.85519
 30
0.0
 40
0.00393701
 41
0.00393701
  0
VERTEX
  8
0
 10
0.670247
 20
4.85482
 30
0.0
 40
0.00393701
 41
0.00393701
  0
VERTEX
  8
0
 10
0.686632
 20
4.85487
 30
0.0
 40
0.00393701
 41
0.00393701
  0
VERTEX
  8
0
 10
0.711426
 20
4.85736
 30
0.0
 40
0.00393701
 41
0.00393701
  0
VERTEX
  8
0
 10
0.742567
 20
4.86421
 30
0.0
 40
0.00393701
 41
0.00393701
  0
VERTEX
  8
0
 10
0.777724
 20
4.87733
 30
0.0
 40
0.00393701
 41
0.00393701
  0
VERTEX
  8
0
 10
0.814725
 20
4.89871
 30
0.0
 40
0.00393701
 41
0.00393701
  0
VERTEX
  8
0
 10
0.851346
 20
4.93028
 30
0.0
 40
0.00393701
 41
0.00393701
  0
VERTEX
  8
0
 10
0.885417
 20
4.97396
 30
0.0
 40
0.00393701
 41
0.00393701
  0
SEQEND
 8
0
  0
POLYLINE
  8
0
 62
     0
 66
     1
 10
0
 20
0
 30
0.0
 70
     1
 40
0.283465
 41
0.283465
  0
VERTEX
  8
0
 10
1.70518
 20
5.20731
 30
0.0
 40
0.00393701
 41
0.00393701
  0
VERTEX
  8
0
 10
1.64789
 20
5.28
 30
0.0
 40
0.00393701
 41
0.00393701
  0
VERTEX
  8
0
 10
1.56597
 20
5.32449
 30
0.0
 40
0.00393701
 41
0.00393701
  0
VERTEX
  8
0
 10
1.46506
 20
5.34093
 30
0.0
 40
0.00393701
 41
0.00393701
  0
VERTEX
  8
0
 10
1.35102
 20
5.32915
 30
0.0
 40
0.00393701
 41
0.00393701
  0
VERTEX
  8
0
 10
1.39985
 20
5.31104
 30
0.0
 40
0.00393701
 41
0.00393701
  0
VERTEX
  8
0
 10
1.44254
 20
5.28467
 30
0.0
 40
0.00393701
 41
0.00393701
  0
VERTEX
  8
0
 10
1.47803
 20
5.25011
 30
0.0
 40
0.00393701
 41
0.00393701
  0
VERTEX
  8
0
 10
1.50521
 20
5.20731
 30
0.0
 40
0.00393701
 41
0.00393701
  0
VERTEX
  8
0
 10
1.52692
 20
5.14003
 30
0.0
 40
0.00393701
 41
0.00393701
  0
VERTEX
  8
0
 10
1.53033
 20
5.06635
 30
0.0
 40
0.00393701
 41
0.00393701
  0
VERTEX
  8
0
 10
1.51654
 20
4.98861
 30
0.0
 40
0.00393701
 41
0.00393701
  0
VERTEX
  8
0
 10
1.48671
 20
4.90918
 30
0.0
 40
0.00393701
 41
0.00393701
  0
VERTEX
  8
0
 10
1.44189
 20
4.8304
 30
0.0
 40
0.00393701
 41
0.00393701
  0
VERTEX
  8
0
 10
1.3833
 20
4.75472
 30
0.0
 40
0.00393701
 41
0.00393701
  0
VERTEX
  8
0
 10
1.31201
 20
4.6844
 30
0.0
 40
0.00393701
 41
0.00393701
  0
VERTEX
  8
0
 10
1.22917
 20
4.6219
 30
0.0
 40
0.00393701
 41
0.00393701
  0
VERTEX
  8
0
 10
1.11589
 20
4.56082
 30
0.0
 40
0.00393701
 41
0.00393701
  0
VERTEX
  8
0
 10
1.00418
 20
4.52399
 30
0.0
 40
0.00393701
 41
0.00393701
  0
VERTEX
  8
0
 10
1.09907
 20
4.51193
 30
0.0
 40
0.00393701
 41
0.00393701
  0
VERTEX
  8
0
 10
1.20443
 20
4.52414
 30
0.0
 40
0.00393701
 41
0.00393701
  0
VERTEX
  8
0
 10
1.31559
 20
4.56076
 30
0.0
 40
0.00393701
 41
0.00393701
  0
VERTEX
  8
0
 10
1.42811
 20
4.6219
 30
0.0
 40
0.00393701
 41
0.00393701
  0
VERTEX
  8
0
 10
1.51129
 20
4.68474
 30
0.0
 40
0.00393701
 41
0.00393701
  0
VERTEX
  8
0
 10
1.58285
 20
4.75515
 30
0.0
 40
0.00393701
 41
0.00393701
  0
VERTEX
  8
0
 10
1.64165
 20
4.83083
 30
0.0
 40
0.00393701
 41
0.00393701
  0
VERTEX
  8
0
 10
1.68658
 20
4.90956
 30
0.0
 40
0.00393701
 41
0.00393701
  0
VERTEX
  8
0
 10
1.71647
 20
4.98888
 30
0.0
 40
0.00393701
 41
0.00393701
  0
VERTEX
  8
0
 10
1.73031
 20
5.06651
 30
0.0
 40
0.00393701
 41
0.00393701
  0
VERTEX
  8
0
 10
1.72689
 20
5.14008
 30
0.0
 40
0.00393701
 41
0.00393701
  0
VERTEX
  8
0
 10
1.70518
 20
5.20731
 30
0.0
 40
0.00393701
 41
0.00393701
  0
SEQEND
 8
0
  0
POLYLINE
  8
0
 62
     0
 66
     1
 10
0
 20
0
 30
0.0
 70
     1
 40
0.283465
 41
0.283465
  0
VERTEX
  8
0
 10
5.07086
 20
4.97086
 30
0.0
 40
0.00393701
 41
0.00393701
  0
VERTEX
  8
0
 10
5.07394
 20
4.95628
 30
0.0
 40
0.00393701
 41
0.00393701
  0
VERTEX
  8
0
 10
5.19374
 20
4.95628
 30
0.0
 40
0.00393701
 41
0.00393701
  0
VERTEX
  8
0
 10
5.18647
 20
4.98856
 30
0.0
 40
0.00393701
 41
0.00393701
  0
VERTEX
  8
0
 10
4.97917
 20
4.98856
 30
0.0
 40
0.00393701
 41
0.00393701
  0
VERTEX
  8
0
 10
4.96457
 20
4.95628
 30
0.0
 40
0.00393701
 41
0.00393701
  0
VERTEX
  8
0
 10
5.06353
 20
4.95628
 30
0.0
 40
0.00393701
 41
0.00393701
  0
VERTEX
  8
0
 10
5.07086
 20
4.97086
 30
0.0
 40
0.00393701
 41
0.00393701
  0
SEQEND
 8
0
  0
POLYLINE
  8
0
 62
     0
 66
     1
 10
0
 20
0
 30
0.0
 70
     1
 40
0.283465
 41
0.283465
  0
VERTEX
  8
0
 10
5.17393
 20
5.03857
 30
0.0
 40
0.00393701
 41
0.00393701
  0
VERTEX
  8
0
 10
5.00206
 20
5.03857
 30
0.0
 40
0.00393701
 41
0.00393701
  0
VERTEX
  8
0
 10
4.98753
 20
5.00624
 30
0.0
 40
0.00393701
 41
0.00393701
  0
VERTEX
  8
0
 10
5.18126
 20
5.00624
 30
0.0
 40
0.00393701
 41
0.00393701
  0
VERTEX
  8
0
 10
5.17393
 20
5.03857
 30
0.0
 40
0.00393701
 41
0.00393701
  0
SEQEND
 8
0
  0
POLYLINE
  8
0
 62
     0
 66
     1
 10
0
 20
0
 30
0.0
 70
     1
 40
0.283465
 41
0.283465
  0
VERTEX
  8
0
 10
5.11876
 20
4.7469
 30
0.0
 40
0.00393701
 41
0.00393701
  0
VERTEX
  8
0
 10
5.24274
 20
4.7469
 30
0.0
 40
0.00393701
 41
0.00393701
  0
VERTEX
  8
0
 10
5.23438
 20
4.78125
 30
0.0
 40
0.00393701
 41
0.00393701
  0
VERTEX
  8
0
 10
5.11143
 20
4.78125
 30
0.0
 40
0.00393701
 41
0.00393701
  0
VERTEX
  8
0
 10
5.11876
 20
4.7469
 30
0.0
 40
0.00393701
 41
0.00393701
  0
SEQEND
 8
0
  0
POLYLINE
  8
0
 62
     0
 66
     1
 10
0
 20
0
 30
0.0
 70
     1
 40
0.283465
 41
0.283465
  0
VERTEX
  8
0
 10
5.0969
 20
4.84999
 30
0.0
 40
0.00393701
 41
0.00393701
  0
VERTEX
  8
0
 10
5.21875
 20
4.84999
 30
0.0
 40
0.00393701
 41
0.00393701
  0
VERTEX
  8
0
 10
5.21149
 20
4.88232
 30
0.0
 40
0.00393701
 41
0.00393701
  0
VERTEX
  8
0
 10
5.0906
 20
4.88232
 30
0.0
 40
0.00393701
 41
0.00393701
  0
VERTEX
  8
0
 10
5.0969
 20
4.84999
 30
0.0
 40
0.00393701
 41
0.00393701
  0
SEQEND
 8
0
  0
POLYLINE
  8
0
 62
     0
 66
     1
 10
0
 20
0
 30
0.0
 70
     1
 40
0.283465
 41
0.283465
  0
VERTEX
  8
0
 10
5.10732
 20
4.80003
 30
0.0
 40
0.00393701
 41
0.00393701
  0
VERTEX
  8
0
 10
5.23019
 20
4.80003
 30
0.0
 40
0.00393701
 41
0.00393701
  0
VERTEX
  8
0
 10
5.22293
 20
4.83231
 30
0.0
 40
0.00393701
 41
0.00393701
  0
VERTEX
  8
0
 10
5.10101
 20
4.83231
 30
0.0
 40
0.00393701
 41
0.00393701
  0
VERTEX
  8
0
 10
5.10732
 20
4.80003
 30
0.0
 40
0.00393701
 41
0.00393701
  0
SEQEND
 8
0
  0
POLYLINE
  8
0
 62
     0
 66
     1
 10
0
 20
0
 30
0.0
 70
     1
 40
0.283465
 41
0.283465
  0
VERTEX
  8
0
 10
5.39583
 20
5.03857
 30
0.0
 40
0.00393701
 41
0.00393701
  0
VERTEX
  8
0
 10
5.27399
 20
5.03857
 30
0.0
 40
0.00393701
 41
0.00393701
  0
VERTEX
  8
0
 10
5.27399
 20
5.00624
 30
0.0
 40
0.00393701
 41
0.00393701
  0
VERTEX
  8
0
 10
5.39583
 20
5.00624
 30
0.0
 40
0.00393701
 41
0.00393701
  0
VERTEX
  8
0
 10
5.39583
 20
5.03857
 30
0.0
 40
0.00393701
 41
0.00393701
  0
SEQEND
 8
0
  0
POLYLINE
  8
0
 62
     0
 66
     1
 10
0
 20
0
 30
0.0
 70
     1
 40
0.283465
 41
0.283465
  0
VERTEX
  8
0
 10
5.19792
 20
4.93647
 30
0.0
 40
0.00393701
 41
0.00393701
  0
VERTEX
  8
0
 10
5.07813
 20
4.93647
 30
0.0
 40
0.00393701
 41
0.00393701
  0
VERTEX
  8
0
 10
5.08539
 20
4.90001
 30
0.0
 40
0.00393701
 41
0.00393701
  0
VERTEX
  8
0
 10
5.20628
 20
4.90001
 30
0.0
 40
0.00393701
 41
0.00393701
  0
VERTEX
  8
0
 10
5.19792
 20
4.93647
 30
0.0
 40
0.00393701
 41
0.00393701
  0
SEQEND
 8
0
  0
POLYLINE
  8
0
 62
     0
 66
     1
 10
0
 20
0
 30
0.0
 70
     1
 40
0.283465
 41
0.283465
  0
VERTEX
  8
0
 10
4.98335
 20
4.78125
 30
0.0
 40
0.00393701
 41
0.00393701
  0
VERTEX
  8
0
 10
4.87918
 20
4.78125
 30
0.0
 40
0.00393701
 41
0.00393701
  0
VERTEX
  8
0
 10
4.89378
 20
4.7469
 30
0.0
 40
0.00393701
 41
0.00393701
  0
VERTEX
  8
0
 10
4.96772
 20
4.7469
 30
0.0
 40
0.00393701
 41
0.00393701
  0
VERTEX
  8
0
 10
4.98335
 20
4.78125
 30
0.0
 40
0.00393701
 41
0.00393701
  0
SEQEND
 8
0
  0
POLYLINE
  8
0
 62
     0
 66
     1
 10
0
 20
0
 30
0.0
 70
     1
 40
0.283465
 41
0.283465
  0
VERTEX
  8
0
 10
4.63542
 20
4.88232
 30
0.0
 40
0.00393701
 41
0.00393701
  0
VERTEX
  8
0
 10
4.51247
 20
4.88232
 30
0.0
 40
0.00393701
 41
0.00393701
  0
VERTEX
  8
0
 10
4.50418
 20
4.84999
 30
0.0
 40
0.00393701
 41
0.00393701
  0
VERTEX
  8
0
 10
4.62918
 20
4.84999
 30
0.0
 40
0.00393701
 41
0.00393701
  0
VERTEX
  8
0
 10
4.63542
 20
4.88232
 30
0.0
 40
0.00393701
 41
0.00393701
  0
SEQEND
 8
0
  0
POLYLINE
  8
0
 62
     0
 66
     1
 10
0
 20
0
 30
0.0
 70
     1
 40
0.283465
 41
0.283465
  0
VERTEX
  8
0
 10
4.31565
 20
4.98753
 30
0.0
 40
0.00393701
 41
0.00393701
  0
VERTEX
  8
0
 10
4.22293
 20
4.98753
 30
0.0
 40
0.00393701
 41
0.00393701
  0
VERTEX
  8
0
 10
4.22293
 20
4.95524
 30
0.0
 40
0.00393701
 41
0.00393701
  0
VERTEX
  8
0
 10
4.31565
 20
4.95524
 30
0.0
 40
0.00393701
 41
0.00393701
  0
VERTEX
  8
0
 10
4.31565
 20
4.98753
 30
0.0
 40
0.00393701
 41
0.00393701
  0
SEQEND
 8
0
  0
POLYLINE
  8
0
 62
     0
 66
     1
 10
0
 20
0
 30
0.0
 70
     1
 40
0.283465
 41
0.283465
  0
VERTEX
  8
0
 10
4.51665
 20
4.90104
 30
0.0
 40
0.00393701
 41
0.00393701
  0
VERTEX
  8
0
 10
4.63747
 20
4.90104
 30
0.0
 40
0.00393701
 41
0.00393701
  0
VERTEX
  8
0
 10
4.6396
 20
4.9375
 30
0.0
 40
0.00393701
 41
0.00393701
  0
VERTEX
  8
0
 10
4.51878
 20
4.9375
 30
0.0
 40
0.00393701
 41
0.00393701
  0
VERTEX
  8
0
 10
4.51665
 20
4.90104
 30
0.0
 40
0.00393701
 41
0.00393701
  0
SEQEND
 8
0
  0
POLYLINE
  8
0
 62
     0
 66
     1
 10
0
 20
0
 30
0.0
 70
     1
 40
0.283465
 41
0.283465
  0
VERTEX
  8
0
 10
4.74794
 20
4.72814
 30
0.0
 40
0.00393701
 41
0.00393701
  0
VERTEX
  8
0
 10
4.63021
 20
4.72814
 30
0.0
 40
0.00393701
 41
0.00393701
  0
VERTEX
  8
0
 10
4.62082
 20
4.6875
 30
0.0
 40
0.00393701
 41
0.00393701
  0
VERTEX
  8
0
 10
4.73958
 20
4.6875
 30
0.0
 40
0.00393701
 41
0.00393701
  0
VERTEX
  8
0
 10
4.74794
 20
4.72814
 30
0.0
 40
0.00393701
 41
0.00393701
  0
SEQEND
 8
0
  0
POLYLINE
  8
0
 62
     0
 66
     1
 10
0
 20
0
 30
0.0
 70
     1
 40
0.283465
 41
0.283465
  0
VERTEX
  8
0
 10
4.57915
 20
4.75211
 30
0.0
 40
0.00393701
 41
0.00393701
  0
VERTEX
  8
0
 10
4.60101
 20
4.78125
 30
0.0
 40
0.00393701
 41
0.00393701
  0
VERTEX
  8
0
 10
4.22293
 20
4.78125
 30
0.0
 40
0.00393701
 41
0.00393701
  0
VERTEX
  8
0
 10
4.22293
 20
4.7469
 30
0.0
 40
0.00393701
 41
0.00393701
  0
VERTEX
  8
0
 10
4.57292
 20
4.7469
 30
0.0
 40
0.00393701
 41
0.00393701
  0
VERTEX
  8
0
 10
4.57915
 20
4.75211
 30
0.0
 40
0.00393701
 41
0.00393701
  0
SEQEND
 8
0
  0
POLYLINE
  8
0
 62
     0
 66
     1
 10
0
 20
0
 30
0.0
 70
     1
 40
0.283465
 41
0.283465
  0
VERTEX
  8
0
 10
4.57497
 20
5.13124
 30
0.0
 40
0.00393701
 41
0.00393701
  0
VERTEX
  8
0
 10
4.5625
 20
5.14274
 30
0.0
 40
0.00393701
 41
0.00393701
  0
VERTEX
  8
0
 10
4.22293
 20
5.14274
 30
0.0
 40
0.00393701
 41
0.00393701
  0
VERTEX
  8
0
 10
4.22293
 20
5.10835
 30
0.0
 40
0.00393701
 41
0.00393701
  0
VERTEX
  8
0
 10
4.59375
 20
5.10835
 30
0.0
 40
0.00393701
 41
0.00393701
  0
VERTEX
  8
0
 10
4.57497
 20
5.13124
 30
0.0
 40
0.00393701
 41
0.00393701
  0
SEQEND
 8
0
  0
POLYLINE
  8
0
 62
     0
 66
     1
 10
0
 20
0
 30
0.0
 70
     1
 40
0.283465
 41
0.283465
  0
VERTEX
  8
0
 10
5.16249
 20
5.08957
 30
0.0
 40
0.00393701
 41
0.00393701
  0
VERTEX
  8
0
 10
5.02501
 20
5.08957
 30
0.0
 40
0.00393701
 41
0.00393701
  0
VERTEX
  8
0
 10
5.01042
 20
5.05729
 30
0.0
 40
0.00393701
 41
0.00393701
  0
VERTEX
  8
0
 10
5.16982
 20
5.05729
 30
0.0
 40
0.00393701
 41
0.00393701
  0
VERTEX
  8
0
 10
5.16249
 20
5.08957
 30
0.0
 40
0.00393701
 41
0.00393701
  0
SEQEND
 8
0
  0
POLYLINE
  8
0
 62
     0
 66
     1
 10
0
 20
0
 30
0.0
 70
     1
 40
0.283465
 41
0.283465
  0
VERTEX
  8
0
 10
5.15001
 20
5.14165
 30
0.0
 40
0.00393701
 41
0.00393701
  0
VERTEX
  8
0
 10
5.04893
 20
5.14165
 30
0.0
 40
0.00393701
 41
0.00393701
  0
VERTEX
  8
0
 10
5.03331
 20
5.10732
 30
0.0
 40
0.00393701
 41
0.00393701
  0
VERTEX
  8
0
 10
5.15728
 20
5.10732
 30
0.0
 40
0.00393701
 41
0.00393701
  0
VERTEX
  8
0
 10
5.15001
 20
5.14165
 30
0.0
 40
0.00393701
 41
0.00393701
  0
SEQEND
 8
0
  0
POLYLINE
  8
0
 62
     0
 66
     1
 10
0
 20
0
 30
0.0
 70
     1
 40
0.283465
 41
0.283465
  0
VERTEX
  8
0
 10
5.39583
 20
5.08957
 30
0.0
 40
0.00393701
 41
0.00393701
  0
VERTEX
  8
0
 10
5.27399
 20
5.08957
 30
0.0
 40
0.00393701
 41
0.00393701
  0
VERTEX
  8
0
 10
5.27399
 20
5.05729
 30
0.0
 40
0.00393701
 41
0.00393701
  0
VERTEX
  8
0
 10
5.39583
 20
5.05729
 30
0.0
 40
0.00393701
 41
0.00393701
  0
VERTEX
  8
0
 10
5.39583
 20
5.08957
 30
0.0
 40
0.00393701
 41
0.00393701
  0
SEQEND
 8
0
  0
POLYLINE
  8
0
 62
     0
 66
     1
 10
0
 20
0
 30
0.0
 70
     1
 40
0.283465
 41
0.283465
  0
VERTEX
  8
0
 10
4.82292
 20
5.14165
 30
0.0
 40
0.00393701
 41
0.00393701
  0
VERTEX
  8
0
 10
4.72601
 20
5.14165
 30
0.0
 40
0.00393701
 41
0.00393701
  0
VERTEX
  8
0
 10
4.71772
 20
5.10732
 30
0.0
 40
0.00393701
 41
0.00393701
  0
VERTEX
  8
0
 10
4.83854
 20
5.10732
 30
0.0
 40
0.00393701
 41
0.00393701
  0
VERTEX
  8
0
 10
4.82292
 20
5.14165
 30
0.0
 40
0.00393701
 41
0.00393701
  0
SEQEND
 8
0
  0
POLYLINE
  8
0
 62
     0
 66
     1
 10
0
 20
0
 30
0.0
 70
     1
 40
0.283465
 41
0.283465
  0
VERTEX
  8
0
 10
4.8271
 20
4.90104
 30
0.0
 40
0.00393701
 41
0.00393701
  0
VERTEX
  8
0
 10
4.93647
 20
4.90104
 30
0.0
 40
0.00393701
 41
0.00393701
  0
VERTEX
  8
0
 10
4.91982
 20
4.9375
 30
0.0
 40
0.00393701
 41
0.00393701
  0
VERTEX
  8
0
 10
4.81147
 20
4.9375
 30
0.0
 40
0.00393701
 41
0.00393701
  0
VERTEX
  8
0
 10
4.8271
 20
4.90104
 30
0.0
 40
0.00393701
 41
0.00393701
  0
SEQEND
 8
0
  0
POLYLINE
  8
0
 62
     0
 66
     1
 10
0
 20
0
 30
0.0
 70
     1
 40
0.283465
 41
0.283465
  0
VERTEX
  8
0
 10
4.625
 20
4.83128
 30
0.0
 40
0.00393701
 41
0.00393701
  0
VERTEX
  8
0
 10
4.49685
 20
4.83128
 30
0.0
 40
0.00393701
 41
0.00393701
  0
VERTEX
  8
0
 10
4.48856
 20
4.81668
 30
0.0
 40
0.00393701
 41
0.00393701
  0
VERTEX
  8
0
 10
4.46875
 20
4.79899
 30
0.0
 40
0.00393701
 41
0.00393701
  0
VERTEX
  8
0
 10
4.61253
 20
4.79899
 30
0.0
 40
0.00393701
 41
0.00393701
  0
VERTEX
  8
0
 10
4.625
 20
4.83128
 30
0.0
 40
0.00393701
 41
0.00393701
  0
SEQEND
 8
0
  0
POLYLINE
  8
0
 62
     0
 66
     1
 10
0
 20
0
 30
0.0
 70
     1
 40
0.283465
 41
0.283465
  0
VERTEX
  8
0
 10
4.31565
 20
4.93647
 30
0.0
 40
0.00393701
 41
0.00393701
  0
VERTEX
  8
0
 10
4.22293
 20
4.93647
 30
0.0
 40
0.00393701
 41
0.00393701
  0
VERTEX
  8
0
 10
4.22293
 20
4.90522
 30
0.0
 40
0.00393701
 41
0.00393701
  0
VERTEX
  8
0
 10
4.31565
 20
4.90522
 30
0.0
 40
0.00393701
 41
0.00393701
  0
VERTEX
  8
0
 10
4.31565
 20
4.93647
 30
0.0
 40
0.00393701
 41
0.00393701
  0
SEQEND
 8
0
  0
POLYLINE
  8
0
 62
     0
 66
     1
 10
0
 20
0
 30
0.0
 70
     1
 40
0.283465
 41
0.283465
  0
VERTEX
  8
0
 10
4.51768
 20
4.95524
 30
0.0
 40
0.00393701
 41
0.00393701
  0
VERTEX
  8
0
 10
4.63857
 20
4.95524
 30
0.0
 40
0.00393701
 41
0.00393701
  0
VERTEX
  8
0
 10
4.63644
 20
4.98753
 30
0.0
 40
0.00393701
 41
0.00393701
  0
VERTEX
  8
0
 10
4.5146
 20
4.98753
 30
0.0
 40
0.00393701
 41
0.00393701
  0
VERTEX
  8
0
 10
4.51768
 20
4.95524
 30
0.0
 40
0.00393701
 41
0.00393701
  0
SEQEND
 8
0
  0
POLYLINE
  8
0
 62
     0
 66
     1
 10
0
 20
0
 30
0.0
 70
     1
 40
0.283465
 41
0.283465
  0
VERTEX
  8
0
 10
4.33854
 20
4.60628
 30
0.0
 40
0.00393701
 41
0.00393701
  0
VERTEX
  8
0
 10
4.34581
 20
4.63644
 30
0.0
 40
0.00393701
 41
0.00393701
  0
VERTEX
  8
0
 10
4.31044
 20
4.63644
 30
0.0
 40
0.00393701
 41
0.00393701
  0
VERTEX
  8
0
 10
4.30311
 20
4.60628
 30
0.0
 40
0.00393701
 41
0.00393701
  0
VERTEX
  8
0
 10
4.33854
 20
4.60628
 30
0.0
 40
0.00393701
 41
0.00393701
  0
SEQEND
 8
0
  0
POLYLINE
  8
0
 62
     0
 66
     1
 10
0
 20
0
 30
0.0
 70
     1
 40
0.283465
 41
0.283465
  0
VERTEX
  8
0
 10
4.48438
 20
5.06668
 30
0.0
 40
0.00393701
 41
0.00393701
  0
VERTEX
  8
0
 10
4.49061
 20
5.05626
 30
0.0
 40
0.00393701
 41
0.00393701
  0
VERTEX
  8
0
 10
4.62082
 20
5.05626
 30
0.0
 40
0.00393701
 41
0.00393701
  0
VERTEX
  8
0
 10
4.60622
 20
5.08854
 30
0.0
 40
0.00393701
 41
0.00393701
  0
VERTEX
  8
0
 10
4.45518
 20
5.08854
 30
0.0
 40
0.00393701
 41
0.00393701
  0
VERTEX
  8
0
 10
4.48438
 20
5.06668
 30
0.0
 40
0.00393701
 41
0.00393701
  0
SEQEND
 8
0
  0
POLYLINE
  8
0
 62
     0
 66
     1
 10
0
 20
0
 30
0.0
 70
     1
 40
0.283465
 41
0.283465
  0
VERTEX
  8
0
 10
5.39583
 20
5.10835
 30
0.0
 40
0.00393701
 41
0.00393701
  0
VERTEX
  8
0
 10
5.44997
 20
5.10835
 30
0.0
 40
0.00393701
 41
0.00393701
  0
VERTEX
  8
0
 10
5.4521
 20
5.10835
 30
0.0
 40
0.00393701
 41
0.00393701
  0
VERTEX
  8
0
 10
5.64481
 20
5.10835
 30
0.0
 40
0.00393701
 41
0.00393701
  0
VERTEX
  8
0
 10
5.62397
 20
5.14274
 30
0.0
 40
0.00393701
 41
0.00393701
  0
VERTEX
  8
0
 10
5.27399
 20
5.14274
 30
0.0
 40
0.00393701
 41
0.00393701
  0
VERTEX
  8
0
 10
5.27399
 20
5.10835
 30
0.0
 40
0.00393701
 41
0.00393701
  0
VERTEX
  8
0
 10
5.39583
 20
5.10835
 30
0.0
 40
0.00393701
 41
0.00393701
  0
SEQEND
 8
0
  0
POLYLINE
  8
0
 62
     0
 66
     1
 10
0
 20
0
 30
0.0
 70
     1
 40
0.283465
 41
0.283465
  0
VERTEX
  8
0
 10
4.54893
 20
4.72814
 30
0.0
 40
0.00393701
 41
0.00393701
  0
VERTEX
  8
0
 10
4.2219
 20
4.72814
 30
0.0
 40
0.00393701
 41
0.00393701
  0
VERTEX
  8
0
 10
4.2219
 20
4.6875
 30
0.0
 40
0.00393701
 41
0.00393701
  0
VERTEX
  8
0
 10
4.38021
 20
4.6875
 30
0.0
 40
0.00393701
 41
0.00393701
  0
VERTEX
  8
0
 10
4.47706
 20
4.69769
 30
0.0
 40
0.00393701
 41
0.00393701
  0
VERTEX
  8
0
 10
4.54893
 20
4.72814
 30
0.0
 40
0.00393701
 41
0.00393701
  0
SEQEND
 8
0
  0
POLYLINE
  8
0
 62
     0
 66
     1
 10
0
 20
0
 30
0.0
 70
     1
 40
0.283465
 41
0.283465
  0
VERTEX
  8
0
 10
4.87185
 20
5.03857
 30
0.0
 40
0.00393701
 41
0.00393701
  0
VERTEX
  8
0
 10
4.7021
 20
5.03857
 30
0.0
 40
0.00393701
 41
0.00393701
  0
VERTEX
  8
0
 10
4.69476
 20
5.00624
 30
0.0
 40
0.00393701
 41
0.00393701
  0
VERTEX
  8
0
 10
4.88644
 20
5.00624
 30
0.0
 40
0.00393701
 41
0.00393701
  0
VERTEX
  8
0
 10
4.87185
 20
5.03857
 30
0.0
 40
0.00393701
 41
0.00393701
  0
SEQEND
 8
0
  0
POLYLINE
  8
0
 62
     0
 66
     1
 10
0
 20
0
 30
0.0
 70
     1
 40
0.283465
 41
0.283465
  0
VERTEX
  8
0
 10
5.5146
 20
4.97711
 30
0.0
 40
0.00393701
 41
0.00393701
  0
VERTEX
  8
0
 10
5.48876
 20
4.96164
 30
0.0
 40
0.00393701
 41
0.00393701
  0
VERTEX
  8
0
 10
5.4521
 20
4.95628
 30
0.0
 40
0.00393701
 41
0.00393701
  0
VERTEX
  8
0
 10
5.39583
 20
4.95628
 30
0.0
 40
0.00393701
 41
0.00393701
  0
VERTEX
  8
0
 10
5.39583
 20
4.98649
 30
0.0
 40
0.00393701
 41
0.00393701
  0
VERTEX
  8
0
 10
5.27399
 20
4.98649
 30
0.0
 40
0.00393701
 41
0.00393701
  0
VERTEX
  8
0
 10
5.27399
 20
4.95415
 30
0.0
 40
0.00393701
 41
0.00393701
  0
VERTEX
  8
0
 10
5.62603
 20
4.95415
 30
0.0
 40
0.00393701
 41
0.00393701
  0
VERTEX
  8
0
 10
5.64481
 20
4.98649
 30
0.0
 40
0.00393701
 41
0.00393701
  0
VERTEX
  8
0
 10
5.52289
 20
4.98649
 30
0.0
 40
0.00393701
 41
0.00393701
  0
VERTEX
  8
0
 10
5.5146
 20
4.97711
 30
0.0
 40
0.00393701
 41
0.00393701
  0
SEQEND
 8
0
  0
POLYLINE
  8
0
 62
     0
 66
     1
 10
0
 20
0
 30
0.0
 70
     1
 40
0.283465
 41
0.283465
  0
VERTEX
  8
0
 10
5.13124
 20
4.6875
 30
0.0
 40
0.00393701
 41
0.00393701
  0
VERTEX
  8
0
 10
5.25624
 20
4.6875
 30
0.0
 40
0.00393701
 41
0.00393701
  0
VERTEX
  8
0
 10
5.24685
 20
4.72814
 30
0.0
 40
0.00393701
 41
0.00393701
  0
VERTEX
  8
0
 10
5.12185
 20
4.72814
 30
0.0
 40
0.00393701
 41
0.00393701
  0
VERTEX
  8
0
 10
5.13124
 20
4.6875
 30
0.0
 40
0.00393701
 41
0.00393701
  0
SEQEND
 8
0
  0
POLYLINE
  8
0
 62
     0
 66
     1
 10
0
 20
0
 30
0.0
 70
     1
 40
0.283465
 41
0.283465
  0
VERTEX
  8
0
 10
4.75206
 20
4.7469
 30
0.0
 40
0.00393701
 41
0.00393701
  0
VERTEX
  8
0
 10
4.75939
 20
4.78125
 30
0.0
 40
0.00393701
 41
0.00393701
  0
VERTEX
  8
0
 10
4.64165
 20
4.78125
 30
0.0
 40
0.00393701
 41
0.00393701
  0
VERTEX
  8
0
 10
4.63336
 20
4.7469
 30
0.0
 40
0.00393701
 41
0.00393701
  0
VERTEX
  8
0
 10
4.75206
 20
4.7469
 30
0.0
 40
0.00393701
 41
0.00393701
  0
SEQEND
 8
0
  0
POLYLINE
  8
0
 62
     0
 66
     1
 10
0
 20
0
 30
0.0
 70
     1
 40
0.283465
 41
0.283465
  0
VERTEX
  8
0
 10
4.78228
 20
4.88232
 30
0.0
 40
0.00393701
 41
0.00393701
  0
VERTEX
  8
0
 10
4.66564
 20
4.88232
 30
0.0
 40
0.00393701
 41
0.00393701
  0
VERTEX
  8
0
 10
4.65831
 20
4.84999
 30
0.0
 40
0.00393701
 41
0.00393701
  0
VERTEX
  8
0
 10
4.77501
 20
4.84999
 30
0.0
 40
0.00393701
 41
0.00393701
  0
VERTEX
  8
0
 10
4.78228
 20
4.88232
 30
0.0
 40
0.00393701
 41
0.00393701
  0
SEQEND
 8
0
  0
POLYLINE
  8
0
 62
     0
 66
     1
 10
0
 20
0
 30
0.0
 70
     1
 40
0.283465
 41
0.283465
  0
VERTEX
  8
0
 10
4.95833
 20
4.72711
 30
0.0
 40
0.00393701
 41
0.00393701
  0
VERTEX
  8
0
 10
4.90104
 20
4.72814
 30
0.0
 40
0.00393701
 41
0.00393701
  0
VERTEX
  8
0
 10
4.90104
 20
4.72711
 30
0.0
 40
0.00393701
 41
0.00393701
  0
VERTEX
  8
0
 10
4.95833
 20
4.72711
 30
0.0
 40
0.00393701
 41
0.00393701
  0
SEQEND
 8
0
  0
POLYLINE
  8
0
 62
     0
 66
     1
 10
0
 20
0
 30
0.0
 70
     1
 40
0.283465
 41
0.283465
  0
VERTEX
  8
0
 10
4.79482
 20
4.93647
 30
0.0
 40
0.00393701
 41
0.00393701
  0
VERTEX
  8
0
 10
4.67811
 20
4.93647
 30
0.0
 40
0.00393701
 41
0.00393701
  0
VERTEX
  8
0
 10
4.66982
 20
4.90001
 30
0.0
 40
0.00393701
 41
0.00393701
  0
VERTEX
  8
0
 10
4.78646
 20
4.90001
 30
0.0
 40
0.00393701
 41
0.00393701
  0
VERTEX
  8
0
 10
4.79482
 20
4.93647
 30
0.0
 40
0.00393701
 41
0.00393701
  0
SEQEND
 8
0
  0
POLYLINE
  8
0
 62
     0
 66
     1
 10
0
 20
0
 30
0.0
 70
     1
 40
0.283465
 41
0.283465
  0
VERTEX
  8
0
 10
4.77083
 20
4.83128
 30
0.0
 40
0.00393701
 41
0.00393701
  0
VERTEX
  8
0
 10
4.6531
 20
4.83128
 30
0.0
 40
0.00393701
 41
0.00393701
  0
VERTEX
  8
0
 10
4.64583
 20
4.79899
 30
0.0
 40
0.00393701
 41
0.00393701
  0
VERTEX
  8
0
 10
4.76357
 20
4.79899
 30
0.0
 40
0.00393701
 41
0.00393701
  0
VERTEX
  8
0
 10
4.77083
 20
4.83128
 30
0.0
 40
0.00393701
 41
0.00393701
  0
SEQEND
 8
0
  0
POLYLINE
  8
0
 62
     0
 66
     1
 10
0
 20
0
 30
0.0
 70
     1
 40
0.283465
 41
0.283465
  0
VERTEX
  8
0
 10
5.00726
 20
4.83128
 30
0.0
 40
0.00393701
 41
0.00393701
  0
VERTEX
  8
0
 10
4.85732
 20
4.83128
 30
0.0
 40
0.00393701
 41
0.00393701
  0
VERTEX
  8
0
 10
4.87082
 20
4.79899
 30
0.0
 40
0.00393701
 41
0.00393701
  0
VERTEX
  8
0
 10
4.99164
 20
4.79899
 30
0.0
 40
0.00393701
 41
0.00393701
  0
VERTEX
  8
0
 10
5.00726
 20
4.83128
 30
0.0
 40
0.00393701
 41
0.00393701
  0
SEQEND
 8
0
  0
POLYLINE
  8
0
 62
     0
 66
     1
 10
0
 20
0
 30
0.0
 70
     1
 40
0.283465
 41
0.283465
  0
VERTEX
  8
0
 10
5.03022
 20
4.88232
 30
0.0
 40
0.00393701
 41
0.00393701
  0
VERTEX
  8
0
 10
4.83436
 20
4.88232
 30
0.0
 40
0.00393701
 41
0.00393701
  0
VERTEX
  8
0
 10
4.84793
 20
4.84999
 30
0.0
 40
0.00393701
 41
0.00393701
  0
VERTEX
  8
0
 10
5.0146
 20
4.84999
 30
0.0
 40
0.00393701
 41
0.00393701
  0
VERTEX
  8
0
 10
5.03022
 20
4.88232
 30
0.0
 40
0.00393701
 41
0.00393701
  0
SEQEND
 8
0
  0
POLYLINE
  8
0
 62
     0
 66
     1
 10
0
 20
0
 30
0.0
 70
     1
 40
0.283465
 41
0.283465
  0
VERTEX
  8
0
 10
4.80003
 20
4.96149
 30
0.0
 40
0.00393701
 41
0.00393701
  0
VERTEX
  8
0
 10
4.80208
 20
4.95524
 30
0.0
 40
0.00393701
 41
0.00393701
  0
VERTEX
  8
0
 10
4.9094
 20
4.95524
 30
0.0
 40
0.00393701
 41
0.00393701
  0
VERTEX
  8
0
 10
4.89481
 20
4.98753
 30
0.0
 40
0.00393701
 41
0.00393701
  0
VERTEX
  8
0
 10
4.68956
 20
4.98753
 30
0.0
 40
0.00393701
 41
0.00393701
  0
VERTEX
  8
0
 10
4.68229
 20
4.95524
 30
0.0
 40
0.00393701
 41
0.00393701
  0
VERTEX
  8
0
 10
4.79893
 20
4.95524
 30
0.0
 40
0.00393701
 41
0.00393701
  0
VERTEX
  8
0
 10
4.80003
 20
4.96149
 30
0.0
 40
0.00393701
 41
0.00393701
  0
SEQEND
 8
0
  0
POLYLINE
  8
0
 62
     0
 66
     1
 10
0
 20
0
 30
0.0
 70
     1
 40
0.283465
 41
0.283465
  0
VERTEX
  8
0
 10
5.05524
 20
4.93647
 30
0.0
 40
0.00393701
 41
0.00393701
  0
VERTEX
  8
0
 10
4.95628
 20
4.93647
 30
0.0
 40
0.00393701
 41
0.00393701
  0
VERTEX
  8
0
 10
4.93956
 20
4.90001
 30
0.0
 40
0.00393701
 41
0.00393701
  0
VERTEX
  8
0
 10
5.03851
 20
4.90001
 30
0.0
 40
0.00393701
 41
0.00393701
  0
VERTEX
  8
0
 10
5.05524
 20
4.93647
 30
0.0
 40
0.00393701
 41
0.00393701
  0
SEQEND
 8
0
  0
POLYLINE
  8
0
 62
     0
 66
     1
 10
0
 20
0
 30
0.0
 70
     1
 40
0.283465
 41
0.283465
  0
VERTEX
  8
0
 10
4.84793
 20
5.08957
 30
0.0
 40
0.00393701
 41
0.00393701
  0
VERTEX
  8
0
 10
4.71354
 20
5.08957
 30
0.0
 40
0.00393701
 41
0.00393701
  0
VERTEX
  8
0
 10
4.70628
 20
5.05729
 30
0.0
 40
0.00393701
 41
0.00393701
  0
VERTEX
  8
0
 10
4.86253
 20
5.05729
 30
0.0
 40
0.00393701
 41
0.00393701
  0
VERTEX
  8
0
 10
4.84793
 20
5.08957
 30
0.0
 40
0.00393701
 41
0.00393701
  0
SEQEND
 8
0
  0
POLYLINE
  8
0
 62
     0
 66
     1
 10
0
 20
0
 30
0.0
 70
     1
 40
0.283465
 41
0.283465
  0
VERTEX
  8
0
 10
4.51247
 20
5.00624
 30
0.0
 40
0.00393701
 41
0.00393701
  0
VERTEX
  8
0
 10
4.63542
 20
5.00624
 30
0.0
 40
0.00393701
 41
0.00393701
  0
VERTEX
  8
0
 10
4.62815
 20
5.03857
 30
0.0
 40
0.00393701
 41
0.00393701
  0
VERTEX
  8
0
 10
4.50315
 20
5.03857
 30
0.0
 40
0.00393701
 41
0.00393701
  0
VERTEX
  8
0
 10
4.51247
 20
5.00624
 30
0.0
 40
0.00393701
 41
0.00393701
  0
SEQEND
 8
0
  0
POLYLINE
  8
0
 62
     0
 66
     1
 10
0
 20
0
 30
0.0
 70
     1
 40
0.283465
 41
0.283465
  0
VERTEX
  8
0
 10
4.24582
 20
4.64165
 30
0.0
 40
0.00393701
 41
0.00393701
  0
VERTEX
  8
0
 10
4.17606
 20
4.54585
 30
0.0
 40
0.00393701
 41
0.00393701
  0
VERTEX
  8
0
 10
4.15207
 20
4.64165
 30
0.0
 40
0.00393701
 41
0.00393701
  0
VERTEX
  8
0
 10
4.13644
 20
4.64165
 30
0.0
 40
0.00393701
 41
0.00393701
  0
VERTEX
  8
0
 10
4.05832
 20
4.47917
 30
0.0
 40
0.00393701
 41
0.00393701
  0
VERTEX
  8
0
 10
4.0969
 20
4.47917
 30
0.0
 40
0.00393701
 41
0.00393701
  0
VERTEX
  8
0
 10
4.13747
 20
4.56668
 30
0.0
 40
0.00393701
 41
0.00393701
  0
VERTEX
  8
0
 10
4.15207
 20
4.49169
 30
0.0
 40
0.00393701
 41
0.00393701
  0
VERTEX
  8
0
 10
4.16982
 20
4.49169
 30
0.0
 40
0.00393701
 41
0.00393701
  0
VERTEX
  8
0
 10
4.22396
 20
4.56982
 30
0.0
 40
0.00393701
 41
0.00393701
  0
VERTEX
  8
0
 10
4.2219
 20
4.47917
 30
0.0
 40
0.00393701
 41
0.00393701
  0
VERTEX
  8
0
 10
4.26144
 20
4.47917
 30
0.0
 40
0.00393701
 41
0.00393701
  0
VERTEX
  8
0
 10
4.26144
 20
4.64165
 30
0.0
 40
0.00393701
 41
0.00393701
  0
VERTEX
  8
0
 10
4.24582
 20
4.64165
 30
0.0
 40
0.00393701
 41
0.00393701
  0
SEQEND
 8
0
  0
POLYLINE
  8
0
 62
     0
 66
     1
 10
0
 20
0
 30
0.0
 70
     1
 40
0.283465
 41
0.283465
  0
VERTEX
  8
0
 10
4.04585
 20
4.64165
 30
0.0
 40
0.00393701
 41
0.00393701
  0
VERTEX
  8
0
 10
4.01042
 20
4.64165
 30
0.0
 40
0.00393701
 41
0.00393701
  0
VERTEX
  8
0
 10
3.98122
 20
4.51774
 30
0.0
 40
0.00393701
 41
0.00393701
  0
VERTEX
  8
0
 10
3.98335
 20
4.49376
 30
0.0
 40
0.00393701
 41
0.00393701
  0
VERTEX
  8
0
 10
4
 20
4.47607
 30
0.0
 40
0.00393701
 41
0.00393701
  0
VERTEX
  8
0
 10
4.03022
 20
4.4969
 30
0.0
 40
0.00393701
 41
0.00393701
  0
VERTEX
  8
0
 10
4.01981
 20
4.51042
 30
0.0
 40
0.00393701
 41
0.00393701
  0
VERTEX
  8
0
 10
4.01981
 20
4.52919
 30
0.0
 40
0.00393701
 41
0.00393701
  0
VERTEX
  8
0
 10
4.04585
 20
4.64165
 30
0.0
 40
0.00393701
 41
0.00393701
  0
SEQEND
 8
0
  0
POLYLINE
  8
0
 62
     0
 66
     1
 10
0
 20
0
 30
0.0
 70
     1
 40
0.283465
 41
0.283465
  0
VERTEX
  8
0
 10
3.97293
 20
4.59272
 30
0.0
 40
0.00393701
 41
0.00393701
  0
VERTEX
  8
0
 10
3.96669
 20
4.59478
 30
0.0
 40
0.00393701
 41
0.00393701
  0
VERTEX
  8
0
 10
3.94476
 20
4.58854
 30
0.0
 40
0.00393701
 41
0.00393701
  0
VERTEX
  8
0
 10
3.93435
 20
4.59478
 30
0.0
 40
0.00393701
 41
0.00393701
  0
VERTEX
  8
0
 10
3.91564
 20
4.59896
 30
0.0
 40
0.00393701
 41
0.00393701
  0
VERTEX
  8
0
 10
3.86876
 20
4.58128
 30
0.0
 40
0.00393701
 41
0.00393701
  0
VERTEX
  8
0
 10
3.85129
 20
4.56174
 30
0.0
 40
0.00393701
 41
0.00393701
  0
VERTEX
  8
0
 10
3.84169
 20
4.53749
 30
0.0
 40
0.00393701
 41
0.00393701
  0
VERTEX
  8
0
 10
3.84006
 20
4.51253
 30
0.0
 40
0.00393701
 41
0.00393701
  0
VERTEX
  8
0
 10
3.84793
 20
4.49376
 30
0.0
 40
0.00393701
 41
0.00393701
  0
VERTEX
  8
0
 10
3.8635
 20
4.48204
 30
0.0
 40
0.00393701
 41
0.00393701
  0
VERTEX
  8
0
 10
3.88542
 20
4.47814
 30
0.0
 40
0.00393701
 41
0.00393701
  0
VERTEX
  8
0
 10
3.89063
 20
4.47917
 30
0.0
 40
0.00393701
 41
0.00393701
  0
VERTEX
  8
0
 10
3.89481
 20
4.48019
 30
0.0
 40
0.00393701
 41
0.00393701
  0
VERTEX
  8
0
 10
3.91872
 20
4.49169
 30
0.0
 40
0.00393701
 41
0.00393701
  0
VERTEX
  8
0
 10
3.9229
 20
4.48232
 30
0.0
 40
0.00393701
 41
0.00393701
  0
VERTEX
  8
0
 10
3.93229
 20
4.47607
 30
0.0
 40
0.00393701
 41
0.00393701
  0
VERTEX
  8
0
 10
3.96457
 20
4.4969
 30
0.0
 40
0.00393701
 41
0.00393701
  0
VERTEX
  8
0
 10
3.95518
 20
4.50521
 30
0.0
 40
0.00393701
 41
0.00393701
  0
VERTEX
  8
0
 10
3.95518
 20
4.52083
 30
0.0
 40
0.00393701
 41
0.00393701
  0
VERTEX
  8
0
 10
3.97293
 20
4.59272
 30
0.0
 40
0.00393701
 41
0.00393701
  0
SEQEND
 8
0
  0
POLYLINE
  8
0
 62
     0
 66
     1
 10
0
 20
0
 30
0.0
 70
     1
 40
0.283465
 41
0.283465
  0
VERTEX
  8
0
 10
3.92085
 20
4.51253
 30
0.0
 40
0.00393701
 41
0.00393701
  0
VERTEX
  8
0
 10
3.91146
 20
4.50836
 30
0.0
 40
0.00393701
 41
0.00393701
  0
VERTEX
  8
0
 10
3.89686
 20
4.50624
 30
0.0
 40
0.00393701
 41
0.00393701
  0
VERTEX
  8
0
 10
3.87918
 20
4.5146
 30
0.0
 40
0.00393701
 41
0.00393701
  0
VERTEX
  8
0
 10
3.87706
 20
4.53749
 30
0.0
 40
0.00393701
 41
0.00393701
  0
VERTEX
  8
0
 10
3.89063
 20
4.56353
 30
0.0
 40
0.00393701
 41
0.00393701
  0
VERTEX
  8
0
 10
3.91146
 20
4.57086
 30
0.0
 40
0.00393701
 41
0.00393701
  0
VERTEX
  8
0
 10
3.92393
 20
4.56771
 30
0.0
 40
0.00393701
 41
0.00393701
  0
VERTEX
  8
0
 10
3.93126
 20
4.56044
 30
0.0
 40
0.00393701
 41
0.00393701
  0
VERTEX
  8
0
 10
3.92085
 20
4.51253
 30
0.0
 40
0.00393701
 41
0.00393701
  0
SEQEND
 8
0
  0
POLYLINE
  8
0
 62
     0
 66
     1
 10
0
 20
0
 30
0.0
 70
     1
 40
0.283465
 41
0.283465
  0
VERTEX
  8
0
 10
3.54585
 20
4.59272
 30
0.0
 40
0.00393701
 41
0.00393701
  0
VERTEX
  8
0
 10
3.51878
 20
4.47917
 30
0.0
 40
0.00393701
 41
0.00393701
  0
VERTEX
  8
0
 10
3.55414
 20
4.47917
 30
0.0
 40
0.00393701
 41
0.00393701
  0
VERTEX
  8
0
 10
3.58231
 20
4.59478
 30
0.0
 40
0.00393701
 41
0.00393701
  0
VERTEX
  8
0
 10
3.54585
 20
4.59272
 30
0.0
 40
0.00393701
 41
0.00393701
  0
SEQEND
 8
0
  0
POLYLINE
  8
0
 62
     0
 66
     1
 10
0
 20
0
 30
0.0
 70
     1
 40
0.283465
 41
0.283465
  0
VERTEX
  8
0
 10
4.39899
 20
4.50521
 30
0.0
 40
0.00393701
 41
0.00393701
  0
VERTEX
  8
0
 10
4.37815
 20
4.51253
 30
0.0
 40
0.00393701
 41
0.00393701
  0
VERTEX
  8
0
 10
4.37397
 20
4.53646
 30
0.0
 40
0.00393701
 41
0.00393701
  0
VERTEX
  8
0
 10
4.38857
 20
4.56147
 30
0.0
 40
0.00393701
 41
0.00393701
  0
VERTEX
  8
0
 10
4.41351
 20
4.56982
 30
0.0
 40
0.00393701
 41
0.00393701
  0
VERTEX
  8
0
 10
4.43024
 20
4.56771
 30
0.0
 40
0.00393701
 41
0.00393701
  0
VERTEX
  8
0
 10
4.44476
 20
4.56044
 30
0.0
 40
0.00393701
 41
0.00393701
  0
VERTEX
  8
0
 10
4.45313
 20
4.59375
 30
0.0
 40
0.00393701
 41
0.00393701
  0
VERTEX
  8
0
 10
4.43956
 20
4.59793
 30
0.0
 40
0.00393701
 41
0.00393701
  0
VERTEX
  8
0
 10
4.41872
 20
4.59999
 30
0.0
 40
0.00393701
 41
0.00393701
  0
VERTEX
  8
0
 10
4.36774
 20
4.58128
 30
0.0
 40
0.00393701
 41
0.00393701
  0
VERTEX
  8
0
 10
4.33957
 20
4.53857
 30
0.0
 40
0.00393701
 41
0.00393701
  0
VERTEX
  8
0
 10
4.33772
 20
4.51178
 30
0.0
 40
0.00393701
 41
0.00393701
  0
VERTEX
  8
0
 10
4.3469
 20
4.49274
 30
0.0
 40
0.00393701
 41
0.00393701
  0
VERTEX
  8
0
 10
4.36469
 20
4.48156
 30
0.0
 40
0.00393701
 41
0.00393701
  0
VERTEX
  8
0
 10
4.3896
 20
4.47814
 30
0.0
 40
0.00393701
 41
0.00393701
  0
VERTEX
  8
0
 10
4.41564
 20
4.48232
 30
0.0
 40
0.00393701
 41
0.00393701
  0
VERTEX
  8
0
 10
4.43126
 20
4.48958
 30
0.0
 40
0.00393701
 41
0.00393701
  0
VERTEX
  8
0
 10
4.43853
 20
4.51774
 30
0.0
 40
0.00393701
 41
0.00393701
  0
VERTEX
  8
0
 10
4.42188
 20
4.50939
 30
0.0
 40
0.00393701
 41
0.00393701
  0
VERTEX
  8
0
 10
4.39899
 20
4.50521
 30
0.0
 40
0.00393701
 41
0.00393701
  0
SEQEND
 8
0
  0
POLYLINE
  8
0
 62
     0
 66
     1
 10
0
 20
0
 30
0.0
 70
     1
 40
0.283465
 41
0.283465
  0
VERTEX
  8
0
 10
3.70936
 20
4.47917
 30
0.0
 40
0.00393701
 41
0.00393701
  0
VERTEX
  8
0
 10
3.74479
 20
4.47917
 30
0.0
 40
0.00393701
 41
0.00393701
  0
VERTEX
  8
0
 10
3.77289
 20
4.59478
 30
0.0
 40
0.00393701
 41
0.00393701
  0
VERTEX
  8
0
 10
3.73643
 20
4.59272
 30
0.0
 40
0.00393701
 41
0.00393701
  0
VERTEX
  8
0
 10
3.70936
 20
4.47917
 30
0.0
 40
0.00393701
 41
0.00393701
  0
SEQEND
 8
0
  0
POLYLINE
  8
0
 62
     0
 66
     1
 10
0
 20
0
 30
0.0
 70
     1
 40
0.283465
 41
0.283465
  0
VERTEX
  8
0
 10
4.55311
 20
4.59478
 30
0.0
 40
0.00393701
 41
0.00393701
  0
VERTEX
  8
0
 10
4.5479
 20
4.5969
 30
0.0
 40
0.00393701
 41
0.00393701
  0
VERTEX
  8
0
 10
4.53851
 20
4.59793
 30
0.0
 40
0.00393701
 41
0.00393701
  0
VERTEX
  8
0
 10
4.52604
 20
4.59586
 30
0.0
 40
0.00393701
 41
0.00393701
  0
VERTEX
  8
0
 10
4.51357
 20
4.59065
 30
0.0
 40
0.00393701
 41
0.00393701
  0
VERTEX
  8
0
 10
4.50103
 20
4.58436
 30
0.0
 40
0.00393701
 41
0.00393701
  0
VERTEX
  8
0
 10
4.50418
 20
4.59586
 30
0.0
 40
0.00393701
 41
0.00393701
  0
VERTEX
  8
0
 10
4.46772
 20
4.59375
 30
0.0
 40
0.00393701
 41
0.00393701
  0
VERTEX
  8
0
 10
4.44065
 20
4.48019
 30
0.0
 40
0.00393701
 41
0.00393701
  0
VERTEX
  8
0
 10
4.47601
 20
4.48019
 30
0.0
 40
0.00393701
 41
0.00393701
  0
VERTEX
  8
0
 10
4.49479
 20
4.55626
 30
0.0
 40
0.00393701
 41
0.00393701
  0
VERTEX
  8
0
 10
4.50726
 20
4.5625
 30
0.0
 40
0.00393701
 41
0.00393701
  0
VERTEX
  8
0
 10
4.52399
 20
4.56461
 30
0.0
 40
0.00393701
 41
0.00393701
  0
VERTEX
  8
0
 10
4.53749
 20
4.5625
 30
0.0
 40
0.00393701
 41
0.00393701
  0
VERTEX
  8
0
 10
4.54585
 20
4.55832
 30
0.0
 40
0.00393701
 41
0.00393701
  0
VERTEX
  8
0
 10
4.55311
 20
4.59478
 30
0.0
 40
0.00393701
 41
0.00393701
  0
SEQEND
 8
0
  0
POLYLINE
  8
0
 62
     0
 66
     1
 10
0
 20
0
 30
0.0
 70
     1
 40
0.283465
 41
0.283465
  0
VERTEX
  8
0
 10
3.70731
 20
4.59478
 30
0.0
 40
0.00393701
 41
0.00393701
  0
VERTEX
  8
0
 10
3.68647
 20
4.58854
 30
0.0
 40
0.00393701
 41
0.00393701
  0
VERTEX
  8
0
 10
3.6729
 20
4.5969
 30
0.0
 40
0.00393701
 41
0.00393701
  0
VERTEX
  8
0
 10
3.65625
 20
4.59896
 30
0.0
 40
0.00393701
 41
0.00393701
  0
VERTEX
  8
0
 10
3.6104
 20
4.58231
 30
0.0
 40
0.00393701
 41
0.00393701
  0
VERTEX
  8
0
 10
3.59337
 20
4.56332
 30
0.0
 40
0.00393701
 41
0.00393701
  0
VERTEX
  8
0
 10
3.58333
 20
4.53961
 30
0.0
 40
0.00393701
 41
0.00393701
  0
VERTEX
  8
0
 10
3.58111
 20
4.5146
 30
0.0
 40
0.00393701
 41
0.00393701
  0
VERTEX
  8
0
 10
3.58751
 20
4.49582
 30
0.0
 40
0.00393701
 41
0.00393701
  0
VERTEX
  8
0
 10
3.60178
 20
4.4841
 30
0.0
 40
0.00393701
 41
0.00393701
  0
VERTEX
  8
0
 10
3.62397
 20
4.48019
 30
0.0
 40
0.00393701
 41
0.00393701
  0
VERTEX
  8
0
 10
3.63226
 20
4.48128
 30
0.0
 40
0.00393701
 41
0.00393701
  0
VERTEX
  8
0
 10
3.64063
 20
4.48438
 30
0.0
 40
0.00393701
 41
0.00393701
  0
VERTEX
  8
0
 10
3.65522
 20
4.49169
 30
0.0
 40
0.00393701
 41
0.00393701
  0
VERTEX
  8
0
 10
3.6531
 20
4.48335
 30
0.0
 40
0.00393701
 41
0.00393701
  0
VERTEX
  8
0
 10
3.64063
 20
4.46772
 30
0.0
 40
0.00393701
 41
0.00393701
  0
VERTEX
  8
0
 10
3.60417
 20
4.46354
 30
0.0
 40
0.00393701
 41
0.00393701
  0
VERTEX
  8
0
 10
3.59999
 20
4.44482
 30
0.0
 40
0.00393701
 41
0.00393701
  0
VERTEX
  8
0
 10
3.63124
 20
4.44482
 30
0.0
 40
0.00393701
 41
0.00393701
  0
VERTEX
  8
0
 10
3.64899
 20
4.45003
 30
0.0
 40
0.00393701
 41
0.00393701
  0
VERTEX
  8
0
 10
3.66667
 20
4.45936
 30
0.0
 40
0.00393701
 41
0.00393701
  0
VERTEX
  8
0
 10
3.68229
 20
4.47396
 30
0.0
 40
0.00393701
 41
0.00393701
  0
VERTEX
  8
0
 10
3.69168
 20
4.49274
 30
0.0
 40
0.00393701
 41
0.00393701
  0
VERTEX
  8
0
 10
3.7156
 20
4.59169
 30
0.0
 40
0.00393701
 41
0.00393701
  0
VERTEX
  8
0
 10
3.70731
 20
4.59478
 30
0.0
 40
0.00393701
 41
0.00393701
  0
SEQEND
 8
0
  0
POLYLINE
  8
0
 62
     0
 66
     1
 10
0
 20
0
 30
0.0
 70
     1
 40
0.283465
 41
0.283465
  0
VERTEX
  8
0
 10
3.66249
 20
4.51665
 30
0.0
 40
0.00393701
 41
0.00393701
  0
VERTEX
  8
0
 10
3.65207
 20
4.51042
 30
0.0
 40
0.00393701
 41
0.00393701
  0
VERTEX
  8
0
 10
3.63857
 20
4.50836
 30
0.0
 40
0.00393701
 41
0.00393701
  0
VERTEX
  8
0
 10
3.62082
 20
4.51774
 30
0.0
 40
0.00393701
 41
0.00393701
  0
VERTEX
  8
0
 10
3.61979
 20
4.54269
 30
0.0
 40
0.00393701
 41
0.00393701
  0
VERTEX
  8
0
 10
3.63124
 20
4.56353
 30
0.0
 40
0.00393701
 41
0.00393701
  0
VERTEX
  8
0
 10
3.65522
 20
4.57189
 30
0.0
 40
0.00393701
 41
0.00393701
  0
VERTEX
  8
0
 10
3.66769
 20
4.56874
 30
0.0
 40
0.00393701
 41
0.00393701
  0
VERTEX
  8
0
 10
3.67393
 20
4.56147
 30
0.0
 40
0.00393701
 41
0.00393701
  0
VERTEX
  8
0
 10
3.66249
 20
4.51665
 30
0.0
 40
0.00393701
 41
0.00393701
  0
SEQEND
 8
0
  0
POLYLINE
  8
0
 62
     0
 66
     1
 10
0
 20
0
 30
0.0
 70
     1
 40
0.283465
 41
0.283465
  0
VERTEX
  8
0
 10
3.74794
 20
4.63753
 30
0.0
 40
0.00393701
 41
0.00393701
  0
VERTEX
  8
0
 10
3.74061
 20
4.60732
 30
0.0
 40
0.00393701
 41
0.00393701
  0
VERTEX
  8
0
 10
3.77604
 20
4.60732
 30
0.0
 40
0.00393701
 41
0.00393701
  0
VERTEX
  8
0
 10
3.78331
 20
4.63753
 30
0.0
 40
0.00393701
 41
0.00393701
  0
VERTEX
  8
0
 10
3.74794
 20
4.63753
 30
0.0
 40
0.00393701
 41
0.00393701
  0
SEQEND
 8
0
  0
POLYLINE
  8
0
 62
     0
 66
     1
 10
0
 20
0
 30
0.0
 70
     1
 40
0.283465
 41
0.283465
  0
VERTEX
  8
0
 10
3.81771
 20
4.51042
 30
0.0
 40
0.00393701
 41
0.00393701
  0
VERTEX
  8
0
 10
3.81668
 20
4.53022
 30
0.0
 40
0.00393701
 41
0.00393701
  0
VERTEX
  8
0
 10
3.82607
 20
4.57086
 30
0.0
 40
0.00393701
 41
0.00393701
  0
VERTEX
  8
0
 10
3.84478
 20
4.57086
 30
0.0
 40
0.00393701
 41
0.00393701
  0
VERTEX
  8
0
 10
3.84999
 20
4.59169
 30
0.0
 40
0.00393701
 41
0.00393701
  0
VERTEX
  8
0
 10
3.83128
 20
4.59169
 30
0.0
 40
0.00393701
 41
0.00393701
  0
VERTEX
  8
0
 10
3.8406
 20
4.63124
 30
0.0
 40
0.00393701
 41
0.00393701
  0
VERTEX
  8
0
 10
3.80524
 20
4.62918
 30
0.0
 40
0.00393701
 41
0.00393701
  0
VERTEX
  8
0
 10
3.79585
 20
4.59169
 30
0.0
 40
0.00393701
 41
0.00393701
  0
VERTEX
  8
0
 10
3.7844
 20
4.59169
 30
0.0
 40
0.00393701
 41
0.00393701
  0
VERTEX
  8
0
 10
3.77919
 20
4.57086
 30
0.0
 40
0.00393701
 41
0.00393701
  0
VERTEX
  8
0
 10
3.79064
 20
4.57086
 30
0.0
 40
0.00393701
 41
0.00393701
  0
VERTEX
  8
0
 10
3.77919
 20
4.52083
 30
0.0
 40
0.00393701
 41
0.00393701
  0
VERTEX
  8
0
 10
3.78022
 20
4.49376
 30
0.0
 40
0.00393701
 41
0.00393701
  0
VERTEX
  8
0
 10
3.80003
 20
4.47607
 30
0.0
 40
0.00393701
 41
0.00393701
  0
VERTEX
  8
0
 10
3.83128
 20
4.49794
 30
0.0
 40
0.00393701
 41
0.00393701
  0
VERTEX
  8
0
 10
3.81771
 20
4.51042
 30
0.0
 40
0.00393701
 41
0.00393701
  0
SEQEND
 8
0
  0
POLYLINE
  8
0
 62
     0
 66
     1
 10
0
 20
0
 30
0.0
 70
     1
 40
0.283465
 41
0.283465
  0
VERTEX
  8
0
 10
4.30003
 20
4.59272
 30
0.0
 40
0.00393701
 41
0.00393701
  0
VERTEX
  8
0
 10
4.27289
 20
4.47917
 30
0.0
 40
0.00393701
 41
0.00393701
  0
VERTEX
  8
0
 10
4.30832
 20
4.47917
 30
0.0
 40
0.00393701
 41
0.00393701
  0
VERTEX
  8
0
 10
4.33649
 20
4.59478
 30
0.0
 40
0.00393701
 41
0.00393701
  0
VERTEX
  8
0
 10
4.30003
 20
4.59272
 30
0.0
 40
0.00393701
 41
0.00393701
  0
SEQEND
 8
0
  0
POLYLINE
  8
0
 62
     0
 66
     1
 10
0
 20
0
 30
0.0
 70
     1
 40
0.283465
 41
0.283465
  0
VERTEX
  8
0
 10
5.41351
 20
4.56147
 30
0.0
 40
0.00393701
 41
0.00393701
  0
VERTEX
  8
0
 10
5.4375
 20
4.56982
 30
0.0
 40
0.00393701
 41
0.00393701
  0
VERTEX
  8
0
 10
5.45415
 20
4.56771
 30
0.0
 40
0.00393701
 41
0.00393701
  0
VERTEX
  8
0
 10
5.46875
 20
4.56044
 30
0.0
 40
0.00393701
 41
0.00393701
  0
VERTEX
  8
0
 10
5.47711
 20
4.59375
 30
0.0
 40
0.00393701
 41
0.00393701
  0
VERTEX
  8
0
 10
5.46354
 20
4.59793
 30
0.0
 40
0.00393701
 41
0.00393701
  0
VERTEX
  8
0
 10
5.44271
 20
4.59999
 30
0.0
 40
0.00393701
 41
0.00393701
  0
VERTEX
  8
0
 10
5.39165
 20
4.58128
 30
0.0
 40
0.00393701
 41
0.00393701
  0
VERTEX
  8
0
 10
5.37326
 20
4.56108
 30
0.0
 40
0.00393701
 41
0.00393701
  0
VERTEX
  8
0
 10
5.36356
 20
4.53857
 30
0.0
 40
0.00393701
 41
0.00393701
  0
VERTEX
  8
0
 10
5.36117
 20
4.51178
 30
0.0
 40
0.00393701
 41
0.00393701
  0
VERTEX
  8
0
 10
5.36979
 20
4.49274
 30
0.0
 40
0.00393701
 41
0.00393701
  0
VERTEX
  8
0
 10
5.38764
 20
4.48156
 30
0.0
 40
0.00393701
 41
0.00393701
  0
VERTEX
  8
0
 10
5.41249
 20
4.47814
 30
0.0
 40
0.00393701
 41
0.00393701
  0
VERTEX
  8
0
 10
5.43853
 20
4.48232
 30
0.0
 40
0.00393701
 41
0.00393701
  0
VERTEX
  8
0
 10
5.45415
 20
4.48958
 30
0.0
 40
0.00393701
 41
0.00393701
  0
VERTEX
  8
0
 10
5.46149
 20
4.51774
 30
0.0
 40
0.00393701
 41
0.00393701
  0
VERTEX
  8
0
 10
5.44476
 20
4.50939
 30
0.0
 40
0.00393701
 41
0.00393701
  0
VERTEX
  8
0
 10
5.42503
 20
4.50624
 30
0.0
 40
0.00393701
 41
0.00393701
  0
VERTEX
  8
0
 10
5.40419
 20
4.51357
 30
0.0
 40
0.00393701
 41
0.00393701
  0
VERTEX
  8
0
 10
5.40001
 20
4.53749
 30
0.0
 40
0.00393701
 41
0.00393701
  0
VERTEX
  8
0
 10
5.41351
 20
4.56147
 30
0.0
 40
0.00393701
 41
0.00393701
  0
SEQEND
 8
0
  0
POLYLINE
  8
0
 62
     0
 66
     1
 10
0
 20
0
 30
0.0
 70
     1
 40
0.283465
 41
0.283465
  0
VERTEX
  8
0
 10
4.62294
 20
4.59896
 30
0.0
 40
0.00393701
 41
0.00393701
  0
VERTEX
  8
0
 10
4.59489
 20
4.59446
 30
0.0
 40
0.00393701
 41
0.00393701
  0
VERTEX
  8
0
 10
4.57086
 20
4.58128
 30
0.0
 40
0.00393701
 41
0.00393701
  0
VERTEX
  8
0
 10
4.54269
 20
4.53857
 30
0.0
 40
0.00393701
 41
0.00393701
  0
VERTEX
  8
0
 10
4.54058
 20
4.51346
 30
0.0
 40
0.00393701
 41
0.00393701
  0
VERTEX
  8
0
 10
4.5479
 20
4.49376
 30
0.0
 40
0.00393701
 41
0.00393701
  0
VERTEX
  8
0
 10
4.56521
 20
4.48118
 30
0.0
 40
0.00393701
 41
0.00393701
  0
VERTEX
  8
0
 10
4.59272
 20
4.47711
 30
0.0
 40
0.00393701
 41
0.00393701
  0
VERTEX
  8
0
 10
4.6211
 20
4.48118
 30
0.0
 40
0.00393701
 41
0.00393701
  0
VERTEX
  8
0
 10
4.64481
 20
4.49376
 30
0.0
 40
0.00393701
 41
0.00393701
  0
VERTEX
  8
0
 10
4.66276
 20
4.51346
 30
0.0
 40
0.00393701
 41
0.00393701
  0
VERTEX
  8
0
 10
4.6729
 20
4.53857
 30
0.0
 40
0.00393701
 41
0.00393701
  0
VERTEX
  8
0
 10
4.67432
 20
4.56369
 30
0.0
 40
0.00393701
 41
0.00393701
  0
VERTEX
  8
0
 10
4.66564
 20
4.58333
 30
0.0
 40
0.00393701
 41
0.00393701
  0
VERTEX
  8
0
 10
4.64931
 20
4.59506
 30
0.0
 40
0.00393701
 41
0.00393701
  0
VERTEX
  8
0
 10
4.62294
 20
4.59896
 30
0.0
 40
0.00393701
 41
0.00393701
  0
SEQEND
 8
0
  0
POLYLINE
  8
0
 62
     0
 66
     1
 10
0
 20
0
 30
0.0
 70
     1
 40
0.283465
 41
0.283465
  0
VERTEX
  8
0
 10
4.63857
 20
4.53749
 30
0.0
 40
0.00393701
 41
0.00393701
  0
VERTEX
  8
0
 10
4.625
 20
4.51042
 30
0.0
 40
0.00393701
 41
0.00393701
  0
VERTEX
  8
0
 10
4.60101
 20
4.50211
 30
0.0
 40
0.00393701
 41
0.00393701
  0
VERTEX
  8
0
 10
4.58128
 20
4.51253
 30
0.0
 40
0.00393701
 41
0.00393701
  0
VERTEX
  8
0
 10
4.57915
 20
4.53749
 30
0.0
 40
0.00393701
 41
0.00393701
  0
VERTEX
  8
0
 10
4.59272
 20
4.5625
 30
0.0
 40
0.00393701
 41
0.00393701
  0
VERTEX
  8
0
 10
4.61774
 20
4.57189
 30
0.0
 40
0.00393701
 41
0.00393701
  0
VERTEX
  8
0
 10
4.63644
 20
4.56147
 30
0.0
 40
0.00393701
 41
0.00393701
  0
VERTEX
  8
0
 10
4.63857
 20
4.53749
 30
0.0
 40
0.00393701
 41
0.00393701
  0
SEQEND
 8
0
  0
POLYLINE
  8
0
 62
     0
 66
     1
 10
0
 20
0
 30
0.0
 70
     1
 40
0.283465
 41
0.283465
  0
VERTEX
  8
0
 10
5.51563
 20
4.51042
 30
0.0
 40
0.00393701
 41
0.00393701
  0
VERTEX
  8
0
 10
5.5146
 20
4.53022
 30
0.0
 40
0.00393701
 41
0.00393701
  0
VERTEX
  8
0
 10
5.52399
 20
4.57086
 30
0.0
 40
0.00393701
 41
0.00393701
  0
VERTEX
  8
0
 10
5.54269
 20
4.57086
 30
0.0
 40
0.00393701
 41
0.00393701
  0
VERTEX
  8
0
 10
5.5479
 20
4.59169
 30
0.0
 40
0.00393701
 41
0.00393701
  0
VERTEX
  8
0
 10
5.52919
 20
4.59169
 30
0.0
 40
0.00393701
 41
0.00393701
  0
VERTEX
  8
0
 10
5.53851
 20
4.63124
 30
0.0
 40
0.00393701
 41
0.00393701
  0
VERTEX
  8
0
 10
5.50315
 20
4.62918
 30
0.0
 40
0.00393701
 41
0.00393701
  0
VERTEX
  8
0
 10
5.49376
 20
4.59169
 30
0.0
 40
0.00393701
 41
0.00393701
  0
VERTEX
  8
0
 10
5.48232
 20
4.59169
 30
0.0
 40
0.00393701
 41
0.00393701
  0
VERTEX
  8
0
 10
5.47711
 20
4.57086
 30
0.0
 40
0.00393701
 41
0.00393701
  0
VERTEX
  8
0
 10
5.48856
 20
4.57086
 30
0.0
 40
0.00393701
 41
0.00393701
  0
VERTEX
  8
0
 10
5.47711
 20
4.52083
 30
0.0
 40
0.00393701
 41
0.00393701
  0
VERTEX
  8
0
 10
5.47814
 20
4.49376
 30
0.0
 40
0.00393701
 41
0.00393701
  0
VERTEX
  8
0
 10
5.49794
 20
4.47607
 30
0.0
 40
0.00393701
 41
0.00393701
  0
VERTEX
  8
0
 10
5.52919
 20
4.49794
 30
0.0
 40
0.00393701
 41
0.00393701
  0
VERTEX
  8
0
 10
5.51563
 20
4.51042
 30
0.0
 40
0.00393701
 41
0.00393701
  0
SEQEND
 8
0
  0
POLYLINE
  8
0
 62
     0
 66
     1
 10
0
 20
0
 30
0.0
 70
     1
 40
0.283465
 41
0.283465
  0
VERTEX
  8
0
 10
5.60622
 20
4.59896
 30
0.0
 40
0.00393701
 41
0.00393701
  0
VERTEX
  8
0
 10
5.56771
 20
4.58854
 30
0.0
 40
0.00393701
 41
0.00393701
  0
VERTEX
  8
0
 10
5.54688
 20
4.56147
 30
0.0
 40
0.00393701
 41
0.00393701
  0
VERTEX
  8
0
 10
5.55106
 20
4.53857
 30
0.0
 40
0.00393701
 41
0.00393701
  0
VERTEX
  8
0
 10
5.56222
 20
4.53142
 30
0.0
 40
0.00393701
 41
0.00393701
  0
VERTEX
  8
0
 10
5.58128
 20
4.52815
 30
0.0
 40
0.00393701
 41
0.00393701
  0
VERTEX
  8
0
 10
5.59896
 20
4.52399
 30
0.0
 40
0.00393701
 41
0.00393701
  0
VERTEX
  8
0
 10
5.60211
 20
4.51665
 30
0.0
 40
0.00393701
 41
0.00393701
  0
VERTEX
  8
0
 10
5.59375
 20
4.50732
 30
0.0
 40
0.00393701
 41
0.00393701
  0
VERTEX
  8
0
 10
5.57607
 20
4.50418
 30
0.0
 40
0.00393701
 41
0.00393701
  0
VERTEX
  8
0
 10
5.55208
 20
4.50732
 30
0.0
 40
0.00393701
 41
0.00393701
  0
VERTEX
  8
0
 10
5.5344
 20
4.5146
 30
0.0
 40
0.00393701
 41
0.00393701
  0
VERTEX
  8
0
 10
5.52707
 20
4.48649
 30
0.0
 40
0.00393701
 41
0.00393701
  0
VERTEX
  8
0
 10
5.55003
 20
4.47917
 30
0.0
 40
0.00393701
 41
0.00393701
  0
VERTEX
  8
0
 10
5.57394
 20
4.47711
 30
0.0
 40
0.00393701
 41
0.00393701
  0
VERTEX
  8
0
 10
5.61253
 20
4.48856
 30
0.0
 40
0.00393701
 41
0.00393701
  0
VERTEX
  8
0
 10
5.63439
 20
4.51878
 30
0.0
 40
0.00393701
 41
0.00393701
  0
VERTEX
  8
0
 10
5.62918
 20
4.54269
 30
0.0
 40
0.00393701
 41
0.00393701
  0
VERTEX
  8
0
 10
5.5969
 20
4.55311
 30
0.0
 40
0.00393701
 41
0.00393701
  0
VERTEX
  8
0
 10
5.58333
 20
4.55524
 30
0.0
 40
0.00393701
 41
0.00393701
  0
VERTEX
  8
0
 10
5.57813
 20
4.56353
 30
0.0
 40
0.00393701
 41
0.00393701
  0
VERTEX
  8
0
 10
5.58436
 20
4.56982
 30
0.0
 40
0.00393701
 41
0.00393701
  0
VERTEX
  8
0
 10
5.59793
 20
4.57292
 30
0.0
 40
0.00393701
 41
0.00393701
  0
VERTEX
  8
0
 10
5.61774
 20
4.57086
 30
0.0
 40
0.00393701
 41
0.00393701
  0
VERTEX
  8
0
 10
5.63439
 20
4.56565
 30
0.0
 40
0.00393701
 41
0.00393701
  0
VERTEX
  8
0
 10
5.64063
 20
4.59375
 30
0.0
 40
0.00393701
 41
0.00393701
  0
VERTEX
  8
0
 10
5.62397
 20
4.59793
 30
0.0
 40
0.00393701
 41
0.00393701
  0
VERTEX
  8
0
 10
5.60622
 20
4.59896
 30
0.0
 40
0.00393701
 41
0.00393701
  0
SEQEND
 8
0
  0
POLYLINE
  8
0
 62
     0
 66
     1
 10
0
 20
0
 30
0.0
 70
     1
 40
0.283465
 41
0.283465
  0
VERTEX
  8
0
 10
5.3271
 20
4.59272
 30
0.0
 40
0.00393701
 41
0.00393701
  0
VERTEX
  8
0
 10
5.30935
 20
4.51774
 30
0.0
 40
0.00393701
 41
0.00393701
  0
VERTEX
  8
0
 10
5.2979
 20
4.51144
 30
0.0
 40
0.00393701
 41
0.00393701
  0
VERTEX
  8
0
 10
5.28125
 20
4.50732
 30
0.0
 40
0.00393701
 41
0.00393701
  0
VERTEX
  8
0
 10
5.26768
 20
4.51253
 30
0.0
 40
0.00393701
 41
0.00393701
  0
VERTEX
  8
0
 10
5.26563
 20
4.52399
 30
0.0
 40
0.00393701
 41
0.00393701
  0
VERTEX
  8
0
 10
5.28228
 20
4.59375
 30
0.0
 40
0.00393701
 41
0.00393701
  0
VERTEX
  8
0
 10
5.24685
 20
4.59375
 30
0.0
 40
0.00393701
 41
0.00393701
  0
VERTEX
  8
0
 10
5.22814
 20
4.51665
 30
0.0
 40
0.00393701
 41
0.00393701
  0
VERTEX
  8
0
 10
5.23232
 20
4.48958
 30
0.0
 40
0.00393701
 41
0.00393701
  0
VERTEX
  8
0
 10
5.25836
 20
4.47917
 30
0.0
 40
0.00393701
 41
0.00393701
  0
VERTEX
  8
0
 10
5.27289
 20
4.48128
 30
0.0
 40
0.00393701
 41
0.00393701
  0
VERTEX
  8
0
 10
5.28646
 20
4.48649
 30
0.0
 40
0.00393701
 41
0.00393701
  0
VERTEX
  8
0
 10
5.30311
 20
4.49376
 30
0.0
 40
0.00393701
 41
0.00393701
  0
VERTEX
  8
0
 10
5.30003
 20
4.48128
 30
0.0
 40
0.00393701
 41
0.00393701
  0
VERTEX
  8
0
 10
5.33539
 20
4.48128
 30
0.0
 40
0.00393701
 41
0.00393701
  0
VERTEX
  8
0
 10
5.36253
 20
4.59478
 30
0.0
 40
0.00393701
 41
0.00393701
  0
VERTEX
  8
0
 10
5.3271
 20
4.59478
 30
0.0
 40
0.00393701
 41
0.00393701
  0
VERTEX
  8
0
 10
5.3271
 20
4.59272
 30
0.0
 40
0.00393701
 41
0.00393701
  0
SEQEND
 8
0
  0
POLYLINE
  8
0
 62
     0
 66
     1
 10
0
 20
0
 30
0.0
 70
     1
 40
0.283465
 41
0.283465
  0
VERTEX
  8
0
 10
5.2021
 20
4.64165
 30
0.0
 40
0.00393701
 41
0.00393701
  0
VERTEX
  8
0
 10
5.19065
 20
4.59169
 30
0.0
 40
0.00393701
 41
0.00393701
  0
VERTEX
  8
0
 10
5.18024
 20
4.59586
 30
0.0
 40
0.00393701
 41
0.00393701
  0
VERTEX
  8
0
 10
5.16667
 20
4.5969
 30
0.0
 40
0.00393701
 41
0.00393701
  0
VERTEX
  8
0
 10
5.14019
 20
4.59289
 30
0.0
 40
0.00393701
 41
0.00393701
  0
VERTEX
  8
0
 10
5.11774
 20
4.58024
 30
0.0
 40
0.00393701
 41
0.00393701
  0
VERTEX
  8
0
 10
5.10064
 20
4.56153
 30
0.0
 40
0.00393701
 41
0.00393701
  0
VERTEX
  8
0
 10
5.0906
 20
4.53646
 30
0.0
 40
0.00393701
 41
0.00393701
  0
VERTEX
  8
0
 10
5.08838
 20
4.51318
 30
0.0
 40
0.00393701
 41
0.00393701
  0
VERTEX
  8
0
 10
5.09478
 20
4.49376
 30
0.0
 40
0.00393701
 41
0.00393701
  0
VERTEX
  8
0
 10
5.10883
 20
4.48118
 30
0.0
 40
0.00393701
 41
0.00393701
  0
VERTEX
  8
0
 10
5.13226
 20
4.47711
 30
0.0
 40
0.00393701
 41
0.00393701
  0
VERTEX
  8
0
 10
5.1396
 20
4.47814
 30
0.0
 40
0.00393701
 41
0.00393701
  0
VERTEX
  8
0
 10
5.14686
 20
4.48019
 30
0.0
 40
0.00393701
 41
0.00393701
  0
VERTEX
  8
0
 10
5.16769
 20
4.48958
 30
0.0
 40
0.00393701
 41
0.00393701
  0
VERTEX
  8
0
 10
5.1729
 20
4.47917
 30
0.0
 40
0.00393701
 41
0.00393701
  0
VERTEX
  8
0
 10
5.19997
 20
4.47917
 30
0.0
 40
0.00393701
 41
0.00393701
  0
VERTEX
  8
0
 10
5.23856
 20
4.64165
 30
0.0
 40
0.00393701
 41
0.00393701
  0
VERTEX
  8
0
 10
5.2021
 20
4.64165
 30
0.0
 40
0.00393701
 41
0.00393701
  0
SEQEND
 8
0
  0
POLYLINE
  8
0
 62
     0
 66
     1
 10
0
 20
0
 30
0.0
 70
     1
 40
0.283465
 41
0.283465
  0
VERTEX
  8
0
 10
5.17188
 20
4.51357
 30
0.0
 40
0.00393701
 41
0.00393701
  0
VERTEX
  8
0
 10
5.16043
 20
4.50732
 30
0.0
 40
0.00393701
 41
0.00393701
  0
VERTEX
  8
0
 10
5.14481
 20
4.50521
 30
0.0
 40
0.00393701
 41
0.00393701
  0
VERTEX
  8
0
 10
5.12603
 20
4.51357
 30
0.0
 40
0.00393701
 41
0.00393701
  0
VERTEX
  8
0
 10
5.125
 20
4.53961
 30
0.0
 40
0.00393701
 41
0.00393701
  0
VERTEX
  8
0
 10
5.13747
 20
4.56461
 30
0.0
 40
0.00393701
 41
0.00393701
  0
VERTEX
  8
0
 10
5.16146
 20
4.57292
 30
0.0
 40
0.00393701
 41
0.00393701
  0
VERTEX
  8
0
 10
5.17503
 20
4.57086
 30
0.0
 40
0.00393701
 41
0.00393701
  0
VERTEX
  8
0
 10
5.18332
 20
4.56565
 30
0.0
 40
0.00393701
 41
0.00393701
  0
VERTEX
  8
0
 10
5.17188
 20
4.51357
 30
0.0
 40
0.00393701
 41
0.00393701
  0
SEQEND
 8
0
  0
POLYLINE
  8
0
 62
     0
 66
     1
 10
0
 20
0
 30
0.0
 70
     1
 40
0.283465
 41
0.283465
  0
VERTEX
  8
0
 10
4.86253
 20
4.59375
 30
0.0
 40
0.00393701
 41
0.00393701
  0
VERTEX
  8
0
 10
4.86301
 20
4.61464
 30
0.0
 40
0.00393701
 41
0.00393701
  0
VERTEX
  8
0
 10
4.85417
 20
4.62918
 30
0.0
 40
0.00393701
 41
0.00393701
  0
VERTEX
  8
0
 10
4.83681
 20
4.63807
 30
0.0
 40
0.00393701
 41
0.00393701
  0
VERTEX
  8
0
 10
4.8125
 20
4.64063
 30
0.0
 40
0.00393701
 41
0.00393701
  0
VERTEX
  8
0
 10
4.75103
 20
4.64063
 30
0.0
 40
0.00393701
 41
0.00393701
  0
VERTEX
  8
0
 10
4.71149
 20
4.47814
 30
0.0
 40
0.00393701
 41
0.00393701
  0
VERTEX
  8
0
 10
4.75103
 20
4.47814
 30
0.0
 40
0.00393701
 41
0.00393701
  0
VERTEX
  8
0
 10
4.76665
 20
4.54585
 30
0.0
 40
0.00393701
 41
0.00393701
  0
VERTEX
  8
0
 10
4.78961
 20
4.54585
 30
0.0
 40
0.00393701
 41
0.00393701
  0
VERTEX
  8
0
 10
4.83751
 20
4.55729
 30
0.0
 40
0.00393701
 41
0.00393701
  0
VERTEX
  8
0
 10
4.85351
 20
4.57319
 30
0.0
 40
0.00393701
 41
0.00393701
  0
VERTEX
  8
0
 10
4.86253
 20
4.59375
 30
0.0
 40
0.00393701
 41
0.00393701
  0
SEQEND
 8
0
  0
POLYLINE
  8
0
 62
     0
 66
     1
 10
0
 20
0
 30
0.0
 70
     1
 40
0.283465
 41
0.283465
  0
VERTEX
  8
0
 10
4.82292
 20
4.58957
 30
0.0
 40
0.00393701
 41
0.00393701
  0
VERTEX
  8
0
 10
4.8125
 20
4.57189
 30
0.0
 40
0.00393701
 41
0.00393701
  0
VERTEX
  8
0
 10
4.79167
 20
4.56565
 30
0.0
 40
0.00393701
 41
0.00393701
  0
VERTEX
  8
0
 10
4.77399
 20
4.56565
 30
0.0
 40
0.00393701
 41
0.00393701
  0
VERTEX
  8
0
 10
4.78543
 20
4.61356
 30
0.0
 40
0.00393701
 41
0.00393701
  0
VERTEX
  8
0
 10
4.80208
 20
4.61356
 30
0.0
 40
0.00393701
 41
0.00393701
  0
VERTEX
  8
0
 10
4.82086
 20
4.60732
 30
0.0
 40
0.00393701
 41
0.00393701
  0
VERTEX
  8
0
 10
4.82292
 20
4.58957
 30
0.0
 40
0.00393701
 41
0.00393701
  0
SEQEND
 8
0
  0
POLYLINE
  8
0
 62
     0
 66
     1
 10
0
 20
0
 30
0.0
 70
     1
 40
0.283465
 41
0.283465
  0
VERTEX
  8
0
 10
4.95936
 20
4.59478
 30
0.0
 40
0.00393701
 41
0.00393701
  0
VERTEX
  8
0
 10
4.95415
 20
4.5969
 30
0.0
 40
0.00393701
 41
0.00393701
  0
VERTEX
  8
0
 10
4.94476
 20
4.59793
 30
0.0
 40
0.00393701
 41
0.00393701
  0
VERTEX
  8
0
 10
4.93229
 20
4.59586
 30
0.0
 40
0.00393701
 41
0.00393701
  0
VERTEX
  8
0
 10
4.91982
 20
4.59065
 30
0.0
 40
0.00393701
 41
0.00393701
  0
VERTEX
  8
0
 10
4.90728
 20
4.58436
 30
0.0
 40
0.00393701
 41
0.00393701
  0
VERTEX
  8
0
 10
4.91043
 20
4.59586
 30
0.0
 40
0.00393701
 41
0.00393701
  0
VERTEX
  8
0
 10
4.875
 20
4.59375
 30
0.0
 40
0.00393701
 41
0.00393701
  0
VERTEX
  8
0
 10
4.84793
 20
4.48019
 30
0.0
 40
0.00393701
 41
0.00393701
  0
VERTEX
  8
0
 10
4.88336
 20
4.48019
 30
0.0
 40
0.00393701
 41
0.00393701
  0
VERTEX
  8
0
 10
4.90207
 20
4.55626
 30
0.0
 40
0.00393701
 41
0.00393701
  0
VERTEX
  8
0
 10
4.91461
 20
4.5625
 30
0.0
 40
0.00393701
 41
0.00393701
  0
VERTEX
  8
0
 10
4.93126
 20
4.56461
 30
0.0
 40
0.00393701
 41
0.00393701
  0
VERTEX
  8
0
 10
4.94476
 20
4.5625
 30
0.0
 40
0.00393701
 41
0.00393701
  0
VERTEX
  8
0
 10
4.95313
 20
4.55832
 30
0.0
 40
0.00393701
 41
0.00393701
  0
VERTEX
  8
0
 10
4.95936
 20
4.59478
 30
0.0
 40
0.00393701
 41
0.00393701
  0
SEQEND
 8
0
  0
POLYLINE
  8
0
 62
     0
 66
     1
 10
0
 20
0
 30
0.0
 70
     1
 40
0.283465
 41
0.283465
  0
VERTEX
  8
0
 10
5.03022
 20
4.59896
 30
0.0
 40
0.00393701
 41
0.00393701
  0
VERTEX
  8
0
 10
5.00222
 20
4.59446
 30
0.0
 40
0.00393701
 41
0.00393701
  0
VERTEX
  8
0
 10
4.97814
 20
4.58128
 30
0.0
 40
0.00393701
 41
0.00393701
  0
VERTEX
  8
0
 10
4.94997
 20
4.53857
 30
0.0
 40
0.00393701
 41
0.00393701
  0
VERTEX
  8
0
 10
4.94829
 20
4.51346
 30
0.0
 40
0.00393701
 41
0.00393701
  0
VERTEX
  8
0
 10
4.95518
 20
4.49376
 30
0.0
 40
0.00393701
 41
0.00393701
  0
VERTEX
  8
0
 10
4.9725
 20
4.48118
 30
0.0
 40
0.00393701
 41
0.00393701
  0
VERTEX
  8
0
 10
5
 20
4.47711
 30
0.0
 40
0.00393701
 41
0.00393701
  0
VERTEX
  8
0
 10
5.028
 20
4.48118
 30
0.0
 40
0.00393701
 41
0.00393701
  0
VERTEX
  8
0
 10
5.05208
 20
4.49376
 30
0.0
 40
0.00393701
 41
0.00393701
  0
VERTEX
  8
0
 10
5.07004
 20
4.51346
 30
0.0
 40
0.00393701
 41
0.00393701
  0
VERTEX
  8
0
 10
5.08018
 20
4.53857
 30
0.0
 40
0.00393701
 41
0.00393701
  0
VERTEX
  8
0
 10
5.0816
 20
4.56369
 30
0.0
 40
0.00393701
 41
0.00393701
  0
VERTEX
  8
0
 10
5.07292
 20
4.58333
 30
0.0
 40
0.00393701
 41
0.00393701
  0
VERTEX
  8
0
 10
5.05583
 20
4.59506
 30
0.0
 40
0.00393701
 41
0.00393701
  0
VERTEX
  8
0
 10
5.03022
 20
4.59896
 30
0.0
 40
0.00393701
 41
0.00393701
  0
SEQEND
 8
0
  0
POLYLINE
  8
0
 62
     0
 66
     1
 10
0
 20
0
 30
0.0
 70
     1
 40
0.283465
 41
0.283465
  0
VERTEX
  8
0
 10
5.04585
 20
4.53749
 30
0.0
 40
0.00393701
 41
0.00393701
  0
VERTEX
  8
0
 10
5.03228
 20
4.51042
 30
0.0
 40
0.00393701
 41
0.00393701
  0
VERTEX
  8
0
 10
5.00836
 20
4.50211
 30
0.0
 40
0.00393701
 41
0.00393701
  0
VERTEX
  8
0
 10
4.98856
 20
4.51253
 30
0.0
 40
0.00393701
 41
0.00393701
  0
VERTEX
  8
0
 10
4.98643
 20
4.53749
 30
0.0
 40
0.00393701
 41
0.00393701
  0
VERTEX
  8
0
 10
5
 20
4.5625
 30
0.0
 40
0.00393701
 41
0.00393701
  0
VERTEX
  8
0
 10
5.02501
 20
4.57189
 30
0.0
 40
0.00393701
 41
0.00393701
  0
VERTEX
  8
0
 10
5.04372
 20
4.56147
 30
0.0
 40
0.00393701
 41
0.00393701
  0
VERTEX
  8
0
 10
5.04585
 20
4.53749
 30
0.0
 40
0.00393701
 41
0.00393701
  0
SEQEND
 8
0
  0
POLYLINE
  8
0
 62
     0
 66
     1
 10
0
 20
0
 30
0.0
 70
     1
 40
0.283465
 41
0.283465
  0
VERTEX
  8
0
 10
2.27399
 20
5.13124
 30
0.0
 40
0.00393701
 41
0.00393701
  0
VERTEX
  8
0
 10
2.23682
 20
5.16
 30
0.0
 40
0.00393701
 41
0.00393701
  0
VERTEX
  8
0
 10
2.19114
 20
5.1805
 30
0.0
 40
0.00393701
 41
0.00393701
  0
VERTEX
  8
0
 10
2.13683
 20
5.19282
 30
0.0
 40
0.00393701
 41
0.00393701
  0
VERTEX
  8
0
 10
2.07394
 20
5.19689
 30
0.0
 40
0.00393701
 41
0.00393701
  0
VERTEX
  8
0
 10
1.92188
 20
5.19689
 30
0.0
 40
0.00393701
 41
0.00393701
  0
VERTEX
  8
0
 10
1.92188
 20
5.10519
 30
0.0
 40
0.00393701
 41
0.00393701
  0
VERTEX
  8
0
 10
2.07607
 20
5.10519
 30
0.0
 40
0.00393701
 41
0.00393701
  0
VERTEX
  8
0
 10
2.14035
 20
5.09717
 30
0.0
 40
0.00393701
 41
0.00393701
  0
VERTEX
  8
0
 10
2.18435
 20
5.06874
 30
0.0
 40
0.00393701
 41
0.00393701
  0
VERTEX
  8
0
 10
2.21012
 20
5.01719
 30
0.0
 40
0.00393701
 41
0.00393701
  0
VERTEX
  8
0
 10
2.21875
 20
4.94374
 30
0.0
 40
0.00393701
 41
0.00393701
  0
VERTEX
  8
0
 10
2.21094
 20
4.87033
 30
0.0
 40
0.00393701
 41
0.00393701
  0
VERTEX
  8
0
 10
2.1875
 20
4.81874
 30
0.0
 40
0.00393701
 41
0.00393701
  0
VERTEX
  8
0
 10
2.14567
 20
4.79194
 30
0.0
 40
0.00393701
 41
0.00393701
  0
VERTEX
  8
0
 10
2.08436
 20
4.78543
 30
0.0
 40
0.00393701
 41
0.00393701
  0
VERTEX
  8
0
 10
1.9229
 20
4.78543
 30
0.0
 40
0.00393701
 41
0.00393701
  0
VERTEX
  8
0
 10
1.9229
 20
4.68961
 30
0.0
 40
0.00393701
 41
0.00393701
  0
VERTEX
  8
0
 10
2.08231
 20
4.68961
 30
0.0
 40
0.00393701
 41
0.00393701
  0
VERTEX
  8
0
 10
2.14556
 20
4.69374
 30
0.0
 40
0.00393701
 41
0.00393701
  0
VERTEX
  8
0
 10
2.19943
 20
4.70589
 30
0.0
 40
0.00393701
 41
0.00393701
  0
VERTEX
  8
0
 10
2.24397
 20
4.72613
 30
0.0
 40
0.00393701
 41
0.00393701
  0
VERTEX
  8
0
 10
2.27919
 20
4.75418
 30
0.0
 40
0.00393701
 41
0.00393701
  0
VERTEX
  8
0
 10
2.30587
 20
4.7901
 30
0.0
 40
0.00393701
 41
0.00393701
  0
VERTEX
  8
0
 10
2.32508
 20
4.83376
 30
0.0
 40
0.00393701
 41
0.00393701
  0
VERTEX
  8
0
 10
2.33669
 20
4.88499
 30
0.0
 40
0.00393701
 41
0.00393701
  0
VERTEX
  8
0
 10
2.3406
 20
4.94374
 30
0.0
 40
0.00393701
 41
0.00393701
  0
VERTEX
  8
0
 10
2.33529
 20
5.00076
 30
0.0
 40
0.00393701
 41
0.00393701
  0
VERTEX
  8
0
 10
2.32249
 20
5.05122
 30
0.0
 40
0.00393701
 41
0.00393701
  0
VERTEX
  8
0
 10
2.30208
 20
5.09478
 30
0.0
 40
0.00393701
 41
0.00393701
  0
VERTEX
  8
0
 10
2.27399
 20
5.13124
 30
0.0
 40
0.00393701
 41
0.00393701
  0
SEQEND
 8
0
  0
POLYLINE
  8
0
 62
     0
 66
     1
 10
0
 20
0
 30
0.0
 70
     1
 40
0.283465
 41
0.283465
  0
VERTEX
  8
0
 10
5.5344
 20
5.03336
 30
0.0
 40
0.00393701
 41
0.00393701
  0
VERTEX
  8
0
 10
5.53022
 20
5.00624
 30
0.0
 40
0.00393701
 41
0.00393701
  0
VERTEX
  8
0
 10
5.65001
 20
5.00624
 30
0.0
 40
0.00393701
 41
0.00393701
  0
VERTEX
  8
0
 10
5.65419
 20
5.03857
 30
0.0
 40
0.00393701
 41
0.00393701
  0
VERTEX
  8
0
 10
5.53331
 20
5.03857
 30
0.0
 40
0.00393701
 41
0.00393701
  0
VERTEX
  8
0
 10
5.5344
 20
5.03336
 30
0.0
 40
0.00393701
 41
0.00393701
  0
SEQEND
 8
0
  0
POLYLINE
  8
0
 62
     0
 66
     1
 10
0
 20
0
 30
0.0
 70
     1
 40
0.283465
 41
0.283465
  0
VERTEX
  8
0
 10
5.53228
 20
5.05729
 30
0.0
 40
0.00393701
 41
0.00393701
  0
VERTEX
  8
0
 10
5.65522
 20
5.05729
 30
0.0
 40
0.00393701
 41
0.00393701
  0
VERTEX
  8
0
 10
5.65104
 20
5.08957
 30
0.0
 40
0.00393701
 41
0.00393701
  0
VERTEX
  8
0
 10
5.51247
 20
5.08957
 30
0.0
 40
0.00393701
 41
0.00393701
  0
VERTEX
  8
0
 10
5.53228
 20
5.05729
 30
0.0
 40
0.00393701
 41
0.00393701
  0
SEQEND
 8
0
  0
POLYLINE
  8
0
 62
     0
 66
     1
 10
0
 20
0
 30
0.0
 70
     1
 40
0.283465
 41
0.283465
  0
VERTEX
  8
0
 10
4.7979
 20
5.19586
 30
0.0
 40
0.00393701
 41
0.00393701
  0
VERTEX
  8
0
 10
4.73856
 20
5.19586
 30
0.0
 40
0.00393701
 41
0.00393701
  0
VERTEX
  8
0
 10
4.73019
 20
5.16043
 30
0.0
 40
0.00393701
 41
0.00393701
  0
VERTEX
  8
0
 10
4.81456
 20
5.16043
 30
0.0
 40
0.00393701
 41
0.00393701
  0
VERTEX
  8
0
 10
4.7979
 20
5.19586
 30
0.0
 40
0.00393701
 41
0.00393701
  0
SEQEND
 8
0
  0
POLYLINE
  8
0
 62
     0
 66
     1
 10
0
 20
0
 30
0.0
 70
     1
 40
0.283465
 41
0.283465
  0
VERTEX
  8
0
 10
5.13747
 20
5.19586
 30
0.0
 40
0.00393701
 41
0.00393701
  0
VERTEX
  8
0
 10
5.07292
 20
5.19586
 30
0.0
 40
0.00393701
 41
0.00393701
  0
VERTEX
  8
0
 10
5.05729
 20
5.16043
 30
0.0
 40
0.00393701
 41
0.00393701
  0
VERTEX
  8
0
 10
5.14583
 20
5.16043
 30
0.0
 40
0.00393701
 41
0.00393701
  0
VERTEX
  8
0
 10
5.13747
 20
5.19586
 30
0.0
 40
0.00393701
 41
0.00393701
  0
SEQEND
 8
0
  0
POLYLINE
  8
0
 62
     0
 66
     1
 10
0
 20
0
 30
0.0
 70
     1
 40
0.283465
 41
0.283465
  0
VERTEX
  8
0
 10
5.4656
 20
5.19586
 30
0.0
 40
0.00393701
 41
0.00393701
  0
VERTEX
  8
0
 10
5.27289
 20
5.19586
 30
0.0
 40
0.00393701
 41
0.00393701
  0
VERTEX
  8
0
 10
5.27289
 20
5.16043
 30
0.0
 40
0.00393701
 41
0.00393701
  0
VERTEX
  8
0
 10
5.60211
 20
5.16043
 30
0.0
 40
0.00393701
 41
0.00393701
  0
VERTEX
  8
0
 10
5.54318
 20
5.18718
 30
0.0
 40
0.00393701
 41
0.00393701
  0
VERTEX
  8
0
 10
5.4656
 20
5.19586
 30
0.0
 40
0.00393701
 41
0.00393701
  0
SEQEND
 8
0
  0
POLYLINE
  8
0
 62
     0
 66
     1
 10
0
 20
0
 30
0.0
 70
     1
 40
0.283465
 41
0.283465
  0
VERTEX
  8
0
 10
5.39583
 20
4.83128
 30
0.0
 40
0.00393701
 41
0.00393701
  0
VERTEX
  8
0
 10
5.27399
 20
4.83128
 30
0.0
 40
0.00393701
 41
0.00393701
  0
VERTEX
  8
0
 10
5.27399
 20
4.79899
 30
0.0
 40
0.00393701
 41
0.00393701
  0
VERTEX
  8
0
 10
5.39583
 20
4.79899
 30
0.0
 40
0.00393701
 41
0.00393701
  0
VERTEX
  8
0
 10
5.39583
 20
4.83128
 30
0.0
 40
0.00393701
 41
0.00393701
  0
SEQEND
 8
0
  0
POLYLINE
  8
0
 62
     0
 66
     1
 10
0
 20
0
 30
0.0
 70
     1
 40
0.283465
 41
0.283465
  0
VERTEX
  8
0
 10
5.39583
 20
4.78125
 30
0.0
 40
0.00393701
 41
0.00393701
  0
VERTEX
  8
0
 10
5.27399
 20
4.78125
 30
0.0
 40
0.00393701
 41
0.00393701
  0
VERTEX
  8
0
 10
5.27399
 20
4.7469
 30
0.0
 40
0.00393701
 41
0.00393701
  0
VERTEX
  8
0
 10
5.39583
 20
4.7469
 30
0.0
 40
0.00393701
 41
0.00393701
  0
VERTEX
  8
0
 10
5.39583
 20
4.78125
 30
0.0
 40
0.00393701
 41
0.00393701
  0
SEQEND
 8
0
  0
POLYLINE
  8
0
 62
     0
 66
     1
 10
0
 20
0
 30
0.0
 70
     1
 40
0.283465
 41
0.283465
  0
VERTEX
  8
0
 10
5.60622
 20
4.93647
 30
0.0
 40
0.00393701
 41
0.00393701
  0
VERTEX
  8
0
 10
5.27399
 20
4.93647
 30
0.0
 40
0.00393701
 41
0.00393701
  0
VERTEX
  8
0
 10
5.27399
 20
4.90001
 30
0.0
 40
0.00393701
 41
0.00393701
  0
VERTEX
  8
0
 10
5.46669
 20
4.90001
 30
0.0
 40
0.00393701
 41
0.00393701
  0
VERTEX
  8
0
 10
5.54699
 20
4.90967
 30
0.0
 40
0.00393701
 41
0.00393701
  0
VERTEX
  8
0
 10
5.60622
 20
4.93647
 30
0.0
 40
0.00393701
 41
0.00393701
  0
SEQEND
 8
0
  0
POLYLINE
  8
0
 62
     0
 66
     1
 10
0
 20
0
 30
0.0
 70
     1
 40
0.283465
 41
0.283465
  0
VERTEX
  8
0
 10
5.39583
 20
4.88232
 30
0.0
 40
0.00393701
 41
0.00393701
  0
VERTEX
  8
0
 10
5.27399
 20
4.88232
 30
0.0
 40
0.00393701
 41
0.00393701
  0
VERTEX
  8
0
 10
5.27399
 20
4.84999
 30
0.0
 40
0.00393701
 41
0.00393701
  0
VERTEX
  8
0
 10
5.39583
 20
4.84999
 30
0.0
 40
0.00393701
 41
0.00393701
  0
VERTEX
  8
0
 10
5.39583
 20
4.88232
 30
0.0
 40
0.00393701
 41
0.00393701
  0
SEQEND
 8
0
  0
POLYLINE
  8
0
 62
     0
 66
     1
 10
0
 20
0
 30
0.0
 70
     1
 40
0.283465
 41
0.283465
  0
VERTEX
  8
0
 10
5.39583
 20
4.72814
 30
0.0
 40
0.00393701
 41
0.00393701
  0
VERTEX
  8
0
 10
5.27399
 20
4.72814
 30
0.0
 40
0.00393701
 41
0.00393701
  0
VERTEX
  8
0
 10
5.27399
 20
4.6875
 30
0.0
 40
0.00393701
 41
0.00393701
  0
VERTEX
  8
0
 10
5.39583
 20
4.6875
 30
0.0
 40
0.00393701
 41
0.00393701
  0
VERTEX
  8
0
 10
5.39583
 20
4.72814
 30
0.0
 40
0.00393701
 41
0.00393701
  0
SEQEND
 8
0
  0
POLYLINE
  8
0
 62
     0
 66
     1
 10
0
 20
0
 30
0.0
 70
     1
 40
0.283465
 41
0.283465
  0
VERTEX
  8
0
 10
2.95313
 20
4.91043
 30
0.0
 40
0.00393701
 41
0.00393701
  0
VERTEX
  8
0
 10
3.15625
 20
4.91043
 30
0.0
 40
0.00393701
 41
0.00393701
  0
VERTEX
  8
0
 10
3.15625
 20
4.98232
 30
0.0
 40
0.00393701
 41
0.00393701
  0
VERTEX
  8
0
 10
2.95313
 20
4.98232
 30
0.0
 40
0.00393701
 41
0.00393701
  0
VERTEX
  8
0
 10
2.95313
 20
5.10732
 30
0.0
 40
0.00393701
 41
0.00393701
  0
VERTEX
  8
0
 10
3.14789
 20
5.10732
 30
0.0
 40
0.00393701
 41
0.00393701
  0
VERTEX
  8
0
 10
3.14789
 20
5.19586
 30
0.0
 40
0.00393701
 41
0.00393701
  0
VERTEX
  8
0
 10
2.83128
 20
5.19586
 30
0.0
 40
0.00393701
 41
0.00393701
  0
VERTEX
  8
0
 10
2.83128
 20
4.6875
 30
0.0
 40
0.00393701
 41
0.00393701
  0
VERTEX
  8
0
 10
3.16043
 20
4.6875
 30
0.0
 40
0.00393701
 41
0.00393701
  0
VERTEX
  8
0
 10
3.16043
 20
4.77501
 30
0.0
 40
0.00393701
 41
0.00393701
  0
VERTEX
  8
0
 10
2.95313
 20
4.77501
 30
0.0
 40
0.00393701
 41
0.00393701
  0
VERTEX
  8
0
 10
2.95313
 20
4.91043
 30
0.0
 40
0.00393701
 41
0.00393701
  0
SEQEND
 8
0
  0
POLYLINE
  8
0
 62
     0
 66
     1
 10
0
 20
0
 30
0.0
 70
     1
 40
0.283465
 41
0.283465
  0
VERTEX
  8
0
 10
2.51878
 20
5.20003
 30
0.0
 40
0.00393701
 41
0.00393701
  0
VERTEX
  8
0
 10
2.29482
 20
4.68853
 30
0.0
 40
0.00393701
 41
0.00393701
  0
VERTEX
  8
0
 10
2.41564
 20
4.68853
 30
0.0
 40
0.00393701
 41
0.00393701
  0
VERTEX
  8
0
 10
2.54269
 20
4.99376
 30
0.0
 40
0.00393701
 41
0.00393701
  0
VERTEX
  8
0
 10
2.68024
 20
4.68853
 30
0.0
 40
0.00393701
 41
0.00393701
  0
VERTEX
  8
0
 10
2.81976
 20
4.68853
 30
0.0
 40
0.00393701
 41
0.00393701
  0
VERTEX
  8
0
 10
2.58649
 20
5.20003
 30
0.0
 40
0.00393701
 41
0.00393701
  0
VERTEX
  8
0
 10
2.51878
 20
5.20003
 30
0.0
 40
0.00393701
 41
0.00393701
  0
SEQEND
 8
0
  0
POLYLINE
  8
0
 62
     0
 66
     1
 10
0
 20
0
 30
0.0
 70
     1
 40
0.283465
 41
0.283465
  0
VERTEX
  8
0
 10
3.5146
 20
4.62082
 30
0.0
 40
0.00393701
 41
0.00393701
  0
VERTEX
  8
0
 10
3.49192
 20
4.63633
 30
0.0
 40
0.00393701
 41
0.00393701
  0
VERTEX
  8
0
 10
3.45518
 20
4.64165
 30
0.0
 40
0.00393701
 41
0.00393701
  0
VERTEX
  8
0
 10
3.40625
 20
4.64165
 30
0.0
 40
0.00393701
 41
0.00393701
  0
VERTEX
  8
0
 10
3.36774
 20
4.47917
 30
0.0
 40
0.00393701
 41
0.00393701
  0
VERTEX
  8
0
 10
3.41872
 20
4.47917
 30
0.0
 40
0.00393701
 41
0.00393701
  0
VERTEX
  8
0
 10
3.45763
 20
4.48454
 30
0.0
 40
0.00393701
 41
0.00393701
  0
VERTEX
  8
0
 10
3.48643
 20
4.5
 30
0.0
 40
0.00393701
 41
0.00393701
  0
VERTEX
  8
0
 10
3.50754
 20
4.52556
 30
0.0
 40
0.00393701
 41
0.00393701
  0
VERTEX
  8
0
 10
3.52083
 20
4.56044
 30
0.0
 40
0.00393701
 41
0.00393701
  0
VERTEX
  8
0
 10
3.52468
 20
4.59494
 30
0.0
 40
0.00393701
 41
0.00393701
  0
VERTEX
  8
0
 10
3.5146
 20
4.62082
 30
0.0
 40
0.00393701
 41
0.00393701
  0
SEQEND
 8
0
  0
POLYLINE
  8
0
 62
     0
 66
     1
 10
0
 20
0
 30
0.0
 70
     1
 40
0.283465
 41
0.283465
  0
VERTEX
  8
0
 10
3.48232
 20
4.56044
 30
0.0
 40
0.00393701
 41
0.00393701
  0
VERTEX
  8
0
 10
3.46251
 20
4.51981
 30
0.0
 40
0.00393701
 41
0.00393701
  0
VERTEX
  8
0
 10
3.447
 20
4.50993
 30
0.0
 40
0.00393701
 41
0.00393701
  0
VERTEX
  8
0
 10
3.42606
 20
4.50624
 30
0.0
 40
0.00393701
 41
0.00393701
  0
VERTEX
  8
0
 10
3.41351
 20
4.50624
 30
0.0
 40
0.00393701
 41
0.00393701
  0
VERTEX
  8
0
 10
3.43956
 20
4.61253
 30
0.0
 40
0.00393701
 41
0.00393701
  0
VERTEX
  8
0
 10
3.44997
 20
4.61253
 30
0.0
 40
0.00393701
 41
0.00393701
  0
VERTEX
  8
0
 10
3.46951
 20
4.60926
 30
0.0
 40
0.00393701
 41
0.00393701
  0
VERTEX
  8
0
 10
3.48122
 20
4.59896
 30
0.0
 40
0.00393701
 41
0.00393701
  0
VERTEX
  8
0
 10
3.48568
 20
4.58361
 30
0.0
 40
0.00393701
 41
0.00393701
  0
VERTEX
  8
0
 10
3.48232
 20
4.56044
 30
0.0
 40
0.00393701
 41
0.00393701
  0
SEQEND
 8
0
  0
POLYLINE
  8
0
 62
     0
 66
     1
 10
0
 20
0
 30
0.0
 70
     1
 40
0.283465
 41
0.283465
  0
VERTEX
  8
0
 10
3.44792
 20
4.78749
 30
0.0
 40
0.00393701
 41
0.00393701
  0
VERTEX
  8
0
 10
3.44792
 20
5.19586
 30
0.0
 40
0.00393701
 41
0.00393701
  0
VERTEX
  8
0
 10
3.32607
 20
5.19586
 30
0.0
 40
0.00393701
 41
0.00393701
  0
VERTEX
  8
0
 10
3.32607
 20
4.8125
 30
0.0
 40
0.00393701
 41
0.00393701
  0
VERTEX
  8
0
 10
3.31668
 20
4.78228
 30
0.0
 40
0.00393701
 41
0.00393701
  0
VERTEX
  8
0
 10
3.30257
 20
4.77501
 30
0.0
 40
0.00393701
 41
0.00393701
  0
VERTEX
  8
0
 10
3.27919
 20
4.77707
 30
0.0
 40
0.00393701
 41
0.00393701
  0
VERTEX
  8
0
 10
3.25217
 20
4.79378
 30
0.0
 40
0.00393701
 41
0.00393701
  0
VERTEX
  8
0
 10
3.24164
 20
4.80419
 30
0.0
 40
0.00393701
 41
0.00393701
  0
VERTEX
  8
0
 10
3.16564
 20
4.73649
 30
0.0
 40
0.00393701
 41
0.00393701
  0
VERTEX
  8
0
 10
3.18668
 20
4.71724
 30
0.0
 40
0.00393701
 41
0.00393701
  0
VERTEX
  8
0
 10
3.21875
 20
4.69792
 30
0.0
 40
0.00393701
 41
0.00393701
  0
VERTEX
  8
0
 10
3.26687
 20
4.683
 30
0.0
 40
0.00393701
 41
0.00393701
  0
VERTEX
  8
0
 10
3.32915
 20
4.67811
 30
0.0
 40
0.00393701
 41
0.00393701
  0
VERTEX
  8
0
 10
3.37901
 20
4.68506
 30
0.0
 40
0.00393701
 41
0.00393701
  0
VERTEX
  8
0
 10
3.41872
 20
4.70524
 30
0.0
 40
0.00393701
 41
0.00393701
  0
VERTEX
  8
0
 10
3.44069
 20
4.73936
 30
0.0
 40
0.00393701
 41
0.00393701
  0
VERTEX
  8
0
 10
3.44792
 20
4.78749
 30
0.0
 40
0.00393701
 41
0.00393701
  0
SEQEND
 8
0
  0
POLYLINE
  8
0
 62
     0
 66
     1
 10
0
 20
0
 30
0.0
 70
     1
 40
0.283465
 41
0.283465
  0
VERTEX
  8
0
 10
3.80003
 20
4.98128
 30
0.0
 40
0.00393701
 41
0.00393701
  0
VERTEX
  8
0
 10
4.0344
 20
4.68853
 30
0.0
 40
0.00393701
 41
0.00393701
  0
VERTEX
  8
0
 10
4.10519
 20
4.68853
 30
0.0
 40
0.00393701
 41
0.00393701
  0
VERTEX
  8
0
 10
4.10519
 20
5.19689
 30
0.0
 40
0.00393701
 41
0.00393701
  0
VERTEX
  8
0
 10
3.98856
 20
5.19689
 30
0.0
 40
0.00393701
 41
0.00393701
  0
VERTEX
  8
0
 10
3.98856
 20
4.90522
 30
0.0
 40
0.00393701
 41
0.00393701
  0
VERTEX
  8
0
 10
3.75315
 20
5.19586
 30
0.0
 40
0.00393701
 41
0.00393701
  0
VERTEX
  8
0
 10
3.68435
 20
5.19586
 30
0.0
 40
0.00393701
 41
0.00393701
  0
VERTEX
  8
0
 10
3.68435
 20
4.6875
 30
0.0
 40
0.00393701
 41
0.00393701
  0
VERTEX
  8
0
 10
3.80003
 20
4.6875
 30
0.0
 40
0.00393701
 41
0.00393701
  0
VERTEX
  8
0
 10
3.80003
 20
4.98128
 30
0.0
 40
0.00393701
 41
0.00393701
  0
SEQEND
 8
0
  0
POLYLINE
  8
0
 62
     0
 66
     1
 10
0
 20
0
 30
0.0
 70
     1
 40
0.283465
 41
0.283465
  0
VERTEX
  8
0
 10
4.375
 20
5.19586
 30
0.0
 40
0.00393701
 41
0.00393701
  0
VERTEX
  8
0
 10
4.22293
 20
5.19586
 30
0.0
 40
0.00393701
 41
0.00393701
  0
VERTEX
  8
0
 10
4.22293
 20
5.16043
 30
0.0
 40
0.00393701
 41
0.00393701
  0
VERTEX
  8
0
 10
4.53543
 20
5.16043
 30
0.0
 40
0.00393701
 41
0.00393701
  0
VERTEX
  8
0
 10
4.46457
 20
5.18718
 30
0.0
 40
0.00393701
 41
0.00393701
  0
VERTEX
  8
0
 10
4.375
 20
5.19586
 30
0.0
 40
0.00393701
 41
0.00393701
  0
SEQEND
 8
0
  0
POLYLINE
  8
0
 62
     0
 66
     1
 10
0
 20
0
 30
0.0
 70
     1
 40
0.283465
 41
0.283465
  0
VERTEX
  8
0
 10
3.62815
 20
5.19586
 30
0.0
 40
0.00393701
 41
0.00393701
  0
VERTEX
  8
0
 10
3.50624
 20
5.19586
 30
0.0
 40
0.00393701
 41
0.00393701
  0
VERTEX
  8
0
 10
3.50624
 20
4.6875
 30
0.0
 40
0.00393701
 41
0.00393701
  0
VERTEX
  8
0
 10
3.62815
 20
4.6875
 30
0.0
 40
0.00393701
 41
0.00393701
  0
VERTEX
  8
0
 10
3.62815
 20
5.19586
 30
0.0
 40
0.00393701
 41
0.00393701
  0
SEQEND
 8
0
  0
POLYLINE
  8
0
 62
     0
 66
     1
 10
0
 20
0
 30
0.0
 70
     1
 40
0.283465
 41
0.283465
  0
VERTEX
  8
0
 10
3.58436
 20
4.60628
 30
0.0
 40
0.00393701
 41
0.00393701
  0
VERTEX
  8
0
 10
3.59169
 20
4.63644
 30
0.0
 40
0.00393701
 41
0.00393701
  0
VERTEX
  8
0
 10
3.55626
 20
4.63644
 30
0.0
 40
0.00393701
 41
0.00393701
  0
VERTEX
  8
0
 10
3.54893
 20
4.60628
 30
0.0
 40
0.00393701
 41
0.00393701
  0
VERTEX
  8
0
 10
3.58436
 20
4.60628
 30
0.0
 40
0.00393701
 41
0.00393701
  0
SEQEND
 8
0
  0
POLYLINE
  8
0
 62
     0
 66
     1
 10
0
 20
0
 30
0.0
 70
     1
 40
0.283465
 41
0.283465
  0
VERTEX
  8
0
 10
2.01357
 20
4.9969
 30
0.0
 40
0.00393701
 41
0.00393701
  0
VERTEX
  8
0
 10
1.92085
 20
4.9969
 30
0.0
 40
0.00393701
 41
0.00393701
  0
VERTEX
  8
0
 10
1.92085
 20
4.90522
 30
0.0
 40
0.00393701
 41
0.00393701
  0
VERTEX
  8
0
 10
2.01357
 20
4.90522
 30
0.0
 40
0.00393701
 41
0.00393701
  0
VERTEX
  8
0
 10
2.01357
 20
4.9969
 30
0.0
 40
0.00393701
 41
0.00393701
  0
SEQEND
 8
0
  0
POLYLINE
  8
0
 62
     0
 66
     1
 10
0
 20
0
 30
0.0
 70
     1
 40
0.283465
 41
0.283465
  0
VERTEX
  8
0
 10
1.92085
 20
4.9969
 30
0.0
 40
0.00393701
 41
0.00393701
  0
VERTEX
  8
0
 10
2.01247
 20
4.9969
 30
0.0
 40
0.00393701
 41
0.00393701
  0
VERTEX
  8
0
 10
2.01247
 20
4.90522
 30
0.0
 40
0.00393701
 41
0.00393701
  0
VERTEX
  8
0
 10
1.92085
 20
4.90522
 30
0.0
 40
0.00393701
 41
0.00393701
  0
VERTEX
  8
0
 10
1.92085
 20
4.9969
 30
0.0
 40
0.00393701
 41
0.00393701
  0
SEQEND
 8
0
  0
POLYLINE
  8
0
 62
     0
 66
     1
 10
0
 20
0
 30
0.0
 70
     1
 40
0.283465
 41
0.283465
  0
VERTEX
  8
0
 10
4.22293
 20
4.9969
 30
0.0
 40
0.00393701
 41
0.00393701
  0
VERTEX
  8
0
 10
4.31668
 20
4.9969
 30
0.0
 40
0.00393701
 41
0.00393701
  0
VERTEX
  8
0
 10
4.31668
 20
4.90522
 30
0.0
 40
0.00393701
 41
0.00393701
  0
VERTEX
  8
0
 10
4.22293
 20
4.90522
 30
0.0
 40
0.00393701
 41
0.00393701
  0
VERTEX
  8
0
 10
4.22293
 20
4.9969
 30
0.0
 40
0.00393701
 41
0.00393701
  0
SEQEND
 8
0
  0
ENDSEC
  0
EOF
