<?xml version="1.0" encoding="utf-8"?>
<!-- Generator: Adobe Illustrator 21.0.2, SVG Export Plug-In . SVG Version: 6.00 Build 0)  -->
<svg version="1.1" id="_xB7__xB9_ÀÌ_xBE_î_x5F_1"
	 xmlns="http://www.w3.org/2000/svg" xmlns:xlink="http://www.w3.org/1999/xlink" x="0px" y="0px" viewBox="0 0 595.3 841.9"
	 style="enable-background:new 0 0 595.3 841.9;" xml:space="preserve">
<style type="text/css">
	.st0{fill:#D6392C;}
	.st1{fill:#B4B9BF;}
</style>
<g>
	<path class="st0" d="M136.5,341.9c-7.6-15.3-30-17.2-51.6-5.1c9.8-0.3,36.9,0.1,22.5,25.1c-9.3,16-23.9,24.4-35.8,28.3
		c-9.5,3.1-17.3,3.4-19.2,3.4c0.3,1,0.7,1.9,1.2,2.8c8.1,16.3,33.2,17.4,56.1,2.3C132.5,383.7,144.6,358.2,136.5,341.9"/>
	<path class="st0" d="M85,364.4c7.3-12.4-5.6-9.9-5.6-9.9l-15.6,21.3C63.7,375.8,76.8,377.3,85,364.4"/>
	<path class="st1" d="M163.7,342c-5.5-11.1-18.8-15-34-11.7c6.6,1.8,11.9,5.7,14.8,11.7c8,16.2-3.9,41.4-26.5,56.2
		c-7.2,4.7-14.6,7.8-21.6,9.4c11.3,3.1,26.4,0,40.7-9.4C159.8,383.3,171.7,358.2,163.7,342"/>
	<path d="M486.8,364.7l0.3,1.4h11.5l-0.7-3.1H478l-1.4,3.1h9.5L486.8,364.7z M496.7,358.2h-16.5l-1.4,3.1h18.6L496.7,358.2z
		 M491.4,386.2h11.9l-0.8-3.3h-11.8L491.4,386.2z M489.3,376.3H501l-0.7-3.1h-11.6L489.3,376.3z M490.3,381.1h11.8l-0.7-3.1h-11.7
		L490.3,381.1z M518,358.2h-11.7v3.1H518V358.2z M499,368h-11.5l0.7,3.5h11.6L499,368z M478.4,382.9h-10l1.4,3.3h7.1L478.4,382.9z
		 M445,373.2h-11.8c-0.2,1.1-0.5,2.1-0.8,3.1h12C444.7,375.3,444.9,374.3,445,373.2 M414.3,363.1h-8.9v3.1h8.9V363.1z M433.6,371.4
		h11.6c0.1-1.1,0.2-2.3,0.2-3.5h-11.6C433.8,369.2,433.7,370.3,433.6,371.4 M455.8,388h-11.3l-0.9,3.9H455L455.8,388z M439.6,385.7
		c0.8-0.8,1.5-1.8,2.1-2.8h-36.3v3.3H439C439.2,386,439.4,385.9,439.6,385.7 M439.2,349.3c-0.4-0.4-0.8-0.7-1.2-1.1h-32.6v3.3H441
		C440.5,350.8,439.9,350,439.2,349.3 M495.6,353.3h-13.2l-1.4,3.1h15.3L495.6,353.3z M494.4,348.3h-9.7l-1.5,3.3h11.9L494.4,348.3z
		 M518,353.3h-11.7v3.1H518V353.3z M463,348.3h-9.3l-0.8,3.3h11.6L463,348.3z M463.4,371.4h10.5l-1.6-3.5h-10.4L463.4,371.4z
		 M444,378.1h-12.3c-0.3,0.5-0.5,1-0.8,1.4c-0.5,0.7-1.2,1.2-1.9,1.7h13.8C443.2,380.2,443.6,379.2,444,378.1 M414.3,368h-8.9v3h8.9
		V368z M433.7,366.2h11.6c0-1.1-0.1-2.1-0.2-3.1h-11.7C433.6,364.1,433.7,365.1,433.7,366.2 M416.5,399.7l0.7-2.9h-3.4l-0.7,2.9
		H416.5z M430.5,355.5c0.2,0.3,0.4,0.6,0.6,1h12.5c-0.4-1.1-0.9-2.1-1.4-3.1h-14.5C428.8,353.9,429.8,354.5,430.5,355.5 M518,351.5
		h5.2c0.1,0,0.2,0,0.2,0h18.5c-0.5-1.2-1.2-2.3-2-3.3h-33.6v3.3L518,351.5L518,351.5z M436.7,388h-31.4v3.9h15.2
		C427.5,391.9,432.9,390.6,436.7,388 M467.7,358.2h-16.3l-0.7,3.1h18.4L467.7,358.2z M529.4,364.1c-1.3,1.3-3.3,2-6,2H518v-2.9
		h-11.7v3.1h33.8c0.8-0.9,1.4-1.9,1.8-3.1h-11.7C530,363.4,529.7,363.8,529.4,364.1 M492.6,391.9h12l-0.9-3.9h-12L492.6,391.9z
		 M456.2,386.2l0.7-3.3h-11.3l-0.8,3.3H456.2z M459.1,373.2h-11.2l-0.7,3.1h11.2L459.1,373.2z M476,388.1L476,388.1l-5.5-0.1l0,0.1
		H476z M460.3,368h-11.2l-0.8,3.5h11.2L460.3,368z M458,378.1h-11.3l-0.7,3.1h11.3L458,378.1z M480.7,378.1h-14.4l1.3,3.1h11.6
		L480.7,378.1z M482.9,373.2h-18.8l1.3,3.1h16L482.9,373.2z M460.8,365.6l0.2,0.6h10.3l-1.4-3.1h-19.7l-0.7,3.1h11.2L460.8,365.6z
		 M485.3,368h-9.5l-1.6,3.5h9.5L485.3,368z M465.4,353.3h-12.9l-0.7,3.1h15L465.4,353.3z M433.2,361.3h11.8
		c-0.2-1.1-0.4-2.1-0.7-3.1h-12C432.6,359.1,432.9,360.2,433.2,361.3 M407.6,396.3l-6.7,9.2l-2.3-9.2h-1.5l-7.5,15.6h3.7l3.9-8.4
		l1.4,7.2h1.7l5.2-7.5l-0.2,8.7h3.8l0-15.6H407.6z M388.4,396.3H385l-2.8,11.9c-0.2,0.9-0.2,1.6,0.2,2.3c0.4,0.6,0.9,1.2,1.6,1.7
		l2.9-2c-0.5-0.4-0.9-0.8-1-1.3c-0.2-0.4-0.2-1,0-1.8L388.4,396.3z M381.4,401l-0.6-0.2l-2.1,0.6c-0.1-0.2-0.5-0.4-1-0.6
		c-0.5-0.3-1.1-0.4-1.8-0.4c-1.7,0-3.2,0.6-4.5,1.7c-1.4,1.1-2.2,2.5-2.6,4.2c-0.4,1.8-0.2,3.2,0.6,4.2c0.8,1,2,1.5,3.6,1.5
		c0.1,0,0.3,0,0.5-0.1c0.2,0,0.3-0.1,0.4-0.1l2.3-1.1c0,0.3,0.1,0.6,0.4,0.9c0.2,0.3,0.5,0.5,0.9,0.6l3.1-2
		c-0.5-0.2-0.7-0.5-0.9-0.8c-0.1-0.4-0.1-0.9,0-1.5L381.4,401z M376.4,408.7c-0.2,0.1-0.5,0.2-0.9,0.4c-0.4,0.1-0.9,0.2-1.4,0.2
		c-0.8,0-1.4-0.3-1.7-0.8c-0.3-0.6-0.4-1.3-0.2-2.2c0.3-1.2,0.7-2,1.3-2.5c0.6-0.5,1.3-0.7,2-0.7c0.5,0,0.9,0.1,1.2,0.3
		c0.3,0.2,0.5,0.4,0.7,0.7L376.4,408.7z M340.4,401l-2.6,10.9h3.4l2.7-11.1L340.4,401z M422.3,409.4c-0.8,0-1.5-0.2-2-0.7
		c-0.5-0.5-0.6-1.3-0.4-2.3c0.3-1.1,0.7-1.9,1.4-2.4c0.7-0.5,1.4-0.8,2.4-0.8c0.6,0,1.1,0.1,1.6,0.2c0.4,0.1,0.9,0.4,1.4,0.7
		l0.8-3.2c-0.3-0.1-0.7-0.3-1.3-0.4c-0.6-0.1-1.2-0.2-2-0.2c-1.8,0-3.4,0.6-4.9,1.8c-1.5,1.2-2.4,2.6-2.7,4.1
		c-0.5,2-0.2,3.4,0.7,4.4c0.9,1,2.3,1.4,4.1,1.4c1,0,1.8-0.1,2.5-0.4c0.7-0.3,1.2-0.5,1.5-0.7l0.7-2.7c-0.5,0.3-1.1,0.6-1.6,0.8
		C423.7,409.3,423,409.4,422.3,409.4 M356.1,411.9h3.4l2.7-11.1l-3.5,0.2L356.1,411.9z M437.1,400.8c-0.1-0.1-0.3-0.1-0.5-0.2
		c-0.2,0-0.5-0.1-0.9-0.1c-0.4,0-0.8,0.1-1.2,0.2c-0.4,0.1-0.9,0.3-1.2,0.5l-1.2,0.6l0.3-1.1l-3.5,0.2l-2.6,10.9h3.4l1.8-7.3
		c0.3-0.2,0.7-0.5,1.2-0.6c0.5-0.2,1-0.2,1.6-0.2c0.5,0,1,0.1,1.3,0.2c0.4,0.1,0.6,0.2,0.8,0.4L437.1,400.8z M355.9,400.8l-2,0.6
		c-0.4-0.4-0.8-0.6-1.3-0.8c-0.5-0.2-1-0.2-1.6-0.2c-1.6,0-3.1,0.5-4.4,1.6c-1.3,1.1-2.2,2.4-2.6,4.1c-0.4,1.8-0.3,3.2,0.4,4.2
		c0.7,1,1.8,1.5,3.5,1.5c0.2,0,0.5,0,0.8-0.1c0.3,0,0.6-0.1,0.8-0.3l1.4-0.7l-0.2,0.8c-0.2,0.7-0.6,1.2-1.2,1.5
		c-0.7,0.3-1.8,0.4-3.5,0.4l-0.4,1.8l3,0c0.5-0.1,1.1-0.3,1.7-0.5c0.6-0.3,1.2-0.6,1.7-0.9c0.6-0.4,1-0.9,1.5-1.4
		c0.4-0.5,0.7-1.2,0.9-1.8l2.3-9.5L355.9,400.8z M351.6,408.3c-0.3,0.3-0.6,0.5-1,0.6c-0.4,0.2-0.8,0.2-1.3,0.2
		c-0.9,0-1.5-0.3-1.7-0.9c-0.3-0.6-0.3-1.4-0.1-2.4c0.2-0.7,0.5-1.4,1.1-2c0.6-0.5,1.3-0.8,2.3-0.8c0.5,0,0.9,0.1,1.2,0.3
		c0.3,0.2,0.5,0.4,0.6,0.7L351.6,408.3z M359.8,396.7l-0.7,2.9h3.4l0.7-2.9H359.8z M366.5,408.9c-0.2-0.5-0.3-1.2-0.1-1.9l0.9-3.9
		h1.8l0.5-2h-1.8l0.9-3.8l-3.4,0.2l-0.9,3.6h-1.1l-0.5,2h1.1l-1.1,4.8c-0.3,1-0.2,1.9,0.1,2.6c0.3,0.7,0.9,1.3,1.9,1.7l3-2.1
		C367.2,409.8,366.8,409.4,366.5,408.9 M412.8,401l-2.6,10.9h3.4l2.7-11.1L412.8,401z M519.7,404c0.6-0.5,1.4-0.8,2.3-0.8
		c0.6,0,1.1,0.1,1.6,0.2c0.4,0.1,0.9,0.4,1.4,0.7l0.8-3.2c-0.3-0.1-0.7-0.3-1.3-0.4c-0.6-0.1-1.2-0.2-2-0.2c-1.8,0-3.4,0.6-4.9,1.8
		c-1.4,1.2-2.4,2.6-2.7,4.1c-0.5,2-0.3,3.4,0.6,4.4c0.9,1,2.3,1.4,4.1,1.4c1,0,1.8-0.1,2.5-0.4c0.7-0.3,1.2-0.5,1.5-0.7l0.7-2.7
		c-0.5,0.3-1.1,0.6-1.6,0.8c-0.6,0.2-1.2,0.3-1.9,0.3c-0.8,0-1.5-0.2-2-0.7c-0.5-0.5-0.6-1.3-0.4-2.3
		C518.6,405.3,519.1,404.5,519.7,404 M443.8,400.4c-1.9,0-3.6,0.6-5,1.7c-1.4,1.2-2.3,2.5-2.7,4.1c-0.4,1.8-0.3,3.2,0.5,4.3
		c0.8,1.1,2.2,1.6,4.3,1.6c2,0,3.6-0.5,5-1.6c1.4-1.1,2.3-2.5,2.7-4.3c0.4-1.8,0.2-3.2-0.7-4.3C447.2,400.9,445.8,400.4,443.8,400.4
		 M445.3,406.3c-0.3,1.2-0.7,2.1-1.3,2.6c-0.6,0.5-1.3,0.8-2.3,0.8c-0.9,0-1.5-0.3-1.9-1c-0.4-0.7-0.5-1.5-0.2-2.4
		c0.2-1,0.7-1.8,1.3-2.4c0.6-0.6,1.4-0.9,2.4-0.9c0.9,0,1.5,0.3,1.8,1C445.4,404.6,445.5,405.4,445.3,406.3 M529.5,408.9
		c-0.3-0.5-0.3-1.2-0.1-1.9l0.9-3.9h1.8l0.5-2h-1.8l0.9-3.8l-3.4,0.2l-0.9,3.6h-1.1l-0.5,2h1.1l-1.1,4.8c-0.2,1-0.2,1.9,0.1,2.6
		c0.3,0.7,1,1.3,1.9,1.7l3-2.1C530.2,409.8,529.8,409.4,529.5,408.9 M538.2,400.4c-1.4,0-2.6,0.3-3.7,1c-1.1,0.7-1.8,1.6-2,2.6
		c-0.2,0.9-0.1,1.7,0.4,2.2c0.5,0.6,1.4,0.9,2.9,1c0.8,0.1,1.4,0.2,1.7,0.4c0.3,0.2,0.4,0.4,0.3,0.7c-0.1,0.5-0.4,0.8-0.8,0.9
		c-0.4,0.2-1,0.3-1.7,0.3c-0.9,0-1.7-0.1-2.3-0.3c-0.6-0.2-1.2-0.5-1.7-0.7l-0.7,2.7c0.6,0.3,1.4,0.6,2.2,0.7
		c0.9,0.1,1.6,0.2,2.3,0.2c1.4,0,2.6-0.4,3.7-1.1c1.1-0.7,1.8-1.7,2.1-2.9c0.2-1,0-1.8-0.5-2.3c-0.6-0.6-1.6-0.9-3.1-1
		c-0.5,0-0.9-0.1-1.3-0.2c-0.4-0.1-0.6-0.4-0.5-0.8c0.1-0.2,0.2-0.4,0.6-0.6c0.3-0.2,0.8-0.3,1.3-0.3c0.7,0,1.3,0.1,1.9,0.2
		c0.6,0.1,1.1,0.3,1.6,0.5l0.6-2.7c-0.4-0.1-1-0.3-1.6-0.4C539.4,400.4,538.8,400.4,538.2,400.4 M511.4,401l-1.7,7.2
		c-0.3,0.2-0.6,0.4-1.1,0.6c-0.5,0.2-1,0.4-1.6,0.4c-0.6,0-1.1-0.2-1.3-0.5c-0.2-0.3-0.3-0.7-0.2-1.1l1.6-6.7h-3.4l-1.8,7.4
		c-0.3,1.1-0.1,2,0.4,2.6c0.5,0.7,1.4,1,2.5,1c0.5,0,1-0.1,1.4-0.2c0.4-0.1,0.9-0.3,1.3-0.5l1.6-0.7l-0.3,1.2h3.4l2.6-10.9H511.4z
		 M499.4,396.3l-1.1,4.8c-0.3-0.2-0.7-0.3-1-0.4c-0.4-0.1-0.8-0.1-1.3-0.1c-1.8,0-3.4,0.5-4.7,1.6c-1.3,1-2.2,2.4-2.6,4.2
		c-0.4,1.6-0.3,3,0.4,4.1c0.6,1.1,1.8,1.6,3.6,1.6c0.2,0,0.5,0,0.7-0.1c0.3,0,0.5-0.1,0.7-0.2l2-0.9l0.5,1h2.6l3.7-15.6H499.4z
		 M496.5,408.6c-0.3,0.2-0.7,0.4-1.1,0.6c-0.5,0.2-0.9,0.2-1.5,0.2c-0.8,0-1.4-0.3-1.8-0.8c-0.4-0.6-0.4-1.4-0.1-2.5
		c0.3-1.1,0.7-1.9,1.2-2.4c0.6-0.5,1.3-0.8,2.3-0.8c0.5,0,0.9,0.1,1.3,0.2c0.4,0.2,0.7,0.3,0.8,0.5L496.5,408.6z M466.8,400.9
		c0.3-1.5,0.1-2.7-0.8-3.4c-0.9-0.8-2.2-1.1-4-1.1h-5.9l-3.8,15.6h3.8l1.5-6.5h2.2c1.9,0,3.4-0.4,4.6-1.1
		C465.7,403.5,466.4,402.4,466.8,400.9 M463,401.3c-0.2,0.7-0.5,1.3-1,1.7c-0.5,0.4-1.2,0.6-2,0.6h-1.7l1.1-4.6h1.6
		c0.8,0,1.4,0.2,1.8,0.6C463.1,400,463.2,400.5,463,401.3 M476.1,400.8c-0.1-0.1-0.3-0.1-0.5-0.2c-0.2,0-0.5-0.1-0.9-0.1
		c-0.4,0-0.8,0.1-1.2,0.2c-0.4,0.1-0.9,0.3-1.2,0.5l-1.2,0.6l0.3-1.1l-3.4,0.2l-2.6,10.9h3.4l1.8-7.3c0.3-0.2,0.7-0.5,1.2-0.6
		c0.4-0.2,1-0.2,1.6-0.2c0.5,0,1,0.1,1.3,0.2c0.3,0.1,0.6,0.2,0.8,0.4L476.1,400.8z M482.9,400.4c-1.9,0-3.6,0.6-5,1.7
		c-1.4,1.2-2.3,2.5-2.7,4.1c-0.4,1.8-0.2,3.2,0.5,4.3c0.8,1.1,2.2,1.6,4.3,1.6c1.9,0,3.6-0.5,5-1.6c1.4-1.1,2.3-2.5,2.7-4.3
		c0.4-1.8,0.2-3.2-0.7-4.3C486.2,400.9,484.8,400.4,482.9,400.4 M484.4,406.3c-0.3,1.2-0.7,2.1-1.3,2.6c-0.6,0.5-1.4,0.8-2.3,0.8
		c-0.9,0-1.5-0.3-1.9-1c-0.4-0.7-0.4-1.5-0.2-2.4c0.2-1,0.7-1.8,1.3-2.4c0.6-0.6,1.4-0.9,2.4-0.9c0.9,0,1.5,0.3,1.8,1
		C484.5,404.6,484.6,405.4,484.4,406.3 M218.3,349.3c-4.2-4.2-10.6-6.3-19.2-6.3h-14.6v8.8l11.7,0h3.1c4.8,0,8.2,0.9,10.4,3.5
		c2.2,2.6,3.3,6.6,3.3,12c0,5.4-1,9.4-3,12c-2,2.6-5.4,3.2-9.9,3.2h-3.8l-11.7,0v9.2h15.3c8.7,0,15-2.1,18.9-6.2
		c3.9-4.1,5.9-10.2,5.9-18.2C224.5,359.6,222.4,353.5,218.3,349.3 M531.3,358.7c0,1-0.1,1.8-0.4,2.6h11.5c0.2-1,0.4-2,0.4-3.1h-11.6
		C531.3,358.4,531.3,358.5,531.3,358.7 M531.1,356.4h11.8c0-1.1-0.2-2.1-0.4-3.1h-13.3C530.1,354.1,530.7,355.2,531.1,356.4
		 M460.6,343.1h-5.7l-0.8,3.4h8.1L460.6,343.1z M493.2,343.1H487l-1.5,3.4h8.5L493.2,343.1z M524.7,343.1h-18.5v3.4h31.6
		C534.6,344.2,530.3,343.1,524.7,343.1 M518,378.1h-11.7v3.1H518V378.1z M518,382.9h-11.7v3.3H518V382.9z M538.2,368h-31.9v3.5h18.5
		C530.6,371.4,535.1,370.3,538.2,368 M518,373.2h-11.7v3.1H518V373.2z M518,388h-11.7v3.9H518V388z M283.5,370.5H303v-6.9h-19.5v-12
		h18.7v-8.5h-30.4v48.8h31.6v-8.4h-19.9V370.5z M241.8,342.7l-21.5,49.1h11.6l12.2-29.3l13.2,29.3h13.4l-22.4-49.1H241.8z
		 M337.4,398.3c-1-1.3-2.9-2-5.7-2h-4.7l-3.7,15.6h4.9c2.8,0,5-0.7,6.5-2c1.6-1.3,2.7-3.3,3.3-5.8
		C338.7,401.6,338.5,399.7,337.4,398.3 M334.3,404.1c-0.4,1.7-1,3-1.9,3.9c-0.8,0.8-2,1.3-3.5,1.3h-1.2l2.5-10.2h1
		c1.5,0,2.5,0.4,3,1.3C334.7,401.1,334.8,402.4,334.3,404.1 M331,382.3v-39.2h-11.7v36.8c0,1.4-0.3,2.3-0.9,2.9
		c-0.6,0.5-1.8,1.2-3.6,0.5c-2.1-0.8-3.6-2.6-3.6-2.6l-7.3,6.5c1.2,1.3,2.5,2.4,5.1,3.7c2.7,1.3,6.1,1.9,10.6,1.9
		c3.1,0,6.8-0.9,8.6-2.6C330.1,388.5,331,385.8,331,382.3 M364.8,363.7l22.5,28.1h6.8v-48.8h-11.2V371l-22.6-27.9h-6.6v48.8h11.1
		V363.7z M420,343.1h-14.6v3.4h30C431.5,344.2,426.3,343.1,420,343.1 M348.3,343.1h-11.7v48.8h11.7V343.1z M344.1,399.7l0.7-2.9
		h-3.4l-0.7,2.9H344.1z M193.3,362.2h-8.9v8.8h8.9V362.2z"/>
	<rect x="184.4" y="362.2" class="st0" width="8.8" height="8.8"/>
	<rect x="405.4" y="362.2" class="st0" width="9" height="8.8"/>
</g>
</svg>
