  0
SECTION
  2
HEADER
  9
$ACADVER
  1
AC1024
  9
$ACADMAINTVER
 70
     6
  9
$DWGCODEPAGE
  3
ANSI_949
  9
$INSBASE
 10
0.0
 20
0.0
 30
0.0
  9
$EXTMIN
 10
1.000000000000000E+20
 20
1.000000000000000E+20
 30
1.000000000000000E+20
  9
$EXTMAX
 10
-1.000000000000000E+20
 20
-1.000000000000000E+20
 30
-1.000000000000000E+20
  9
$LIMMIN
 10
0.0
 20
0.0
  9
$LIMMAX
 10
12.0
 20
9.0
  9
$ORTHOMODE
 70
     0
  9
$REGENMODE
 70
     1
  9
$FILLMODE
 70
     1
  9
$QTEXTMODE
 70
     0
  9
$MIRRTEXT
 70
     1
  9
$LTSCALE
 40
1.0
  9
$ATTMODE
 70
     1
  9
$TEXTSIZE
 40
0.2
  9
$TRACEWID
 40
0.05
  9
$TEXTSTYLE
  7
Standard
  9
$CLAYER
  8
0
  9
$CELTYPE
  6
ByLayer
  9
$CECOLOR
 62
   256
  9
$CELTSCALE
 40
1.0
  9
$DISPSILH
 70
     0
  9
$DIMSCALE
 40
1.0
  9
$DIMASZ
 40
0.18
  9
$DIMEXO
 40
0.0625
  9
$DIMDLI
 40
0.38
  9
$DIMRND
 40
0.0
  9
$DIMDLE
 40
0.0
  9
$DIMEXE
 40
0.18
  9
$DIMTP
 40
0.0
  9
$DIMTM
 40
0.0
  9
$DIMTXT
 40
0.18
  9
$DIMCEN
 40
0.09
  9
$DIMTSZ
 40
0.0
  9
$DIMTOL
 70
     0
  9
$DIMLIM
 70
     0
  9
$DIMTIH
 70
     1
  9
$DIMTOH
 70
     1
  9
$DIMSE1
 70
     0
  9
$DIMSE2
 70
     0
  9
$DIMTAD
 70
     0
  9
$DIMZIN
 70
     0
  9
$DIMBLK
  1

  9
$DIMASO
 70
     1
  9
$DIMSHO
 70
     1
  9
$DIMPOST
  1

  9
$DIMAPOST
  1

  9
$DIMALT
 70
     0
  9
$DIMALTD
 70
     2
  9
$DIMALTF
 40
25.4
  9
$DIMLFAC
 40
1.0
  9
$DIMTOFL
 70
     0
  9
$DIMTVP
 40
0.0
  9
$DIMTIX
 70
     0
  9
$DIMSOXD
 70
     0
  9
$DIMSAH
 70
     0
  9
$DIMBLK1
  1

  9
$DIMBLK2
  1

  9
$DIMSTYLE
  2
Standard
  9
$DIMCLRD
 70
     0
  9
$DIMCLRE
 70
     0
  9
$DIMCLRT
 70
     0
  9
$DIMTFAC
 40
1.0
  9
$DIMGAP
 40
0.09
  9
$DIMJUST
 70
     0
  9
$DIMSD1
 70
     0
  9
$DIMSD2
 70
     0
  9
$DIMTOLJ
 70
     1
  9
$DIMTZIN
 70
     0
  9
$DIMALTZ
 70
     0
  9
$DIMALTTZ
 70
     0
  9
$DIMUPT
 70
     0
  9
$DIMDEC
 70
     4
  9
$DIMTDEC
 70
     4
  9
$DIMALTU
 70
     2
  9
$DIMALTTD
 70
     2
  9
$DIMTXSTY
  7
Standard
  9
$DIMAUNIT
 70
     0
  9
$DIMADEC
 70
     0
  9
$DIMALTRND
 40
0.0
  9
$DIMAZIN
 70
     0
  9
$DIMDSEP
 70
    46
  9
$DIMATFIT
 70
     3
  9
$DIMFRAC
 70
     0
  9
$DIMLDRBLK
  1

  9
$DIMLUNIT
 70
     2
  9
$DIMLWD
 70
    -2
  9
$DIMLWE
 70
    -2
  9
$DIMTMOVE
 70
     0
  9
$DIMFXL
 40
1.0
  9
$DIMFXLON
 70
     0
  9
$DIMJOGANG
 40
0.7853981633974483
  9
$DIMTFILL
 70
     0
  9
$DIMTFILLCLR
 70
     0
  9
$DIMARCSYM
 70
     0
  9
$DIMLTYPE
  6

  9
$DIMLTEX1
  6

  9
$DIMLTEX2
  6

  9
$DIMTXTDIRECTION
 70
     0
  9
$LUNITS
 70
     2
  9
$LUPREC
 70
     4
  9
$SKETCHINC
 40
0.1
  9
$FILLETRAD
 40
0.5
  9
$AUNITS
 70
     0
  9
$AUPREC
 70
     0
  9
$MENU
  1
.
  9
$ELEVATION
 40
0.0
  9
$PELEVATION
 40
0.0
  9
$THICKNESS
 40
0.0
  9
$LIMCHECK
 70
     0
  9
$CHAMFERA
 40
0.5
  9
$CHAMFERB
 40
0.5
  9
$CHAMFERC
 40
1.0
  9
$CHAMFERD
 40
0.0
  9
$SKPOLY
 70
     0
  9
$TDCREATE
 40
2457807.697590081
  9
$TDUCREATE
 40
2457807.322590081
  9
$TDUPDATE
 40
2457807.69759022
  9
$TDUUPDATE
 40
2457807.32259022
  9
$TDINDWG
 40
0.0000000116
  9
$TDUSRTIMER
 40
0.0000000116
  9
$USRTIMER
 70
     1
  9
$ANGBASE
 50
0.0
  9
$ANGDIR
 70
     0
  9
$PDMODE
 70
     0
  9
$PDSIZE
 40
0.0
  9
$PLINEWID
 40
0.0
  9
$SPLFRAME
 70
     0
  9
$SPLINETYPE
 70
     6
  9
$SPLINESEGS
 70
     8
  9
$HANDSEED
  5
72
  9
$SURFTAB1
 70
     6
  9
$SURFTAB2
 70
     6
  9
$SURFTYPE
 70
     6
  9
$SURFU
 70
     6
  9
$SURFV
 70
     6
  9
$UCSBASE
  2

  9
$UCSNAME
  2

  9
$UCSORG
 10
0.0
 20
0.0
 30
0.0
  9
$UCSXDIR
 10
1.0
 20
0.0
 30
0.0
  9
$UCSYDIR
 10
0.0
 20
1.0
 30
0.0
  9
$UCSORTHOREF
  2

  9
$UCSORTHOVIEW
 70
     0
  9
$UCSORGTOP
 10
0.0
 20
0.0
 30
0.0
  9
$UCSORGBOTTOM
 10
0.0
 20
0.0
 30
0.0
  9
$UCSORGLEFT
 10
0.0
 20
0.0
 30
0.0
  9
$UCSORGRIGHT
 10
0.0
 20
0.0
 30
0.0
  9
$UCSORGFRONT
 10
0.0
 20
0.0
 30
0.0
  9
$UCSORGBACK
 10
0.0
 20
0.0
 30
0.0
  9
$PUCSBASE
  2

  9
$PUCSNAME
  2

  9
$PUCSORG
 10
0.0
 20
0.0
 30
0.0
  9
$PUCSXDIR
 10
1.0
 20
0.0
 30
0.0
  9
$PUCSYDIR
 10
0.0
 20
1.0
 30
0.0
  9
$PUCSORTHOREF
  2

  9
$PUCSORTHOVIEW
 70
     0
  9
$PUCSORGTOP
 10
0.0
 20
0.0
 30
0.0
  9
$PUCSORGBOTTOM
 10
0.0
 20
0.0
 30
0.0
  9
$PUCSORGLEFT
 10
0.0
 20
0.0
 30
0.0
  9
$PUCSORGRIGHT
 10
0.0
 20
0.0
 30
0.0
  9
$PUCSORGFRONT
 10
0.0
 20
0.0
 30
0.0
  9
$PUCSORGBACK
 10
0.0
 20
0.0
 30
0.0
  9
$USERI1
 70
     0
  9
$USERI2
 70
     0
  9
$USERI3
 70
     0
  9
$USERI4
 70
     0
  9
$USERI5
 70
     0
  9
$USERR1
 40
0.0
  9
$USERR2
 40
0.0
  9
$USERR3
 40
0.0
  9
$USERR4
 40
0.0
  9
$USERR5
 40
0.0
  9
$WORLDVIEW
 70
     1
  9
$SHADEDGE
 70
     3
  9
$SHADEDIF
 70
    70
  9
$TILEMODE
 70
     1
  9
$MAXACTVP
 70
    64
  9
$PINSBASE
 10
0.0
 20
0.0
 30
0.0
  9
$PLIMCHECK
 70
     0
  9
$PEXTMIN
 10
1.000000000000000E+20
 20
1.000000000000000E+20
 30
1.000000000000000E+20
  9
$PEXTMAX
 10
-1.000000000000000E+20
 20
-1.000000000000000E+20
 30
-1.000000000000000E+20
  9
$PLIMMIN
 10
0.0
 20
0.0
  9
$PLIMMAX
 10
12.0
 20
9.0
  9
$UNITMODE
 70
     0
  9
$VISRETAIN
 70
     1
  9
$PLINEGEN
 70
     0
  9
$PSLTSCALE
 70
     1
  9
$TREEDEPTH
 70
  3020
  9
$CMLSTYLE
  2
Standard
  9
$CMLJUST
 70
     0
  9
$CMLSCALE
 40
1.0
  9
$PROXYGRAPHICS
 70
     1
  9
$MEASUREMENT
 70
     0
  9
$CELWEIGHT
370
    -1
  9
$ENDCAPS
280
     0
  9
$JOINSTYLE
280
     0
  9
$LWDISPLAY
290
     1
  9
$INSUNITS
 70
     1
  9
$HYPERLINKBASE
  1

  9
$STYLESHEET
  1

  9
$XEDIT
290
     1
  9
$CEPSNTYPE
380
     0
  9
$PSTYLEMODE
290
     1
  9
$FINGERPRINTGUID
  2
{B14A687D-CF10-474D-A2E6-8C30A67B93F5}
  9
$VERSIONGUID
  2
{FAEB1C32-E019-11D5-929B-00C0DF256EC4}
  9
$EXTNAMES
290
     1
  9
$PSVPSCALE
 40
0.0
  9
$OLESTARTUP
290
     0
  9
$SORTENTS
280
   127
  9
$INDEXCTL
280
     0
  9
$HIDETEXT
280
     1
  9
$XCLIPFRAME
280
     2
  9
$HALOGAP
280
     0
  9
$OBSCOLOR
 70
   257
  9
$OBSLTYPE
280
     0
  9
$INTERSECTIONDISPLAY
280
     0
  9
$INTERSECTIONCOLOR
 70
   257
  9
$DIMASSOC
280
     2
  9
$PROJECTNAME
  1

  9
$CAMERADISPLAY
290
     0
  9
$LENSLENGTH
 40
50.0
  9
$CAMERAHEIGHT
 40
0.0
  9
$STEPSPERSEC
 40
2.0
  9
$STEPSIZE
 40
6.0
  9
$3DDWFPREC
 40
2.0
  9
$PSOLWIDTH
 40
0.25
  9
$PSOLHEIGHT
 40
4.0
  9
$LOFTANG1
 40
1.570796326794897
  9
$LOFTANG2
 40
1.570796326794897
  9
$LOFTMAG1
 40
0.0
  9
$LOFTMAG2
 40
0.0
  9
$LOFTPARAM
 70
     7
  9
$LOFTNORMALS
280
     1
  9
$LATITUDE
 40
37.795
  9
$LONGITUDE
 40
-122.394
  9
$NORTHDIRECTION
 40
0.0
  9
$TIMEZONE
 70
 -8000
  9
$LIGHTGLYPHDISPLAY
280
     1
  9
$TILEMODELIGHTSYNCH
280
     1
  9
$CMATERIAL
347
3C
  9
$SOLIDHIST
280
     1
  9
$SHOWHIST
280
     1
  9
$DWFFRAME
280
     2
  9
$DGNFRAME
280
     2
  9
$REALWORLDSCALE
290
     1
  9
$INTERFERECOLOR
 62
   256
  9
$CSHADOW
280
     0
  9
$SHADOWPLANELOCATION
 40
0.0
  0
ENDSEC
  0
SECTION
  2
CLASSES
  0
CLASS
  1
ACDBDICTIONARYWDFLT
  2
AcDbDictionaryWithDefault
  3
ObjectDBX Classes
 90
        0
 91
        4
280
     0
281
     0
  0
CLASS
  1
VISUALSTYLE
  2
AcDbVisualStyle
  3
ObjectDBX Classes
 90
     4095
 91
        4
280
     0
281
     0
  0
CLASS
  1
MATERIAL
  2
AcDbMaterial
  3
ObjectDBX Classes
 90
     1153
 91
        4
280
     0
281
     0
  0
CLASS
  1
SUN
  2
AcDbSun
  3
SCENEOE
 90
     1024
 91
        4
280
     0
281
     0
  0
ENDSEC
  0
SECTION
  2
TABLES
  0
TABLE
  2
VPORT
  5
8
330
0
100
AcDbSymbolTable
 70
     1
  0
VPORT
  5
29
330
8
100
AcDbSymbolTableRecord
100
AcDbViewportTableRecord
  2
*Active
 70
     0
 10
0.0
 20
0.0
 11
1.0
 21
1.0
 12
0.0
 22
0.0
 13
0.0
 23
0.0
 14
0.5
 24
0.5
 15
0.5
 25
0.5
 16
0.0
 26
0.0
 36
1.0
 17
105.0007777515277
 27
-148.5000416295416
 37
0.0
 40
297.0000832590831
 41
0.7070757462376333
 42
50.0
 43
0.0
 44
0.0
 50
0.0
 51
0.0
 71
     0
 72
   100
 73
     1
 74
     3
 75
     0
 76
     0
 77
     0
 78
     0
281
     0
 65
     1
110
0.0
120
0.0
130
0.0
111
1.0
121
0.0
131
0.0
112
0.0
122
1.0
132
0.0
 79
     0
146
0.0
 60
     3
 61
     5
292
     1
282
     1
141
0.0
142
0.0
 63
   250
361
3F
  0
ENDTAB
  0
TABLE
  2
LTYPE
  5
5
330
0
100
AcDbSymbolTable
 70
     1
  0
LTYPE
  5
14
330
5
100
AcDbSymbolTableRecord
100
AcDbLinetypeTableRecord
  2
ByBlock
 70
     0
  3

 72
    65
 73
     0
 40
0.0
  0
LTYPE
  5
15
330
5
100
AcDbSymbolTableRecord
100
AcDbLinetypeTableRecord
  2
ByLayer
 70
     0
  3

 72
    65
 73
     0
 40
0.0
  0
LTYPE
  5
16
330
5
100
AcDbSymbolTableRecord
100
AcDbLinetypeTableRecord
  2
Continuous
 70
     0
  3
Solid line
 72
    65
 73
     0
 40
0.0
  0
ENDTAB
  0
TABLE
  2
LAYER
  5
2
330
0
100
AcDbSymbolTable
 70
     2
  0
LAYER
  5
10
330
2
100
AcDbSymbolTableRecord
100
AcDbLayerTableRecord
  2
0
 70
     0
 62
     7
  6
Continuous
370
    -3
390
F
347
3E
  0
LAYER
  5
40
330
2
100
AcDbSymbolTableRecord
100
AcDbLayerTableRecord
  2
Layer 1
 70
     0
 62
     7
  6
Continuous
370
    -3
390
F
347
3E
  0
ENDTAB
  0
TABLE
  2
STYLE
  5
3
330
0
100
AcDbSymbolTable
 70
     1
  0
STYLE
  5
11
330
3
100
AcDbSymbolTableRecord
100
AcDbTextStyleTableRecord
  2
Standard
 70
     0
 40
0.0
 41
1.0
 50
0.0
 71
     0
 42
0.2
  3
txt
  4

  0
ENDTAB
  0
TABLE
  2
VIEW
  5
6
330
0
100
AcDbSymbolTable
 70
     0
  0
ENDTAB
  0
TABLE
  2
UCS
  5
7
330
0
100
AcDbSymbolTable
 70
     0
  0
ENDTAB
  0
TABLE
  2
APPID
  5
9
330
0
100
AcDbSymbolTable
 70
     1
  0
APPID
  5
12
330
9
100
AcDbSymbolTableRecord
100
AcDbRegAppTableRecord
  2
ACAD
 70
     0
  0
ENDTAB
  0
TABLE
  2
DIMSTYLE
  5
A
330
0
100
AcDbSymbolTable
 70
     1
100
AcDbDimStyleTable
  0
DIMSTYLE
105
27
330
A
100
AcDbSymbolTableRecord
100
AcDbDimStyleTableRecord
  2
Standard
 70
     0
178
     0
340
11
  0
ENDTAB
  0
TABLE
  2
BLOCK_RECORD
  5
1
330
0
100
AcDbSymbolTable
 70
     3
  0
BLOCK_RECORD
  5
1F
330
1
100
AcDbSymbolTableRecord
100
AcDbBlockTableRecord
  2
*Model_Space
340
22
 70
     0
280
     1
281
     0
  0
BLOCK_RECORD
  5
1B
330
1
100
AcDbSymbolTableRecord
100
AcDbBlockTableRecord
  2
*Paper_Space
340
1E
 70
     0
280
     1
281
     0
  0
BLOCK_RECORD
  5
23
330
1
100
AcDbSymbolTableRecord
100
AcDbBlockTableRecord
  2
*Paper_Space0
340
26
 70
     0
280
     1
281
     0
  0
BLOCK_RECORD
  5
41
330
1
100
AcDbSymbolTableRecord
100
AcDbBlockTableRecord
  2
block 2
340
0
102
{BLKREFS
331
42
102
}
 70
     0
280
     1
281
     0
  0
BLOCK_RECORD
  5
45
330
1
100
AcDbSymbolTableRecord
100
AcDbBlockTableRecord
  2
block 3
340
0
102
{BLKREFS
331
46
102
}
 70
     0
280
     1
281
     0
  0
ENDTAB
  0
ENDSEC
  0
SECTION
  2
BLOCKS
  0
BLOCK
  5
20
330
1F
100
AcDbEntity
  8
0
100
AcDbBlockBegin
  2
*Model_Space
 70
     0
 10
0.0
 20
0.0
 30
0.0
  3
*Model_Space
  1

  0
ENDBLK
  5
21
330
1F
100
AcDbEntity
  8
0
100
AcDbBlockEnd
  0
BLOCK
  5
1C
330
1B
100
AcDbEntity
 67
     1
  8
0
100
AcDbBlockBegin
  2
*Paper_Space
 70
     0
 10
0.0
 20
0.0
 30
0.0
  3
*Paper_Space
  1

  0
ENDBLK
  5
1D
330
1B
100
AcDbEntity
 67
     1
  8
0
100
AcDbBlockEnd
  0
BLOCK
  5
24
330
23
100
AcDbEntity
  8
0
100
AcDbBlockBegin
  2
*Paper_Space0
 70
     0
 10
0.0
 20
0.0
 30
0.0
  3
*Paper_Space0
  1

  0
ENDBLK
  5
25
330
23
100
AcDbEntity
  8
0
100
AcDbBlockEnd
  0
BLOCK
  5
43
330
41
100
AcDbEntity
  8
0
100
AcDbBlockBegin
  2
block 2
 70
     0
 10
0.0
 20
0.0
 30
0.0
  3
block 2
  1

  0
INSERT
  5
46
330
41
100
AcDbEntity
  8
Layer 1
100
AcDbBlockReference
  2
block 3
 10
0.0
 20
0.0
 30
0.0
  0
SPLINE
  5
63
330
41
100
AcDbEntity
  8
Layer 1
370
     0
100
AcDbSpline
210
0.0
220
0.0
230
1.0
 70
    11
 71
     3
 72
    71
 73
    67
 74
     0
 42
0.0000000001
 43
0.0000000001
 12
1.0
 22
0.0
 32
0.0
 13
1.0
 23
0.0
 33
0.0
 40
0.0
 40
0.0
 40
0.0
 40
0.0
 40
1.0
 40
1.0
 40
1.0
 40
2.0
 40
2.0
 40
2.0
 40
3.0
 40
3.0
 40
3.0
 40
4.0
 40
4.0
 40
4.0
 40
5.0
 40
5.0
 40
5.0
 40
6.0
 40
6.0
 40
6.0
 40
7.0
 40
7.0
 40
7.0
 40
8.0
 40
8.0
 40
8.0
 40
9.0
 40
9.0
 40
9.0
 40
10.0
 40
10.0
 40
10.0
 40
11.0
 40
11.0
 40
11.0
 40
12.0
 40
12.0
 40
12.0
 40
13.0
 40
13.0
 40
13.0
 40
14.0
 40
14.0
 40
14.0
 40
15.0
 40
15.0
 40
15.0
 40
16.0
 40
16.0
 40
16.0
 40
17.0
 40
17.0
 40
17.0
 40
18.0
 40
18.0
 40
18.0
 40
19.0
 40
19.0
 40
19.0
 40
20.0
 40
20.0
 40
20.0
 40
21.0
 40
21.0
 40
21.0
 40
22.0
 40
22.0
 40
22.0
 40
22.0
 10
104.3371452350401
 20
-155.396731048189
 30
0.0
 10
105.1296373332457
 20
-154.8578882107125
 30
0.0
 10
105.8679251278767
 20
-154.1699732303004
 30
0.0
 10
106.5332650736593
 20
-153.351949674626
 30
0.0
 10
107.1543450254919
 20
-152.5836476683319
 30
0.0
 10
107.729542395241
 20
-151.5700681026259
 30
0.0
 10
108.2372572173495
 20
-150.3342447743393
 30
0.0
 10
108.7505686044095
 20
-149.089402188258
 30
0.0
 10
109.0096294332905
 20
-147.5347134074756
 30
0.0
 10
109.0096294332905
 20
-145.7135171220122
 30
0.0
 10
109.0096294332905
 20
-143.5074991706425
 30
0.0
 10
108.59973886633
 20
-141.6519372003508
 30
0.0
 10
107.7896245264174
 20
-140.1965990131233
 30
0.0
 10
106.9829328791189
 20
-138.7489850107753
 30
0.0
 10
105.9743061172501
 20
-137.5809217474582
 30
0.0
 10
104.7915770585996
 20
-136.7204383012421
 30
0.0
 10
103.6122281896816
 20
-135.8626837586668
 30
0.0
 10
102.3536023593809
 20
-135.2570059083008
 30
0.0
 10
101.0507164134378
 20
-134.9173267839721
 30
0.0
 10
99.75637994835391
 20
-134.5803765632843
 30
0.0
 10
98.58406503810428
 20
-134.4105370011195
 30
0.0
 10
97.5659491798927
 20
-134.4105370011195
 30
0.0
 10
97.5659491798927
 20
-134.4105370011195
 30
0.0
 10
92.3076295132246
 20
-134.4105370011195
 30
0.0
 10
92.3076295132246
 20
-134.4105370011195
 30
0.0
 10
92.3076295132246
 20
-134.4105370011195
 30
0.0
 10
92.3076295132246
 20
-138.875902156358
 30
0.0
 10
92.3076295132246
 20
-138.875902156358
 30
0.0
 10
92.3076295132246
 20
-138.875902156358
 30
0.0
 10
98.08675348862339
 20
-138.875902156358
 30
0.0
 10
98.08675348862339
 20
-138.875902156358
 30
0.0
 10
98.85436168646505
 20
-138.926502505216
 30
0.0
 10
99.5623965317627
 20
-139.0845939059453
 30
0.0
 10
100.1816726320823
 20
-139.401192980841
 30
0.0
 10
100.9188003646083
 20
-139.7819906701925
 30
0.0
 10
101.5649492272168
 20
-140.3118142498743
 30
0.0
 10
102.0891299759598
 20
-140.9744290558563
 30
0.0
 10
102.6198785943154
 20
-141.6460631196336
 30
0.0
 10
103.0279653097625
 20
-142.4365201232801
 30
0.0
 10
103.302798276235
 20
-143.3281778246429
 30
0.0
 10
103.5778625057216
 20
-144.2283460051557
 30
0.0
 10
103.7181466503381
 20
-145.1913714746066
 30
0.0
 10
103.7181466503381
 20
-146.1895951757589
 30
0.0
 10
103.7181466503381
 20
-147.2402230773287
 30
0.0
 10
103.5645454449285
 20
-148.2144879295698
 30
0.0
 10
103.2608009127954
 20
-149.0821867820216
 30
0.0
 10
102.9577112794613
 20
-149.947619256874
 30
0.0
 10
102.5424054844468
 20
-150.7050981538146
 30
0.0
 10
102.0249776157281
 20
-151.3333935275731
 30
0.0
 10
101.5145801426512
 20
-151.9540109690548
 30
0.0
 10
100.8822145557092
 20
-152.4490525904724
 30
0.0
 10
100.1425891826261
 20
-152.8004336236323
 30
0.0
 10
99.86141960955545
 20
-152.9350749540959
 30
0.0
 10
99.55471859968033
 20
-153.044369857525
 30
0.0
 10
99.25185655584639
 20
-153.1211491802904
 30
0.0
 10
98.60325630528399
 20
-153.2882598388135
 30
0.0
 10
97.39069806747851
 20
-153.4002836458843
 30
0.0
 10
97.39069806747851
 20
-153.4002836458843
 30
0.0
 10
97.39069806747851
 20
-153.4002836458843
 30
0.0
 10
103.8089405098443
 20
-162.8152324684246
 30
0.0
 10
103.8089405098443
 20
-162.8152324684246
 30
0.0
 10
103.8089405098443
 20
-162.8152324684246
 30
0.0
 10
109.6435676087315
 20
-162.8152324684246
 30
0.0
 10
109.6435676087315
 20
-162.8152324684246
 30
0.0
 10
109.6435676087315
 20
-162.8152324684246
 30
0.0
 10
104.3371452350401
 20
-155.396731048189
 30
0.0
 10
104.3371452350401
 20
-155.396731048189
 30
0.0
  0
HATCH
  5
64
330
41
100
AcDbEntity
  8
Layer 1
 62
   154
420
    23210
100
AcDbHatch
 10
0.0
 20
0.0
 30
0.0
210
0.0
220
0.0
230
1.0
  2
SOLID
 70
     1
 71
     0
 91
        1
 92
        1
 93
        1
 72
     4
 94
        3
 73
     0
 74
     1
 95
       71
 96
       67
 40
0.0
 40
0.0
 40
0.0
 40
0.0
 40
1.0
 40
1.0
 40
1.0
 40
2.0
 40
2.0
 40
2.0
 40
3.0
 40
3.0
 40
3.0
 40
4.0
 40
4.0
 40
4.0
 40
5.0
 40
5.0
 40
5.0
 40
6.0
 40
6.0
 40
6.0
 40
7.0
 40
7.0
 40
7.0
 40
8.0
 40
8.0
 40
8.0
 40
9.0
 40
9.0
 40
9.0
 40
10.0
 40
10.0
 40
10.0
 40
11.0
 40
11.0
 40
11.0
 40
12.0
 40
12.0
 40
12.0
 40
13.0
 40
13.0
 40
13.0
 40
14.0
 40
14.0
 40
14.0
 40
15.0
 40
15.0
 40
15.0
 40
16.0
 40
16.0
 40
16.0
 40
17.0
 40
17.0
 40
17.0
 40
18.0
 40
18.0
 40
18.0
 40
19.0
 40
19.0
 40
19.0
 40
20.0
 40
20.0
 40
20.0
 40
21.0
 40
21.0
 40
21.0
 40
22.0
 40
22.0
 40
22.0
 40
22.0
 10
104.3371452350401
 20
-155.396731048189
 10
105.1296373332457
 20
-154.8578882107125
 10
105.8679251278767
 20
-154.1699732303004
 10
106.5332650736593
 20
-153.351949674626
 10
107.1543450254919
 20
-152.5836476683319
 10
107.729542395241
 20
-151.5700681026259
 10
108.2372572173495
 20
-150.3342447743393
 10
108.7505686044095
 20
-149.089402188258
 10
109.0096294332905
 20
-147.5347134074756
 10
109.0096294332905
 20
-145.7135171220122
 10
109.0096294332905
 20
-143.5074991706425
 10
108.59973886633
 20
-141.6519372003508
 10
107.7896245264174
 20
-140.1965990131233
 10
106.9829328791189
 20
-138.7489850107753
 10
105.9743061172501
 20
-137.5809217474582
 10
104.7915770585996
 20
-136.7204383012421
 10
103.6122281896816
 20
-135.8626837586668
 10
102.3536023593809
 20
-135.2570059083008
 10
101.0507164134378
 20
-134.9173267839721
 10
99.75637994835391
 20
-134.5803765632843
 10
98.58406503810428
 20
-134.4105370011195
 10
97.5659491798927
 20
-134.4105370011195
 10
97.5659491798927
 20
-134.4105370011195
 10
92.3076295132246
 20
-134.4105370011195
 10
92.3076295132246
 20
-134.4105370011195
 10
92.3076295132246
 20
-134.4105370011195
 10
92.3076295132246
 20
-138.875902156358
 10
92.3076295132246
 20
-138.875902156358
 10
92.3076295132246
 20
-138.875902156358
 10
98.08675348862339
 20
-138.875902156358
 10
98.08675348862339
 20
-138.875902156358
 10
98.85436168646505
 20
-138.926502505216
 10
99.5623965317627
 20
-139.0845939059453
 10
100.1816726320823
 20
-139.401192980841
 10
100.9188003646083
 20
-139.7819906701925
 10
101.5649492272168
 20
-140.3118142498743
 10
102.0891299759598
 20
-140.9744290558563
 10
102.6198785943154
 20
-141.6460631196336
 10
103.0279653097625
 20
-142.4365201232801
 10
103.302798276235
 20
-143.3281778246429
 10
103.5778625057216
 20
-144.2283460051557
 10
103.7181466503381
 20
-145.1913714746066
 10
103.7181466503381
 20
-146.1895951757589
 10
103.7181466503381
 20
-147.2402230773287
 10
103.5645454449285
 20
-148.2144879295698
 10
103.2608009127954
 20
-149.0821867820216
 10
102.9577112794613
 20
-149.947619256874
 10
102.5424054844468
 20
-150.7050981538146
 10
102.0249776157281
 20
-151.3333935275731
 10
101.5145801426512
 20
-151.9540109690548
 10
100.8822145557092
 20
-152.4490525904724
 10
100.1425891826261
 20
-152.8004336236323
 10
99.86141960955545
 20
-152.9350749540959
 10
99.55471859968033
 20
-153.044369857525
 10
99.25185655584639
 20
-153.1211491802904
 10
98.60325630528399
 20
-153.2882598388135
 10
97.39069806747851
 20
-153.4002836458843
 10
97.39069806747851
 20
-153.4002836458843
 10
97.39069806747851
 20
-153.4002836458843
 10
103.8089405098443
 20
-162.8152324684246
 10
103.8089405098443
 20
-162.8152324684246
 10
103.8089405098443
 20
-162.8152324684246
 10
109.6435676087315
 20
-162.8152324684246
 10
109.6435676087315
 20
-162.8152324684246
 10
109.6435676087315
 20
-162.8152324684246
 10
104.3371452350401
 20
-155.396731048189
 10
104.3371452350401
 20
-155.396731048189
 97
        0
 97
        0
 75
     2
 76
     1
 98
        0
  0
SPLINE
  5
65
330
41
100
AcDbEntity
  8
Layer 1
370
     0
100
AcDbSpline
210
0.0
220
0.0
230
1.0
 70
    11
 71
     3
 72
    41
 73
    37
 74
     0
 42
0.0000000001
 43
0.0000000001
 12
1.0
 22
0.0
 32
0.0
 13
1.0
 23
0.0
 33
0.0
 40
0.0
 40
0.0
 40
0.0
 40
0.0
 40
1.0
 40
1.0
 40
1.0
 40
2.0
 40
2.0
 40
2.0
 40
3.0
 40
3.0
 40
3.0
 40
4.0
 40
4.0
 40
4.0
 40
5.0
 40
5.0
 40
5.0
 40
6.0
 40
6.0
 40
6.0
 40
7.0
 40
7.0
 40
7.0
 40
8.0
 40
8.0
 40
8.0
 40
9.0
 40
9.0
 40
9.0
 40
10.0
 40
10.0
 40
10.0
 40
11.0
 40
11.0
 40
11.0
 40
12.0
 40
12.0
 40
12.0
 40
12.0
 10
27.81688523859212
 20
-146.917703669112
 30
0.0
 10
25.10000734384533
 20
-146.917703669112
 30
0.0
 10
22.82507471906678
 20
-148.0180068674583
 30
0.0
 10
21.67532586681535
 20
-149.8721812596277
 30
0.0
 10
21.67532586681535
 20
-149.8721812596277
 30
0.0
 10
21.67532586681535
 20
-134.2217338712845
 30
0.0
 10
21.67532586681535
 20
-134.2217338712845
 30
0.0
 10
21.67532586681535
 20
-134.2217338712845
 30
0.0
 10
19.6607937472085
 20
-134.2217338712845
 30
0.0
 10
19.6607937472085
 20
-134.2217338712845
 30
0.0
 10
19.6607937472085
 20
-134.2217338712845
 30
0.0
 10
19.6607937472085
 20
-162.7253636587068
 30
0.0
 10
19.6607937472085
 20
-162.7253636587068
 30
0.0
 10
19.6607937472085
 20
-162.7253636587068
 30
0.0
 10
21.67532586681535
 20
-162.7253636587068
 30
0.0
 10
21.67532586681535
 20
-162.7253636587068
 30
0.0
 10
21.67532586681535
 20
-162.7253636587068
 30
0.0
 10
21.67532586681535
 20
-155.5480695687227
 30
0.0
 10
21.67532586681535
 20
-155.5480695687227
 30
0.0
 10
21.67532586681535
 20
-150.6996865991378
 30
0.0
 10
25.14246723331377
 20
-148.9322358396104
 30
0.0
 10
27.81688523859212
 20
-148.9322358396104
 30
0.0
 10
29.89191576280111
 20
-148.9322358396104
 30
0.0
 10
32.90490472518879
 20
-150.7976958671735
 30
0.0
 10
32.90490472518879
 20
-155.0742578925767
 30
0.0
 10
32.90490472518879
 20
-155.0742578925767
 30
0.0
 10
32.90490472518879
 20
-162.7253636587068
 30
0.0
 10
32.90490472518879
 20
-162.7253636587068
 30
0.0
 10
32.90490472518879
 20
-162.7253636587068
 30
0.0
 10
34.9194349409641
 20
-162.7253636587068
 30
0.0
 10
34.9194349409641
 20
-162.7253636587068
 30
0.0
 10
34.9194349409641
 20
-162.7253636587068
 30
0.0
 10
34.9194349409641
 20
-155.0742578925767
 30
0.0
 10
34.9194349409641
 20
-155.0742578925767
 30
0.0
 10
34.9194349409641
 20
-149.6399931871695
 30
0.0
 10
31.39785426084448
 20
-146.917703669112
 30
0.0
 10
27.81688523859212
 20
-146.917703669112
 30
0.0
  0
HATCH
  5
66
330
41
100
AcDbEntity
  8
Layer 1
 62
   154
420
    23210
100
AcDbHatch
 10
0.0
 20
0.0
 30
0.0
210
0.0
220
0.0
230
1.0
  2
SOLID
 70
     1
 71
     0
 91
        1
 92
        1
 93
        1
 72
     4
 94
        3
 73
     0
 74
     1
 95
       41
 96
       37
 40
0.0
 40
0.0
 40
0.0
 40
0.0
 40
1.0
 40
1.0
 40
1.0
 40
2.0
 40
2.0
 40
2.0
 40
3.0
 40
3.0
 40
3.0
 40
4.0
 40
4.0
 40
4.0
 40
5.0
 40
5.0
 40
5.0
 40
6.0
 40
6.0
 40
6.0
 40
7.0
 40
7.0
 40
7.0
 40
8.0
 40
8.0
 40
8.0
 40
9.0
 40
9.0
 40
9.0
 40
10.0
 40
10.0
 40
10.0
 40
11.0
 40
11.0
 40
11.0
 40
12.0
 40
12.0
 40
12.0
 40
12.0
 10
27.81688523859212
 20
-146.917703669112
 10
25.10000734384533
 20
-146.917703669112
 10
22.82507471906678
 20
-148.0180068674583
 10
21.67532586681535
 20
-149.8721812596277
 10
21.67532586681535
 20
-149.8721812596277
 10
21.67532586681535
 20
-134.2217338712845
 10
21.67532586681535
 20
-134.2217338712845
 10
21.67532586681535
 20
-134.2217338712845
 10
19.6607937472085
 20
-134.2217338712845
 10
19.6607937472085
 20
-134.2217338712845
 10
19.6607937472085
 20
-134.2217338712845
 10
19.6607937472085
 20
-162.7253636587068
 10
19.6607937472085
 20
-162.7253636587068
 10
19.6607937472085
 20
-162.7253636587068
 10
21.67532586681535
 20
-162.7253636587068
 10
21.67532586681535
 20
-162.7253636587068
 10
21.67532586681535
 20
-162.7253636587068
 10
21.67532586681535
 20
-155.5480695687227
 10
21.67532586681535
 20
-155.5480695687227
 10
21.67532586681535
 20
-150.6996865991378
 10
25.14246723331377
 20
-148.9322358396104
 10
27.81688523859212
 20
-148.9322358396104
 10
29.89191576280111
 20
-148.9322358396104
 10
32.90490472518879
 20
-150.7976958671735
 10
32.90490472518879
 20
-155.0742578925767
 10
32.90490472518879
 20
-155.0742578925767
 10
32.90490472518879
 20
-162.7253636587068
 10
32.90490472518879
 20
-162.7253636587068
 10
32.90490472518879
 20
-162.7253636587068
 10
34.9194349409641
 20
-162.7253636587068
 10
34.9194349409641
 20
-162.7253636587068
 10
34.9194349409641
 20
-162.7253636587068
 10
34.9194349409641
 20
-155.0742578925767
 10
34.9194349409641
 20
-155.0742578925767
 10
34.9194349409641
 20
-149.6399931871695
 10
31.39785426084448
 20
-146.917703669112
 10
27.81688523859212
 20
-146.917703669112
 97
        0
 97
        0
 75
     2
 76
     1
 98
        0
  0
SPLINE
  5
67
330
41
100
AcDbEntity
  8
Layer 1
370
     0
100
AcDbSpline
210
0.0
220
0.0
230
1.0
 70
    11
 71
     3
 72
    41
 73
    37
 74
     0
 42
0.0000000001
 43
0.0000000001
 12
1.0
 22
0.0
 32
0.0
 13
1.0
 23
0.0
 33
0.0
 40
0.0
 40
0.0
 40
0.0
 40
0.0
 40
1.0
 40
1.0
 40
1.0
 40
2.0
 40
2.0
 40
2.0
 40
3.0
 40
3.0
 40
3.0
 40
4.0
 40
4.0
 40
4.0
 40
5.0
 40
5.0
 40
5.0
 40
6.0
 40
6.0
 40
6.0
 40
7.0
 40
7.0
 40
7.0
 40
8.0
 40
8.0
 40
8.0
 40
9.0
 40
9.0
 40
9.0
 40
10.0
 40
10.0
 40
10.0
 40
11.0
 40
11.0
 40
11.0
 40
12.0
 40
12.0
 40
12.0
 40
12.0
 10
47.12239792368037
 20
-162.6612112968539
 30
0.0
 10
49.83927581842748
 20
-162.6612112968539
 30
0.0
 10
52.1141638397967
 20
-161.561370624548
 30
0.0
 10
53.26395729545746
 20
-159.7067337063386
 30
0.0
 10
53.26395729545746
 20
-159.7067337063386
 30
0.0
 10
53.26395729545746
 20
-162.7253636587068
 30
0.0
 10
53.26395729545746
 20
-162.7253636587068
 30
0.0
 10
53.26395729545746
 20
-162.7253636587068
 30
0.0
 10
55.27844316246117
 20
-162.7253636587068
 30
0.0
 10
55.27844316246117
 20
-162.7253636587068
 30
0.0
 10
55.27844316246117
 20
-162.7253636587068
 30
0.0
 10
55.27844316246117
 20
-146.8535513072591
 30
0.0
 10
55.27844316246117
 20
-146.8535513072591
 30
0.0
 10
55.27844316246117
 20
-146.8535513072591
 30
0.0
 10
53.26395729545746
 20
-146.8535513072591
 30
0.0
 10
53.26395729545746
 20
-146.8535513072591
 30
0.0
 10
53.26395729545746
 20
-146.8535513072591
 30
0.0
 10
53.26395729545746
 20
-154.0303828712018
 30
0.0
 10
53.26395729545746
 20
-154.0303828712018
 30
0.0
 10
53.26395729545746
 20
-158.8792283668278
 30
0.0
 10
49.79658466594428
 20
-160.6466791263564
 30
0.0
 10
47.12239792368037
 20
-160.6466791263564
 30
0.0
 10
45.04732114686855
 20
-160.6466791263564
 30
0.0
 10
42.03414907790079
 20
-158.7816816248332
 30
0.0
 10
42.03414907790079
 20
-154.50511959943
 30
0.0
 10
42.03414907790079
 20
-154.50511959943
 30
0.0
 10
42.03414907790079
 20
-146.8535513072591
 30
0.0
 10
42.03414907790079
 20
-146.8535513072591
 30
0.0
 10
42.03414907790079
 20
-146.8535513072591
 30
0.0
 10
40.01984822130839
 20
-146.8535513072591
 30
0.0
 10
40.01984822130839
 20
-146.8535513072591
 30
0.0
 10
40.01984822130839
 20
-146.8535513072591
 30
0.0
 10
40.01984822130839
 20
-154.50511959943
 30
0.0
 10
40.01984822130839
 20
-154.50511959943
 30
0.0
 10
40.01984822130839
 20
-159.938875526192
 30
0.0
 10
43.54142890142833
 20
-162.6612112968539
 30
0.0
 10
47.12239792368037
 20
-162.6612112968539
 30
0.0
  0
HATCH
  5
68
330
41
100
AcDbEntity
  8
Layer 1
 62
   154
420
    23210
100
AcDbHatch
 10
0.0
 20
0.0
 30
0.0
210
0.0
220
0.0
230
1.0
  2
SOLID
 70
     1
 71
     0
 91
        1
 92
        1
 93
        1
 72
     4
 94
        3
 73
     0
 74
     1
 95
       41
 96
       37
 40
0.0
 40
0.0
 40
0.0
 40
0.0
 40
1.0
 40
1.0
 40
1.0
 40
2.0
 40
2.0
 40
2.0
 40
3.0
 40
3.0
 40
3.0
 40
4.0
 40
4.0
 40
4.0
 40
5.0
 40
5.0
 40
5.0
 40
6.0
 40
6.0
 40
6.0
 40
7.0
 40
7.0
 40
7.0
 40
8.0
 40
8.0
 40
8.0
 40
9.0
 40
9.0
 40
9.0
 40
10.0
 40
10.0
 40
10.0
 40
11.0
 40
11.0
 40
11.0
 40
12.0
 40
12.0
 40
12.0
 40
12.0
 10
47.12239792368037
 20
-162.6612112968539
 10
49.83927581842748
 20
-162.6612112968539
 10
52.1141638397967
 20
-161.561370624548
 10
53.26395729545746
 20
-159.7067337063386
 10
53.26395729545746
 20
-159.7067337063386
 10
53.26395729545746
 20
-162.7253636587068
 10
53.26395729545746
 20
-162.7253636587068
 10
53.26395729545746
 20
-162.7253636587068
 10
55.27844316246117
 20
-162.7253636587068
 10
55.27844316246117
 20
-162.7253636587068
 10
55.27844316246117
 20
-162.7253636587068
 10
55.27844316246117
 20
-146.8535513072591
 10
55.27844316246117
 20
-146.8535513072591
 10
55.27844316246117
 20
-146.8535513072591
 10
53.26395729545746
 20
-146.8535513072591
 10
53.26395729545746
 20
-146.8535513072591
 10
53.26395729545746
 20
-146.8535513072591
 10
53.26395729545746
 20
-154.0303828712018
 10
53.26395729545746
 20
-154.0303828712018
 10
53.26395729545746
 20
-158.8792283668278
 10
49.79658466594428
 20
-160.6466791263564
 10
47.12239792368037
 20
-160.6466791263564
 10
45.04732114686855
 20
-160.6466791263564
 10
42.03414907790079
 20
-158.7816816248332
 10
42.03414907790079
 20
-154.50511959943
 10
42.03414907790079
 20
-154.50511959943
 10
42.03414907790079
 20
-146.8535513072591
 10
42.03414907790079
 20
-146.8535513072591
 10
42.03414907790079
 20
-146.8535513072591
 10
40.01984822130839
 20
-146.8535513072591
 10
40.01984822130839
 20
-146.8535513072591
 10
40.01984822130839
 20
-146.8535513072591
 10
40.01984822130839
 20
-154.50511959943
 10
40.01984822130839
 20
-154.50511959943
 10
40.01984822130839
 20
-159.938875526192
 10
43.54142890142833
 20
-162.6612112968539
 10
47.12239792368037
 20
-162.6612112968539
 97
        0
 97
        0
 75
     2
 76
     1
 98
        0
  0
POLYLINE
  5
69
330
41
100
AcDbEntity
  8
Layer 1
370
     0
100
AcDb2dPolyline
 66
     1
 10
0.0
 20
0.0
 30
0.0
  0
VERTEX
  5
6A
330
69
100
AcDbEntity
  8
Layer 1
370
     0
100
AcDbVertex
100
AcDb2dVertex
 10
57.21910987522581
 20
-134.4019340167618
 30
0.0
  0
VERTEX
  5
6B
330
69
100
AcDbEntity
  8
Layer 1
370
     0
100
AcDbVertex
100
AcDb2dVertex
 10
57.21910987522581
 20
-141.6406515649562
 30
0.0
  0
VERTEX
  5
6C
330
69
100
AcDbEntity
  8
Layer 1
370
     0
100
AcDbVertex
100
AcDb2dVertex
 10
62.22785049660862
 20
-134.4019340167618
 30
0.0
  0
VERTEX
  5
6D
330
69
100
AcDbEntity
  8
Layer 1
370
     0
100
AcDbVertex
100
AcDb2dVertex
 10
57.21910987522581
 20
-134.4019340167618
 30
0.0
  0
SEQEND
  5
6F
330
69
100
AcDbEntity
  8
Layer 1
370
     0
  0
HATCH
  5
6E
330
41
100
AcDbEntity
  8
Layer 1
 62
   154
420
    23210
100
AcDbHatch
 10
0.0
 20
0.0
 30
0.0
210
0.0
220
0.0
230
1.0
  2
SOLID
 70
     1
 71
     0
 91
        1
 92
        1
 93
        3
 72
     1
 10
57.21910987522581
 20
-134.4019340167618
 11
57.21910987522581
 21
-141.6406515649562
 72
     1
 10
57.21910987522581
 20
-141.6406515649562
 11
62.22785049660862
 21
-134.4019340167618
 72
     1
 10
62.22785049660862
 20
-134.4019340167618
 11
57.21910987522581
 21
-134.4019340167618
 97
        0
 75
     2
 76
     1
 98
        0
  0
ENDBLK
  5
44
330
41
100
AcDbEntity
  8
0
100
AcDbBlockEnd
  0
BLOCK
  5
47
330
45
100
AcDbEntity
  8
0
100
AcDbBlockBegin
  2
block 3
 70
     0
 10
0.0
 20
0.0
 30
0.0
  3
block 3
  1

  0
POLYLINE
  5
49
330
45
100
AcDbEntity
  8
Layer 1
370
     0
100
AcDb2dPolyline
 66
     1
 10
0.0
 20
0.0
 30
0.0
  0
VERTEX
  5
4A
330
49
100
AcDbEntity
  8
Layer 1
370
     0
100
AcDbVertex
100
AcDb2dVertex
 10
115.1552590341232
 20
-162.8152324684246
 30
0.0
  0
VERTEX
  5
4B
330
49
100
AcDbEntity
  8
Layer 1
370
     0
100
AcDbVertex
100
AcDb2dVertex
 10
120.3521089915279
 20
-162.8152324684246
 30
0.0
  0
VERTEX
  5
4C
330
49
100
AcDbEntity
  8
Layer 1
370
     0
100
AcDbVertex
100
AcDb2dVertex
 10
120.3521089915279
 20
-134.4023965428026
 30
0.0
  0
VERTEX
  5
4D
330
49
100
AcDbEntity
  8
Layer 1
370
     0
100
AcDbVertex
100
AcDb2dVertex
 10
115.1552590341232
 20
-134.4023965428026
 30
0.0
  0
VERTEX
  5
4E
330
49
100
AcDbEntity
  8
Layer 1
370
     0
100
AcDbVertex
100
AcDb2dVertex
 10
115.1552590341232
 20
-162.8152324684246
 30
0.0
  0
SEQEND
  5
50
330
49
100
AcDbEntity
  8
Layer 1
370
     0
  0
HATCH
  5
4F
330
45
100
AcDbEntity
  8
Layer 1
 62
   154
420
    23210
100
AcDbHatch
 10
0.0
 20
0.0
 30
0.0
210
0.0
220
0.0
230
1.0
  2
SOLID
 70
     1
 71
     0
 91
        1
 92
        1
 93
        4
 72
     1
 10
115.1552590341232
 20
-162.8152324684246
 11
120.3521089915279
 21
-162.8152324684246
 72
     1
 10
120.3521089915279
 20
-162.8152324684246
 11
120.3521089915279
 21
-134.4023965428026
 72
     1
 10
120.3521089915279
 20
-134.4023965428026
 11
115.1552590341232
 21
-134.4023965428026
 72
     1
 10
115.1552590341232
 20
-134.4023965428026
 11
115.1552590341232
 21
-162.8152324684246
 97
        0
 75
     2
 76
     1
 98
        0
  0
POLYLINE
  5
51
330
45
100
AcDbEntity
  8
Layer 1
370
     0
100
AcDb2dPolyline
 66
     1
 10
0.0
 20
0.0
 30
0.0
  0
VERTEX
  5
52
330
51
100
AcDbEntity
  8
Layer 1
370
     0
100
AcDbVertex
100
AcDb2dVertex
 10
175.0946084249155
 20
-134.4019340167618
 30
0.0
  0
VERTEX
  5
53
330
51
100
AcDbEntity
  8
Layer 1
370
     0
100
AcDbVertex
100
AcDb2dVertex
 10
175.0946084249155
 20
-138.8686867501216
 30
0.0
  0
VERTEX
  5
54
330
51
100
AcDbEntity
  8
Layer 1
370
     0
100
AcDbVertex
100
AcDb2dVertex
 10
180.4202256288131
 20
-138.8686867501216
 30
0.0
  0
VERTEX
  5
55
330
51
100
AcDbEntity
  8
Layer 1
370
     0
100
AcDbVertex
100
AcDb2dVertex
 10
180.4202256288131
 20
-162.8369249397365
 30
0.0
  0
VERTEX
  5
56
330
51
100
AcDbEntity
  8
Layer 1
370
     0
100
AcDbVertex
100
AcDb2dVertex
 10
185.5269755157557
 20
-162.8369249397365
 30
0.0
  0
VERTEX
  5
57
330
51
100
AcDbEntity
  8
Layer 1
370
     0
100
AcDbVertex
100
AcDb2dVertex
 10
185.5269755157557
 20
-138.8686867501216
 30
0.0
  0
VERTEX
  5
58
330
51
100
AcDbEntity
  8
Layer 1
370
     0
100
AcDbVertex
100
AcDb2dVertex
 10
190.8527777300646
 20
-138.8686867501216
 30
0.0
  0
VERTEX
  5
59
330
51
100
AcDbEntity
  8
Layer 1
370
     0
100
AcDbVertex
100
AcDb2dVertex
 10
190.8527777300646
 20
-134.4019340167618
 30
0.0
  0
VERTEX
  5
5A
330
51
100
AcDbEntity
  8
Layer 1
370
     0
100
AcDbVertex
100
AcDb2dVertex
 10
175.0946084249155
 20
-134.4019340167618
 30
0.0
  0
SEQEND
  5
5C
330
51
100
AcDbEntity
  8
Layer 1
370
     0
  0
HATCH
  5
5B
330
45
100
AcDbEntity
  8
Layer 1
 62
   154
420
    23210
100
AcDbHatch
 10
0.0
 20
0.0
 30
0.0
210
0.0
220
0.0
230
1.0
  2
SOLID
 70
     1
 71
     0
 91
        1
 92
        1
 93
        8
 72
     1
 10
175.0946084249155
 20
-134.4019340167618
 11
175.0946084249155
 21
-138.8686867501216
 72
     1
 10
175.0946084249155
 20
-138.8686867501216
 11
180.4202256288131
 21
-138.8686867501216
 72
     1
 10
180.4202256288131
 20
-138.8686867501216
 11
180.4202256288131
 21
-162.8369249397365
 72
     1
 10
180.4202256288131
 20
-162.8369249397365
 11
185.5269755157557
 21
-162.8369249397365
 72
     1
 10
185.5269755157557
 20
-162.8369249397365
 11
185.5269755157557
 21
-138.8686867501216
 72
     1
 10
185.5269755157557
 20
-138.8686867501216
 11
190.8527777300646
 21
-138.8686867501216
 72
     1
 10
190.8527777300646
 20
-138.8686867501216
 11
190.8527777300646
 21
-134.4019340167618
 72
     1
 10
190.8527777300646
 20
-134.4019340167618
 11
175.0946084249155
 21
-134.4019340167618
 97
        0
 75
     2
 76
     1
 98
        0
  0
SPLINE
  5
5D
330
45
100
AcDbEntity
  8
Layer 1
370
     0
100
AcDbSpline
210
0.0
220
0.0
230
1.0
 70
    11
 71
     3
 72
    47
 73
    43
 74
     0
 42
0.0000000001
 43
0.0000000001
 12
1.0
 22
0.0
 32
0.0
 13
1.0
 23
0.0
 33
0.0
 40
0.0
 40
0.0
 40
0.0
 40
0.0
 40
1.0
 40
1.0
 40
1.0
 40
2.0
 40
2.0
 40
2.0
 40
3.0
 40
3.0
 40
3.0
 40
4.0
 40
4.0
 40
4.0
 40
5.0
 40
5.0
 40
5.0
 40
6.0
 40
6.0
 40
6.0
 40
7.0
 40
7.0
 40
7.0
 40
8.0
 40
8.0
 40
8.0
 40
9.0
 40
9.0
 40
9.0
 40
10.0
 40
10.0
 40
10.0
 40
11.0
 40
11.0
 40
11.0
 40
12.0
 40
12.0
 40
12.0
 40
13.0
 40
13.0
 40
13.0
 40
14.0
 40
14.0
 40
14.0
 40
14.0
 10
165.1182457461335
 20
-134.4023965428026
 30
0.0
 10
165.1182457461335
 20
-134.4023965428026
 30
0.0
 10
165.1182457461335
 20
-149.5939255935106
 30
0.0
 10
165.1182457461335
 20
-149.5939255935106
 30
0.0
 10
164.0034655108733
 20
-149.1919442114924
 30
0.0
 10
162.8182425613859
 20
-148.9724293525514
 30
0.0
 10
161.6048055241255
 20
-148.9724293525514
 30
0.0
 10
160.3287887151316
 20
-148.9724293525514
 30
0.0
 10
159.0972720018535
 20
-149.2109077791632
 30
0.0
 10
157.9432182150063
 20
-149.6454509944504
 30
0.0
 10
157.9432182150063
 20
-149.6454509944504
 30
0.0
 10
157.9432182150063
 20
-134.4023965428026
 30
0.0
 10
157.9432182150063
 20
-134.4023965428026
 30
0.0
 10
157.9432182150063
 20
-134.4023965428026
 30
0.0
 10
152.7912795350239
 20
-134.4023965428026
 30
0.0
 10
152.7912795350239
 20
-134.4023965428026
 30
0.0
 10
152.7912795350239
 20
-134.4023965428026
 30
0.0
 10
152.7912795350239
 20
-162.8152324684246
 30
0.0
 10
152.7912795350239
 20
-162.8152324684246
 30
0.0
 10
152.7912795350239
 20
-162.8152324684246
 30
0.0
 10
157.9432182150063
 20
-162.8152324684246
 30
0.0
 10
157.9432182150063
 20
-162.8152324684246
 30
0.0
 10
157.9432182150063
 20
-162.8152324684246
 30
0.0
 10
157.9432182150063
 20
-154.4698751151247
 30
0.0
 10
157.9432182150063
 20
-154.4698751151247
 30
0.0
 10
158.9929210379767
 20
-153.6731277573246
 30
0.0
 10
160.259687326389
 20
-153.2385845420374
 30
0.0
 10
161.6048055241255
 20
-153.2385845420374
 30
0.0
 10
162.8769833670772
 20
-153.2385845420374
 30
0.0
 10
164.0962944849073
 20
-153.6378832730186
 30
0.0
 10
165.1182457461335
 20
-154.3633091153354
 30
0.0
 10
165.1182457461335
 20
-154.3633091153354
 30
0.0
 10
165.1182457461335
 20
-162.8152324684246
 30
0.0
 10
165.1182457461335
 20
-162.8152324684246
 30
0.0
 10
165.1182457461335
 20
-162.8152324684246
 30
0.0
 10
170.2701381735131
 20
-162.8152324684246
 30
0.0
 10
170.2701381735131
 20
-162.8152324684246
 30
0.0
 10
170.2701381735131
 20
-162.8152324684246
 30
0.0
 10
170.2701381735131
 20
-134.4023965428026
 30
0.0
 10
170.2701381735131
 20
-134.4023965428026
 30
0.0
 10
170.2701381735131
 20
-134.4023965428026
 30
0.0
 10
165.1182457461335
 20
-134.4023965428026
 30
0.0
 10
165.1182457461335
 20
-134.4023965428026
 30
0.0
  0
HATCH
  5
5E
330
45
100
AcDbEntity
  8
Layer 1
 62
   154
420
    23210
100
AcDbHatch
 10
0.0
 20
0.0
 30
0.0
210
0.0
220
0.0
230
1.0
  2
SOLID
 70
     1
 71
     0
 91
        1
 92
        1
 93
        1
 72
     4
 94
        3
 73
     0
 74
     1
 95
       47
 96
       43
 40
0.0
 40
0.0
 40
0.0
 40
0.0
 40
1.0
 40
1.0
 40
1.0
 40
2.0
 40
2.0
 40
2.0
 40
3.0
 40
3.0
 40
3.0
 40
4.0
 40
4.0
 40
4.0
 40
5.0
 40
5.0
 40
5.0
 40
6.0
 40
6.0
 40
6.0
 40
7.0
 40
7.0
 40
7.0
 40
8.0
 40
8.0
 40
8.0
 40
9.0
 40
9.0
 40
9.0
 40
10.0
 40
10.0
 40
10.0
 40
11.0
 40
11.0
 40
11.0
 40
12.0
 40
12.0
 40
12.0
 40
13.0
 40
13.0
 40
13.0
 40
14.0
 40
14.0
 40
14.0
 40
14.0
 10
165.1182457461335
 20
-134.4023965428026
 10
165.1182457461335
 20
-134.4023965428026
 10
165.1182457461335
 20
-149.5939255935106
 10
165.1182457461335
 20
-149.5939255935106
 10
164.0034655108733
 20
-149.1919442114924
 10
162.8182425613859
 20
-148.9724293525514
 10
161.6048055241255
 20
-148.9724293525514
 10
160.3287887151316
 20
-148.9724293525514
 10
159.0972720018535
 20
-149.2109077791632
 10
157.9432182150063
 20
-149.6454509944504
 10
157.9432182150063
 20
-149.6454509944504
 10
157.9432182150063
 20
-134.4023965428026
 10
157.9432182150063
 20
-134.4023965428026
 10
157.9432182150063
 20
-134.4023965428026
 10
152.7912795350239
 20
-134.4023965428026
 10
152.7912795350239
 20
-134.4023965428026
 10
152.7912795350239
 20
-134.4023965428026
 10
152.7912795350239
 20
-162.8152324684246
 10
152.7912795350239
 20
-162.8152324684246
 10
152.7912795350239
 20
-162.8152324684246
 10
157.9432182150063
 20
-162.8152324684246
 10
157.9432182150063
 20
-162.8152324684246
 10
157.9432182150063
 20
-162.8152324684246
 10
157.9432182150063
 20
-154.4698751151247
 10
157.9432182150063
 20
-154.4698751151247
 10
158.9929210379767
 20
-153.6731277573246
 10
160.259687326389
 20
-153.2385845420374
 10
161.6048055241255
 20
-153.2385845420374
 10
162.8769833670772
 20
-153.2385845420374
 10
164.0962944849073
 20
-153.6378832730186
 10
165.1182457461335
 20
-154.3633091153354
 10
165.1182457461335
 20
-154.3633091153354
 10
165.1182457461335
 20
-162.8152324684246
 10
165.1182457461335
 20
-162.8152324684246
 10
165.1182457461335
 20
-162.8152324684246
 10
170.2701381735131
 20
-162.8152324684246
 10
170.2701381735131
 20
-162.8152324684246
 10
170.2701381735131
 20
-162.8152324684246
 10
170.2701381735131
 20
-134.4023965428026
 10
170.2701381735131
 20
-134.4023965428026
 10
170.2701381735131
 20
-134.4023965428026
 10
165.1182457461335
 20
-134.4023965428026
 10
165.1182457461335
 20
-134.4023965428026
 97
        0
 97
        0
 75
     2
 76
     1
 98
        0
  0
SPLINE
  5
5F
330
45
100
AcDbEntity
  8
Layer 1
370
     0
100
AcDbSpline
210
0.0
220
0.0
230
1.0
 70
    11
 71
     3
 72
   122
 73
   118
 74
     0
 42
0.0000000001
 43
0.0000000001
 12
1.0
 22
0.0
 32
0.0
 13
1.0
 23
0.0
 33
0.0
 40
0.0
 40
0.0
 40
0.0
 40
0.0
 40
1.0
 40
1.0
 40
1.0
 40
2.0
 40
2.0
 40
2.0
 40
3.0
 40
3.0
 40
3.0
 40
4.0
 40
4.0
 40
4.0
 40
5.0
 40
5.0
 40
5.0
 40
6.0
 40
6.0
 40
6.0
 40
7.0
 40
7.0
 40
7.0
 40
8.0
 40
8.0
 40
8.0
 40
9.0
 40
9.0
 40
9.0
 40
10.0
 40
10.0
 40
10.0
 40
11.0
 40
11.0
 40
11.0
 40
12.0
 40
12.0
 40
12.0
 40
13.0
 40
13.0
 40
13.0
 40
14.0
 40
14.0
 40
14.0
 40
15.0
 40
15.0
 40
15.0
 40
16.0
 40
16.0
 40
16.0
 40
17.0
 40
17.0
 40
17.0
 40
18.0
 40
18.0
 40
18.0
 40
19.0
 40
19.0
 40
19.0
 40
20.0
 40
20.0
 40
20.0
 40
21.0
 40
21.0
 40
21.0
 40
22.0
 40
22.0
 40
22.0
 40
23.0
 40
23.0
 40
23.0
 40
24.0
 40
24.0
 40
24.0
 40
25.0
 40
25.0
 40
25.0
 40
26.0
 40
26.0
 40
26.0
 40
27.0
 40
27.0
 40
27.0
 40
28.0
 40
28.0
 40
28.0
 40
29.0
 40
29.0
 40
29.0
 40
30.0
 40
30.0
 40
30.0
 40
31.0
 40
31.0
 40
31.0
 40
32.0
 40
32.0
 40
32.0
 40
33.0
 40
33.0
 40
33.0
 40
34.0
 40
34.0
 40
34.0
 40
35.0
 40
35.0
 40
35.0
 40
36.0
 40
36.0
 40
36.0
 40
37.0
 40
37.0
 40
37.0
 40
38.0
 40
38.0
 40
38.0
 40
39.0
 40
39.0
 40
39.0
 40
39.0
 10
89.65129961304847
 20
-149.7204264656563
 30
0.0
 10
88.97152177076106
 20
-148.7343671993754
 30
0.0
 10
88.2138116299415
 20
-147.9746681774392
 30
0.0
 10
87.39625062096032
 20
-147.4660282904242
 30
0.0
 10
86.73271077965893
 20
-147.0559064500884
 30
0.0
 10
85.99419546904562
 20
-146.7329707684353
 30
0.0
 10
85.19448796478683
 20
-146.4922259642233
 30
0.0
 10
85.24328446085347
 20
-146.4641968861537
 30
0.0
 10
85.29591992296132
 20
-146.4352890086064
 30
0.0
 10
85.34670528095327
 20
-146.4055023315823
 30
0.0
 10
85.81353280209164
 20
-146.129975569106
 30
0.0
 10
86.25168370942804
 20
-145.7365509188419
 30
0.0
 10
86.6513987037488
 20
-145.2351726906658
 30
0.0
 10
87.04482334407417
 20
-144.7405935952893
 30
0.0
 10
87.38561252229171
 20
-144.1299204636831
 30
0.0
 10
87.66521279405663
 20
-143.4180466343607
 30
0.0
 10
87.94707286897778
 20
-142.6980785993251
 30
0.0
 10
88.09272231553125
 20
-141.8538760697438
 30
0.0
 10
88.09272231553125
 20
-140.9021362356874
 30
0.0
 10
88.09272231553125
 20
-140.0322172582394
 30
0.0
 10
87.90845194555054
 20
-139.1880147286581
 30
0.0
 10
87.54573903355528
 20
-138.3908048448163
 30
0.0
 10
87.18441369964701
 20
-137.6003478411704
 30
0.0
 10
86.6916384682778
 20
-136.9029510769232
 30
0.0
 10
86.08115036251063
 20
-136.3193357187013
 30
0.0
 10
85.46978345728819
 20
-135.7375704646427
 30
0.0
 10
84.74125870890265
 20
-135.2705579212948
 30
0.0
 10
83.91282833823874
 20
-134.927687367285
 30
0.0
 10
83.08060525413615
 20
-134.5844467924426
 30
0.0
 10
82.19935441095245
 20
-134.4105370011195
 30
0.0
 10
81.29261838356715
 20
-134.4105370011195
 30
0.0
 10
81.29261838356715
 20
-134.4105370011195
 30
0.0
 10
68.56071063400829
 20
-134.4105370011195
 30
0.0
 10
68.56071063400829
 20
-134.4105370011195
 30
0.0
 10
68.56071063400829
 20
-134.4105370011195
 30
0.0
 10
68.56071063400829
 20
-138.4558360061463
 30
0.0
 10
68.56071063400829
 20
-138.4558360061463
 30
0.0
 10
68.56071063400829
 20
-138.4558360061463
 30
0.0
 10
79.54279299239936
 20
-138.4558360061463
 30
0.0
 10
79.54279299239936
 20
-138.4558360061463
 30
0.0
 10
80.51053312101568
 20
-138.4558360061463
 30
0.0
 10
81.30390401867625
 20
-138.7557378909703
 30
0.0
 10
81.9633736309217
 20
-139.3844957907693
 30
0.0
 10
82.62034560261041
 20
-140.0114498390093
 30
0.0
 10
82.9412924141809
 20
-140.759400699511
 30
0.0
 10
82.9412924141809
 20
-141.6727508721847
 30
0.0
 10
82.9412924141809
 20
-142.5860547922556
 30
0.0
 10
82.62034560261041
 20
-143.3398797334736
 30
0.0
 10
81.96134165949512
 20
-143.9813108467895
 30
0.0
 10
81.30233143017733
 20
-144.6240370330194
 30
0.0
 10
80.50937680594282
 20
-144.9366121313597
 30
0.0
 10
79.54279299239936
 20
-144.9366121313597
 30
0.0
 10
79.54279299239936
 20
-144.9366121313597
 30
0.0
 10
78.9657424365306
 20
-144.9366121313597
 30
0.0
 10
78.9657424365306
 20
-144.9366121313597
 30
0.0
 10
78.9657424365306
 20
-144.9366121313597
 30
0.0
 10
78.9657424365306
 20
-147.7018240659999
 30
0.0
 10
78.9657424365306
 20
-147.7470128601814
 30
0.0
 10
78.9657424365306
 20
-148.5577747570166
 30
0.0
 10
79.29482970621265
 20
-148.9322358396104
 30
0.0
 10
80.3056803427411
 20
-148.9322358396104
 30
0.0
 10
81.00784110746973
 20
-148.9322358396104
 30
0.0
 10
81.68400790936471
 20
-149.0604943107109
 30
0.0
 10
82.31660475932121
 20
-149.3161324534346
 30
0.0
 10
82.94601017967734
 20
-149.569550471163
 30
0.0
 10
83.49979259428073
 20
-149.9272681110812
 30
0.0
 10
83.96051477183566
 20
-150.3780459903982
 30
0.0
 10
84.42368833734447
 20
-150.832894098874
 30
0.0
 10
84.79273785593794
 20
-151.366787907716
 30
0.0
 10
85.05697897634495
 20
-151.9661754039269
 30
0.0
 10
85.32390597576676
 20
-152.562417723061
 30
0.0
 10
85.45646270765094
 20
-153.2029237842951
 30
0.0
 10
85.45646270765094
 20
-153.8655385902774
 30
0.0
 10
85.45646270765094
 20
-154.5575237998478
 30
0.0
 10
85.32390597576676
 20
-155.2101942959534
 30
0.0
 10
85.05855156484355
 20
-155.8064366150874
 30
0.0
 10
84.79273785593794
 20
-156.4048990592175
 30
0.0
 10
84.42368833734447
 20
-156.930652409741
 30
0.0
 10
83.96435373787685
 20
-157.3697283802275
 30
0.0
 10
83.49979259428073
 20
-157.8114407491463
 30
0.0
 10
82.94490011720762
 20
-158.1718872927044
 30
0.0
 10
82.31096194176665
 20
-158.4393198494679
 30
0.0
 10
81.68127900579324
 20
-158.7049023020683
 30
0.0
 10
81.00645352938243
 20
-158.840838705445
 30
0.0
 10
80.3056803427411
 20
-158.840838705445
 30
0.0
 10
80.3056803427411
 20
-158.840838705445
 30
0.0
 10
78.9657424365306
 20
-158.840838705445
 30
0.0
 10
78.9657424365306
 20
-158.840838705445
 30
0.0
 10
78.9657424365306
 20
-158.840838705445
 30
0.0
 10
73.01030353885075
 20
-158.840838705445
 30
0.0
 10
73.01030353885075
 20
-158.840838705445
 30
0.0
 10
73.01030353885075
 20
-158.840838705445
 30
0.0
 10
75.85502362803206
 20
-140.9915887719688
 30
0.0
 10
75.85502362803206
 20
-140.9915887719688
 30
0.0
 10
75.85502362803206
 20
-140.9915887719688
 30
0.0
 10
71.23041087379018
 20
-140.9915887719688
 30
0.0
 10
71.23041087379018
 20
-140.9915887719688
 30
0.0
 10
71.23041087379018
 20
-140.9915887719688
 30
0.0
 10
67.43737366721007
 20
-162.8369249397365
 30
0.0
 10
67.43737366721007
 20
-162.8369249397365
 30
0.0
 10
67.43737366721007
 20
-162.8369249397365
 30
0.0
 10
79.99268897887058
 20
-162.8369249397365
 30
0.0
 10
79.99268897887058
 20
-162.8369249397365
 30
0.0
 10
80.84614200770756
 20
-162.8369249397365
 30
0.0
 10
81.90398843044188
 20
-162.7140317707074
 30
0.0
 10
83.13254692720064
 20
-162.4678754118201
 30
0.0
 10
84.374244304837
 20
-162.219915201372
 30
0.0
 10
85.57190920450633
 20
-161.7628007152955
 30
0.0
 10
86.69478364527534
 20
-161.1033310863912
 30
0.0
 10
87.82672359621401
 20
-160.4375711033321
 30
0.0
 10
88.79825952027218
 20
-159.5034535114274
 30
0.0
 10
89.58557132695215
 20
-158.3272960423977
 30
0.0
 10
90.38435377915283
 20
-157.1352739301693
 30
0.0
 10
90.77259812795286
 20
-155.590066933224
 30
0.0
 10
90.74369025113612
 20
-153.7300184603371
 30
0.0
 10
90.71251599677679
 20
-152.075932833397
 30
0.0
 10
90.34351273078614
 20
-150.7263280990854
 30
0.0
 10
89.65129961304847
 20
-149.7204264656563
 30
0.0
  0
HATCH
  5
60
330
45
100
AcDbEntity
  8
Layer 1
 62
   154
420
    23210
100
AcDbHatch
 10
0.0
 20
0.0
 30
0.0
210
0.0
220
0.0
230
1.0
  2
SOLID
 70
     1
 71
     0
 91
        1
 92
        1
 93
        1
 72
     4
 94
        3
 73
     0
 74
     1
 95
      122
 96
      118
 40
0.0
 40
0.0
 40
0.0
 40
0.0
 40
1.0
 40
1.0
 40
1.0
 40
2.0
 40
2.0
 40
2.0
 40
3.0
 40
3.0
 40
3.0
 40
4.0
 40
4.0
 40
4.0
 40
5.0
 40
5.0
 40
5.0
 40
6.0
 40
6.0
 40
6.0
 40
7.0
 40
7.0
 40
7.0
 40
8.0
 40
8.0
 40
8.0
 40
9.0
 40
9.0
 40
9.0
 40
10.0
 40
10.0
 40
10.0
 40
11.0
 40
11.0
 40
11.0
 40
12.0
 40
12.0
 40
12.0
 40
13.0
 40
13.0
 40
13.0
 40
14.0
 40
14.0
 40
14.0
 40
15.0
 40
15.0
 40
15.0
 40
16.0
 40
16.0
 40
16.0
 40
17.0
 40
17.0
 40
17.0
 40
18.0
 40
18.0
 40
18.0
 40
19.0
 40
19.0
 40
19.0
 40
20.0
 40
20.0
 40
20.0
 40
21.0
 40
21.0
 40
21.0
 40
22.0
 40
22.0
 40
22.0
 40
23.0
 40
23.0
 40
23.0
 40
24.0
 40
24.0
 40
24.0
 40
25.0
 40
25.0
 40
25.0
 40
26.0
 40
26.0
 40
26.0
 40
27.0
 40
27.0
 40
27.0
 40
28.0
 40
28.0
 40
28.0
 40
29.0
 40
29.0
 40
29.0
 40
30.0
 40
30.0
 40
30.0
 40
31.0
 40
31.0
 40
31.0
 40
32.0
 40
32.0
 40
32.0
 40
33.0
 40
33.0
 40
33.0
 40
34.0
 40
34.0
 40
34.0
 40
35.0
 40
35.0
 40
35.0
 40
36.0
 40
36.0
 40
36.0
 40
37.0
 40
37.0
 40
37.0
 40
38.0
 40
38.0
 40
38.0
 40
39.0
 40
39.0
 40
39.0
 40
39.0
 10
89.65129961304847
 20
-149.7204264656563
 10
88.97152177076106
 20
-148.7343671993754
 10
88.2138116299415
 20
-147.9746681774392
 10
87.39625062096032
 20
-147.4660282904242
 10
86.73271077965893
 20
-147.0559064500884
 10
85.99419546904562
 20
-146.7329707684353
 10
85.19448796478683
 20
-146.4922259642233
 10
85.24328446085347
 20
-146.4641968861537
 10
85.29591992296132
 20
-146.4352890086064
 10
85.34670528095327
 20
-146.4055023315823
 10
85.81353280209164
 20
-146.129975569106
 10
86.25168370942804
 20
-145.7365509188419
 10
86.6513987037488
 20
-145.2351726906658
 10
87.04482334407417
 20
-144.7405935952893
 10
87.38561252229171
 20
-144.1299204636831
 10
87.66521279405663
 20
-143.4180466343607
 10
87.94707286897778
 20
-142.6980785993251
 10
88.09272231553125
 20
-141.8538760697438
 10
88.09272231553125
 20
-140.9021362356874
 10
88.09272231553125
 20
-140.0322172582394
 10
87.90845194555054
 20
-139.1880147286581
 10
87.54573903355528
 20
-138.3908048448163
 10
87.18441369964701
 20
-137.6003478411704
 10
86.6916384682778
 20
-136.9029510769232
 10
86.08115036251063
 20
-136.3193357187013
 10
85.46978345728819
 20
-135.7375704646427
 10
84.74125870890265
 20
-135.2705579212948
 10
83.91282833823874
 20
-134.927687367285
 10
83.08060525413615
 20
-134.5844467924426
 10
82.19935441095245
 20
-134.4105370011195
 10
81.29261838356715
 20
-134.4105370011195
 10
81.29261838356715
 20
-134.4105370011195
 10
68.56071063400829
 20
-134.4105370011195
 10
68.56071063400829
 20
-134.4105370011195
 10
68.56071063400829
 20
-134.4105370011195
 10
68.56071063400829
 20
-138.4558360061463
 10
68.56071063400829
 20
-138.4558360061463
 10
68.56071063400829
 20
-138.4558360061463
 10
79.54279299239936
 20
-138.4558360061463
 10
79.54279299239936
 20
-138.4558360061463
 10
80.51053312101568
 20
-138.4558360061463
 10
81.30390401867625
 20
-138.7557378909703
 10
81.9633736309217
 20
-139.3844957907693
 10
82.62034560261041
 20
-140.0114498390093
 10
82.9412924141809
 20
-140.759400699511
 10
82.9412924141809
 20
-141.6727508721847
 10
82.9412924141809
 20
-142.5860547922556
 10
82.62034560261041
 20
-143.3398797334736
 10
81.96134165949512
 20
-143.9813108467895
 10
81.30233143017733
 20
-144.6240370330194
 10
80.50937680594282
 20
-144.9366121313597
 10
79.54279299239936
 20
-144.9366121313597
 10
79.54279299239936
 20
-144.9366121313597
 10
78.9657424365306
 20
-144.9366121313597
 10
78.9657424365306
 20
-144.9366121313597
 10
78.9657424365306
 20
-144.9366121313597
 10
78.9657424365306
 20
-147.7018240659999
 10
78.9657424365306
 20
-147.7470128601814
 10
78.9657424365306
 20
-148.5577747570166
 10
79.29482970621265
 20
-148.9322358396104
 10
80.3056803427411
 20
-148.9322358396104
 10
81.00784110746973
 20
-148.9322358396104
 10
81.68400790936471
 20
-149.0604943107109
 10
82.31660475932121
 20
-149.3161324534346
 10
82.94601017967734
 20
-149.569550471163
 10
83.49979259428073
 20
-149.9272681110812
 10
83.96051477183566
 20
-150.3780459903982
 10
84.42368833734447
 20
-150.832894098874
 10
84.79273785593794
 20
-151.366787907716
 10
85.05697897634495
 20
-151.9661754039269
 10
85.32390597576676
 20
-152.562417723061
 10
85.45646270765094
 20
-153.2029237842951
 10
85.45646270765094
 20
-153.8655385902774
 10
85.45646270765094
 20
-154.5575237998478
 10
85.32390597576676
 20
-155.2101942959534
 10
85.05855156484355
 20
-155.8064366150874
 10
84.79273785593794
 20
-156.4048990592175
 10
84.42368833734447
 20
-156.930652409741
 10
83.96435373787685
 20
-157.3697283802275
 10
83.49979259428073
 20
-157.8114407491463
 10
82.94490011720762
 20
-158.1718872927044
 10
82.31096194176665
 20
-158.4393198494679
 10
81.68127900579324
 20
-158.7049023020683
 10
81.00645352938243
 20
-158.840838705445
 10
80.3056803427411
 20
-158.840838705445
 10
80.3056803427411
 20
-158.840838705445
 10
78.9657424365306
 20
-158.840838705445
 10
78.9657424365306
 20
-158.840838705445
 10
78.9657424365306
 20
-158.840838705445
 10
73.01030353885075
 20
-158.840838705445
 10
73.01030353885075
 20
-158.840838705445
 10
73.01030353885075
 20
-158.840838705445
 10
75.85502362803206
 20
-140.9915887719688
 10
75.85502362803206
 20
-140.9915887719688
 10
75.85502362803206
 20
-140.9915887719688
 10
71.23041087379018
 20
-140.9915887719688
 10
71.23041087379018
 20
-140.9915887719688
 10
71.23041087379018
 20
-140.9915887719688
 10
67.43737366721007
 20
-162.8369249397365
 10
67.43737366721007
 20
-162.8369249397365
 10
67.43737366721007
 20
-162.8369249397365
 10
79.99268897887058
 20
-162.8369249397365
 10
79.99268897887058
 20
-162.8369249397365
 10
80.84614200770756
 20
-162.8369249397365
 10
81.90398843044188
 20
-162.7140317707074
 10
83.13254692720064
 20
-162.4678754118201
 10
84.374244304837
 20
-162.219915201372
 10
85.57190920450633
 20
-161.7628007152955
 10
86.69478364527534
 20
-161.1033310863912
 10
87.82672359621401
 20
-160.4375711033321
 10
88.79825952027218
 20
-159.5034535114274
 10
89.58557132695215
 20
-158.3272960423977
 10
90.38435377915283
 20
-157.1352739301693
 10
90.77259812795286
 20
-155.590066933224
 10
90.74369025113612
 20
-153.7300184603371
 10
90.71251599677679
 20
-152.075932833397
 10
90.34351273078614
 20
-150.7263280990854
 10
89.65129961304847
 20
-149.7204264656563
 97
        0
 97
        0
 75
     2
 76
     1
 98
        0
  0
SPLINE
  5
61
330
45
100
AcDbEntity
  8
Layer 1
370
     0
100
AcDbSpline
210
0.0
220
0.0
230
1.0
 70
    11
 71
     3
 72
    83
 73
    79
 74
     0
 42
0.0000000001
 43
0.0000000001
 12
1.0
 22
0.0
 32
0.0
 13
1.0
 23
0.0
 33
0.0
 40
0.0
 40
0.0
 40
0.0
 40
0.0
 40
1.0
 40
1.0
 40
1.0
 40
2.0
 40
2.0
 40
2.0
 40
3.0
 40
3.0
 40
3.0
 40
4.0
 40
4.0
 40
4.0
 40
5.0
 40
5.0
 40
5.0
 40
6.0
 40
6.0
 40
6.0
 40
7.0
 40
7.0
 40
7.0
 40
8.0
 40
8.0
 40
8.0
 40
9.0
 40
9.0
 40
9.0
 40
10.0
 40
10.0
 40
10.0
 40
11.0
 40
11.0
 40
11.0
 40
12.0
 40
12.0
 40
12.0
 40
13.0
 40
13.0
 40
13.0
 40
14.0
 40
14.0
 40
14.0
 40
15.0
 40
15.0
 40
15.0
 40
16.0
 40
16.0
 40
16.0
 40
17.0
 40
17.0
 40
17.0
 40
18.0
 40
18.0
 40
18.0
 40
19.0
 40
19.0
 40
19.0
 40
20.0
 40
20.0
 40
20.0
 40
21.0
 40
21.0
 40
21.0
 40
22.0
 40
22.0
 40
22.0
 40
23.0
 40
23.0
 40
23.0
 40
24.0
 40
24.0
 40
24.0
 40
25.0
 40
25.0
 40
25.0
 40
26.0
 40
26.0
 40
26.0
 40
26.0
 10
140.6755027087871
 20
-162.8811886818365
 30
0.0
 10
140.6755027087871
 20
-162.8811886818365
 30
0.0
 10
140.6321177672606
 20
-162.8811886818365
 30
0.0
 10
140.6321177672606
 20
-162.8811886818365
 30
0.0
 10
138.8877008486297
 20
-162.8811886818365
 30
0.0
 10
137.117336219768
 20
-162.5600105991373
 30
0.0
 10
135.3744918896358
 20
-161.926303670702
 30
0.0
 10
133.6269297940071
 20
-161.2930592683077
 30
0.0
 10
132.0442582277416
 20
-160.3481185670507
 30
0.0
 10
130.6650056090602
 20
-159.1204356970806
 30
0.0
 10
129.287603094495
 20
-157.8936778791927
 30
0.0
 10
128.1533967660137
 20
-156.385935491546
 30
0.0
 10
127.298833674707
 20
-154.6383733517716
 30
0.0
 10
126.4381189872138
 20
-152.8880823083542
 30
0.0
 10
125.9990892804224
 20
-150.8545865701859
 30
0.0
 10
125.9990892804224
 20
-148.5966269444401
 30
0.0
 10
125.9990892804224
 20
-146.5947679874583
 30
0.0
 10
126.3834946631809
 20
-144.7062279104614
 30
0.0
 10
127.1395859628987
 20
-142.9830871456371
 30
0.0
 10
127.8954922522052
 20
-141.2607789276862
 30
0.0
 10
128.96420489497
 20
-139.7476249853646
 30
0.0
 10
130.310664418191
 20
-138.4937631414883
 30
0.0
 10
131.6587427825133
 20
-137.2367098679305
 30
0.0
 10
133.2861406157899
 20
-136.2362197891785
 30
0.0
 10
135.1500280077292
 20
-135.5185181317429
 30
0.0
 10
137.0114177591115
 20
-134.8016952737841
 30
0.0
 10
139.0763189632837
 20
-134.4349121234674
 30
0.0
 10
141.2879796764789
 20
-134.4349121234674
 30
0.0
 10
141.2879796764789
 20
-134.4349121234674
 30
0.0
 10
146.7888479927911
 20
-134.4349121234674
 30
0.0
 10
146.7888479927911
 20
-134.4349121234674
 30
0.0
 10
146.7888479927911
 20
-134.4349121234674
 30
0.0
 10
146.7888479927911
 20
-138.8862627396705
 30
0.0
 10
146.7888479927911
 20
-138.8862627396705
 30
0.0
 10
146.7888479927911
 20
-138.8862627396705
 30
0.0
 10
141.2416808209693
 20
-138.8862627396705
 30
0.0
 10
141.2416808209693
 20
-138.8862627396705
 30
0.0
 10
139.9236666485369
 20
-138.8862627396705
 30
0.0
 10
138.6392826933237
 20
-139.1396807573989
 30
0.0
 10
137.4339815392678
 20
-139.6085434049105
 30
0.0
 10
136.2252622675038
 20
-140.0755559482578
 30
0.0
 10
135.1529419217123
 20
-140.7513064937978
 30
0.0
 10
134.2421356652707
 20
-141.619421619686
 30
0.0
 10
133.3315606718446
 20
-142.4861954200566
 30
0.0
 10
132.5997982412555
 20
-143.5291453893496
 30
0.0
 10
132.0674770344006
 20
-144.7170972724188
 30
0.0
 10
131.5356183535753
 20
-145.9031990513252
 30
0.0
 10
131.2668907306866
 20
-147.2361528481695
 30
0.0
 10
131.2668907306866
 20
-148.6792803479218
 30
0.0
 10
131.2668907306866
 20
-150.123749173193
 30
0.0
 10
131.5340457650767
 20
-151.4503663632796
 30
0.0
 10
132.065904445902
 20
-152.619770952114
 30
0.0
 10
132.5979943897422
 20
-153.7959746737477
 30
0.0
 10
133.3078330865532
 20
-154.8014137811364
 30
0.0
 10
134.1743756020126
 20
-155.6158296336936
 30
0.0
 10
135.0431844950143
 20
-156.4311242857288
 30
0.0
 10
136.0533875951019
 20
-157.0801870787158
 30
0.0
 10
137.1774183509438
 20
-157.548587200187
 30
0.0
 10
138.2984889401997
 20
-158.0147209440569
 30
0.0
 10
139.4482823958605
 20
-158.2667513836633
 30
0.0
 10
140.5969195364481
 20
-158.2920515580918
 30
0.0
 10
141.4575879713386
 20
-158.3480634616275
 30
0.0
 10
142.0138217738962
 20
-158.3078699486858
 30
0.0
 10
142.3288945048973
 20
-158.1890470088169
 30
0.0
 10
142.4619169908572
 20
-158.1375678604813
 30
0.0
 10
142.555393501332
 20
-158.1009820506574
 30
0.0
 10
142.6233848276049
 20
-158.0748030767509
 30
0.0
 10
142.6233848276049
 20
-158.0748030767509
 30
0.0
 10
142.6233848276049
 20
-146.4316813054888
 30
0.0
 10
142.6233848276049
 20
-146.4316813054888
 30
0.0
 10
142.6233848276049
 20
-146.4316813054888
 30
0.0
 10
147.584022741965
 20
-146.4316813054888
 30
0.0
 10
147.584022741965
 20
-146.4316813054888
 30
0.0
 10
147.584022741965
 20
-146.4316813054888
 30
0.0
 10
147.584022741965
 20
-161.3788578488672
 30
0.0
 10
147.584022741965
 20
-161.3788578488672
 30
0.0
 10
147.584022741965
 20
-161.3788578488672
 30
0.0
 10
145.6210160219966
 20
-162.905101278143
 30
0.0
 10
140.6755027087871
 20
-162.8811886818365
 30
0.0
  0
HATCH
  5
62
330
45
100
AcDbEntity
  8
Layer 1
 62
   154
420
    23210
100
AcDbHatch
 10
0.0
 20
0.0
 30
0.0
210
0.0
220
0.0
230
1.0
  2
SOLID
 70
     1
 71
     0
 91
        1
 92
        1
 93
        1
 72
     4
 94
        3
 73
     0
 74
     1
 95
       83
 96
       79
 40
0.0
 40
0.0
 40
0.0
 40
0.0
 40
1.0
 40
1.0
 40
1.0
 40
2.0
 40
2.0
 40
2.0
 40
3.0
 40
3.0
 40
3.0
 40
4.0
 40
4.0
 40
4.0
 40
5.0
 40
5.0
 40
5.0
 40
6.0
 40
6.0
 40
6.0
 40
7.0
 40
7.0
 40
7.0
 40
8.0
 40
8.0
 40
8.0
 40
9.0
 40
9.0
 40
9.0
 40
10.0
 40
10.0
 40
10.0
 40
11.0
 40
11.0
 40
11.0
 40
12.0
 40
12.0
 40
12.0
 40
13.0
 40
13.0
 40
13.0
 40
14.0
 40
14.0
 40
14.0
 40
15.0
 40
15.0
 40
15.0
 40
16.0
 40
16.0
 40
16.0
 40
17.0
 40
17.0
 40
17.0
 40
18.0
 40
18.0
 40
18.0
 40
19.0
 40
19.0
 40
19.0
 40
20.0
 40
20.0
 40
20.0
 40
21.0
 40
21.0
 40
21.0
 40
22.0
 40
22.0
 40
22.0
 40
23.0
 40
23.0
 40
23.0
 40
24.0
 40
24.0
 40
24.0
 40
25.0
 40
25.0
 40
25.0
 40
26.0
 40
26.0
 40
26.0
 40
26.0
 10
140.6755027087871
 20
-162.8811886818365
 10
140.6755027087871
 20
-162.8811886818365
 10
140.6321177672606
 20
-162.8811886818365
 10
140.6321177672606
 20
-162.8811886818365
 10
138.8877008486297
 20
-162.8811886818365
 10
137.117336219768
 20
-162.5600105991373
 10
135.3744918896358
 20
-161.926303670702
 10
133.6269297940071
 20
-161.2930592683077
 10
132.0442582277416
 20
-160.3481185670507
 10
130.6650056090602
 20
-159.1204356970806
 10
129.287603094495
 20
-157.8936778791927
 10
128.1533967660137
 20
-156.385935491546
 10
127.298833674707
 20
-154.6383733517716
 10
126.4381189872138
 20
-152.8880823083542
 10
125.9990892804224
 20
-150.8545865701859
 10
125.9990892804224
 20
-148.5966269444401
 10
125.9990892804224
 20
-146.5947679874583
 10
126.3834946631809
 20
-144.7062279104614
 10
127.1395859628987
 20
-142.9830871456371
 10
127.8954922522052
 20
-141.2607789276862
 10
128.96420489497
 20
-139.7476249853646
 10
130.310664418191
 20
-138.4937631414883
 10
131.6587427825133
 20
-137.2367098679305
 10
133.2861406157899
 20
-136.2362197891785
 10
135.1500280077292
 20
-135.5185181317429
 10
137.0114177591115
 20
-134.8016952737841
 10
139.0763189632837
 20
-134.4349121234674
 10
141.2879796764789
 20
-134.4349121234674
 10
141.2879796764789
 20
-134.4349121234674
 10
146.7888479927911
 20
-134.4349121234674
 10
146.7888479927911
 20
-134.4349121234674
 10
146.7888479927911
 20
-134.4349121234674
 10
146.7888479927911
 20
-138.8862627396705
 10
146.7888479927911
 20
-138.8862627396705
 10
146.7888479927911
 20
-138.8862627396705
 10
141.2416808209693
 20
-138.8862627396705
 10
141.2416808209693
 20
-138.8862627396705
 10
139.9236666485369
 20
-138.8862627396705
 10
138.6392826933237
 20
-139.1396807573989
 10
137.4339815392678
 20
-139.6085434049105
 10
136.2252622675038
 20
-140.0755559482578
 10
135.1529419217123
 20
-140.7513064937978
 10
134.2421356652707
 20
-141.619421619686
 10
133.3315606718446
 20
-142.4861954200566
 10
132.5997982412555
 20
-143.5291453893496
 10
132.0674770344006
 20
-144.7170972724188
 10
131.5356183535753
 20
-145.9031990513252
 10
131.2668907306866
 20
-147.2361528481695
 10
131.2668907306866
 20
-148.6792803479218
 10
131.2668907306866
 20
-150.123749173193
 10
131.5340457650767
 20
-151.4503663632796
 10
132.065904445902
 20
-152.619770952114
 10
132.5979943897422
 20
-153.7959746737477
 10
133.3078330865532
 20
-154.8014137811364
 10
134.1743756020126
 20
-155.6158296336936
 10
135.0431844950143
 20
-156.4311242857288
 10
136.0533875951019
 20
-157.0801870787158
 10
137.1774183509438
 20
-157.548587200187
 10
138.2984889401997
 20
-158.0147209440569
 10
139.4482823958605
 20
-158.2667513836633
 10
140.5969195364481
 20
-158.2920515580918
 10
141.4575879713386
 20
-158.3480634616275
 10
142.0138217738962
 20
-158.3078699486858
 10
142.3288945048973
 20
-158.1890470088169
 10
142.4619169908572
 20
-158.1375678604813
 10
142.555393501332
 20
-158.1009820506574
 10
142.6233848276049
 20
-158.0748030767509
 10
142.6233848276049
 20
-158.0748030767509
 10
142.6233848276049
 20
-146.4316813054888
 10
142.6233848276049
 20
-146.4316813054888
 10
142.6233848276049
 20
-146.4316813054888
 10
147.584022741965
 20
-146.4316813054888
 10
147.584022741965
 20
-146.4316813054888
 10
147.584022741965
 20
-146.4316813054888
 10
147.584022741965
 20
-161.3788578488672
 10
147.584022741965
 20
-161.3788578488672
 10
147.584022741965
 20
-161.3788578488672
 10
145.6210160219966
 20
-162.905101278143
 10
140.6755027087871
 20
-162.8811886818365
 97
        0
 97
        0
 75
     2
 76
     1
 98
        0
  0
ENDBLK
  5
48
330
45
100
AcDbEntity
  8
0
100
AcDbBlockEnd
  0
ENDSEC
  0
SECTION
  2
ENTITIES
  0
INSERT
  5
42
330
1F
100
AcDbEntity
  8
Layer 1
100
AcDbBlockReference
  2
block 2
 10
0.0
 20
0.0
 30
0.0
  0
ENDSEC
  0
SECTION
  2
OBJECTS
  0
DICTIONARY
  5
C
330
0
100
AcDbDictionary
281
     1
  3
ACAD_GROUP
350
D
  3
ACAD_LAYOUT
350
1A
  3
ACAD_MATERIAL
350
3B
  3
ACAD_MLEADERSTYLE
350
71
  3
ACAD_MLINESTYLE
350
17
  3
ACAD_PLOTSETTINGS
350
19
  3
ACAD_PLOTSTYLENAME
350
E
  3
ACAD_TABLESTYLE
350
70
  3
ACAD_VISUALSTYLE
350
2A
  0
SUN
  5
3F
330
29
100
AcDbSun
 90
        1
290
     0
 63
     7
421
 16777215
 40
1.0
291
     1
 91
  2455826
 92
 54000000
292
     0
 70
     2
 71
   256
280
     1
  0
DICTIONARY
  5
D
102
{ACAD_REACTORS
330
C
102
}
330
C
100
AcDbDictionary
281
     1
  0
DICTIONARY
  5
1A
102
{ACAD_REACTORS
330
C
102
}
330
C
100
AcDbDictionary
281
     1
  3
Layout1
350
1E
  3
Layout2
350
26
  3
Model
350
22
  0
DICTIONARY
  5
3B
102
{ACAD_REACTORS
330
C
102
}
330
C
100
AcDbDictionary
281
     1
  3
ByBlock
350
3D
  3
ByLayer
350
3C
  3
Global
350
3E
  0
DICTIONARY
  5
71
102
{ACAD_REACTORS
330
C
102
}
330
C
100
AcDbDictionary
281
     1
  0
DICTIONARY
  5
17
102
{ACAD_REACTORS
330
C
102
}
330
C
100
AcDbDictionary
281
     1
  3
Standard
350
18
  0
DICTIONARY
  5
19
102
{ACAD_REACTORS
330
C
102
}
330
C
100
AcDbDictionary
281
     1
  0
ACDBDICTIONARYWDFLT
  5
E
102
{ACAD_REACTORS
330
C
102
}
330
C
100
AcDbDictionary
281
     1
  3
Normal
350
F
100
AcDbDictionaryWithDefault
340
F
  0
DICTIONARY
  5
70
102
{ACAD_REACTORS
330
C
102
}
330
C
100
AcDbDictionary
281
     1
  0
DICTIONARY
  5
2A
102
{ACAD_REACTORS
330
C
102
}
330
C
100
AcDbDictionary
281
     1
  3
2dWireframe
350
2F
  3
3D Hidden
350
31
  3
3dWireframe
350
30
  3
Basic
350
32
  3
Brighten
350
36
  3
ColorChange
350
3A
  3
Conceptual
350
34
  3
Dim
350
35
  3
Facepattern
350
39
  3
Flat
350
2B
  3
FlatWithEdges
350
2C
  3
Gouraud
350
2D
  3
GouraudWithEdges
350
2E
  3
Linepattern
350
38
  3
Realistic
350
33
  3
Thicken
350
37
  0
LAYOUT
  5
1E
102
{ACAD_REACTORS
330
1A
102
}
330
1A
100
AcDbPlotSettings
  1

  2
none_device
  4

  6

 40
0.0
 41
0.0
 42
0.0
 43
0.0
 44
0.0
 45
0.0
 46
0.0
 47
0.0
 48
0.0
 49
0.0
140
0.0
141
0.0
142
1.0
143
1.0
 70
   688
 72
     0
 73
     0
 74
     5
  7

 75
    16
 76
     0
 77
     2
 78
   300
147
1.0
148
0.0
149
0.0
100
AcDbLayout
  1
Layout1
 70
     1
 71
     1
 10
0.0
 20
0.0
 11
12.0
 21
9.0
 12
0.0
 22
0.0
 32
0.0
 14
1.000000000000000E+20
 24
1.000000000000000E+20
 34
1.000000000000000E+20
 15
-1.000000000000000E+20
 25
-1.000000000000000E+20
 35
-1.000000000000000E+20
146
0.0
 13
0.0
 23
0.0
 33
0.0
 16
1.0
 26
0.0
 36
0.0
 17
0.0
 27
1.0
 37
0.0
 76
     0
330
1B
  0
LAYOUT
  5
26
102
{ACAD_REACTORS
330
1A
102
}
330
1A
100
AcDbPlotSettings
  1

  2
none_device
  4

  6

 40
0.0
 41
0.0
 42
0.0
 43
0.0
 44
0.0
 45
0.0
 46
0.0
 47
0.0
 48
0.0
 49
0.0
140
0.0
141
0.0
142
1.0
143
1.0
 70
   688
 72
     0
 73
     0
 74
     5
  7

 75
    16
 76
     0
 77
     2
 78
   300
147
1.0
148
0.0
149
0.0
100
AcDbLayout
  1
Layout2
 70
     1
 71
     2
 10
0.0
 20
0.0
 11
0.0
 21
0.0
 12
0.0
 22
0.0
 32
0.0
 14
0.0
 24
0.0
 34
0.0
 15
0.0
 25
0.0
 35
0.0
146
0.0
 13
0.0
 23
0.0
 33
0.0
 16
1.0
 26
0.0
 36
0.0
 17
0.0
 27
1.0
 37
0.0
 76
     0
330
23
  0
LAYOUT
  5
22
102
{ACAD_REACTORS
330
1A
102
}
330
1A
100
AcDbPlotSettings
  1

  2
none_device
  4

  6

 40
0.0
 41
0.0
 42
0.0
 43
0.0
 44
0.0
 45
0.0
 46
0.0
 47
0.0
 48
0.0
 49
0.0
140
0.0
141
0.0
142
1.0
143
1.0
 70
  1712
 72
     0
 73
     0
 74
     0
  7

 75
     0
 76
     0
 77
     2
 78
   300
147
1.0
148
0.0
149
0.0
100
AcDbLayout
  1
Model
 70
     1
 71
     0
 10
0.0
 20
0.0
 11
12.0
 21
9.0
 12
0.0
 22
0.0
 32
0.0
 14
1.000000000000000E+20
 24
1.000000000000000E+20
 34
1.000000000000000E+20
 15
-1.000000000000000E+20
 25
-1.000000000000000E+20
 35
-1.000000000000000E+20
146
0.0
 13
0.0
 23
0.0
 33
0.0
 16
1.0
 26
0.0
 36
0.0
 17
0.0
 27
1.0
 37
0.0
 76
     0
330
1F
331
29
  0
MATERIAL
  5
3D
102
{ACAD_REACTORS
330
3B
102
}
330
3B
100
AcDbMaterial
  1
ByBlock
 72
     1
 94
      127
  0
MATERIAL
  5
3C
102
{ACAD_REACTORS
330
3B
102
}
330
3B
100
AcDbMaterial
  1
ByLayer
 72
     1
 94
      127
  0
MATERIAL
  5
3E
102
{ACAD_REACTORS
330
3B
102
}
330
3B
100
AcDbMaterial
  1
Global
 72
     1
 94
      127
  0
MLINESTYLE
  5
18
102
{ACAD_REACTORS
330
17
102
}
330
17
100
AcDbMlineStyle
  2
Standard
 70
     0
  3

 62
   256
 51
90.0
 52
90.0
 71
     2
 49
0.5
 62
   256
  6
BYLAYER
 49
-0.5
 62
   256
  6
BYLAYER
  0
ACDBPLACEHOLDER
  5
F
102
{ACAD_REACTORS
330
E
102
}
330
E
  0
VISUALSTYLE
  5
2F
102
{ACAD_REACTORS
330
2A
102
}
330
2A
100
AcDbVisualStyle
  2
2dWireframe
 70
     4
177
     2
291
     0
 71
     0
176
     1
 72
     2
176
     1
 73
     0
176
     1
 90
        0
176
     1
 40
-0.6
176
     1
 41
-30.0
176
     1
 62
     5
 63
     7
421
 16777215
176
     1
 74
     1
176
     1
 91
        4
176
     1
 64
     7
176
     1
 65
   257
176
     1
 75
     1
176
     1
175
     1
176
     1
 42
1.0
176
     1
 92
        0
176
     1
 66
   257
176
     1
 43
1.0
176
     1
 76
     1
176
     1
 77
     6
176
     1
 78
     2
176
     1
 67
     7
176
     1
 79
     5
176
     1
170
     0
176
     1
171
     0
176
     1
290
     0
176
     1
 93
        1
176
     1
 44
0.0
176
     1
173
     0
176
     1
  0
VISUALSTYLE
  5
31
102
{ACAD_REACTORS
330
2A
102
}
330
2A
100
AcDbVisualStyle
  2
3D Hidden
 70
     6
177
     2
291
     0
 71
     1
176
     1
 72
     2
176
     1
 73
     2
176
     1
 90
        0
176
     1
 40
-0.6
176
     1
 41
-30.0
176
     1
 62
     5
 63
     7
421
 16777215
176
     1
 74
     2
176
     1
 91
        2
176
     1
 64
     7
176
     1
 65
   257
176
     1
 75
     2
176
     1
175
     1
176
     1
 42
40.0
176
     1
 92
        0
176
     1
 66
   257
176
     1
 43
1.0
176
     1
 76
     1
176
     1
 77
     6
176
     1
 78
     2
176
     1
 67
     7
176
     1
 79
     3
176
     1
170
     0
176
     1
171
     0
176
     1
290
     0
176
     1
 93
        1
176
     1
 44
0.0
176
     1
173
     0
176
     1
  0
VISUALSTYLE
  5
30
102
{ACAD_REACTORS
330
2A
102
}
330
2A
100
AcDbVisualStyle
  2
3dWireframe
 70
     5
177
     2
291
     0
 71
     0
176
     1
 72
     2
176
     1
 73
     0
176
     1
 90
        0
176
     1
 40
-0.6
176
     1
 41
-30.0
176
     1
 62
     5
 63
     7
421
 16777215
176
     1
 74
     1
176
     1
 91
        4
176
     1
 64
     7
176
     1
 65
   257
176
     1
 75
     1
176
     1
175
     1
176
     1
 42
1.0
176
     1
 92
        0
176
     1
 66
   257
176
     1
 43
1.0
176
     1
 76
     1
176
     1
 77
     6
176
     1
 78
     2
176
     1
 67
     7
176
     1
 79
     5
176
     1
170
     0
176
     1
171
     0
176
     1
290
     0
176
     1
 93
        1
176
     1
 44
0.0
176
     1
173
     0
176
     1
  0
VISUALSTYLE
  5
32
102
{ACAD_REACTORS
330
2A
102
}
330
2A
100
AcDbVisualStyle
  2
Basic
 70
     7
177
     2
291
     1
 71
     1
176
     1
 72
     0
176
     1
 73
     1
176
     1
 90
        0
176
     1
 40
-0.6
176
     1
 41
-30.0
176
     1
 62
     5
 63
     7
421
 16777215
176
     1
 74
     0
176
     1
 91
        4
176
     1
 64
     7
176
     1
 65
   257
176
     1
 75
     1
176
     1
175
     1
176
     1
 42
1.0
176
     1
 92
        8
176
     1
 66
     7
176
     1
 43
1.0
176
     1
 76
     1
176
     1
 77
     6
176
     1
 78
     2
176
     1
 67
     7
176
     1
 79
     5
176
     1
170
     0
176
     1
171
     0
176
     1
290
     0
176
     1
 93
        1
176
     1
 44
0.0
176
     1
173
     0
176
     1
  0
VISUALSTYLE
  5
36
102
{ACAD_REACTORS
330
2A
102
}
330
2A
100
AcDbVisualStyle
  2
Brighten
 70
    12
177
     2
291
     1
 71
     2
176
     1
 72
     2
176
     1
 73
     0
176
     1
 90
        0
176
     1
 40
-0.6
176
     1
 41
-30.0
176
     1
 62
     5
 63
     7
421
 16777215
176
     1
 74
     1
176
     1
 91
        4
176
     1
 64
     7
176
     1
 65
   257
176
     1
 75
     1
176
     1
175
     1
176
     1
 42
1.0
176
     1
 92
        8
176
     1
 66
     7
176
     1
 43
1.0
176
     1
 76
     1
176
     1
 77
     6
176
     1
 78
     2
176
     1
 67
     7
176
     1
 79
     5
176
     1
170
     0
176
     1
171
     0
176
     1
290
     0
176
     1
 93
        1
176
     1
 44
50.0
176
     1
173
     0
176
     1
  0
VISUALSTYLE
  5
3A
102
{ACAD_REACTORS
330
2A
102
}
330
2A
100
AcDbVisualStyle
  2
ColorChange
 70
    16
177
     2
291
     1
 71
     2
176
     1
 72
     2
176
     1
 73
     3
176
     1
 90
        0
176
     1
 40
-0.6
176
     1
 41
-30.0
176
     1
 62
     5
 63
     8
421
  8421504
176
     1
 74
     1
176
     1
 91
        4
176
     1
 64
     7
176
     1
 65
   257
176
     1
 75
     1
176
     1
175
     1
176
     1
 42
1.0
176
     1
 92
        8
176
     1
 66
     8
424
  8421504
176
     1
 43
1.0
176
     1
 76
     1
176
     1
 77
     6
176
     1
 78
     2
176
     1
 67
     7
176
     1
 79
     5
176
     1
170
     0
176
     1
171
     0
176
     1
290
     0
176
     1
 93
        1
176
     1
 44
0.0
176
     1
173
     0
176
     1
  0
VISUALSTYLE
  5
34
102
{ACAD_REACTORS
330
2A
102
}
330
2A
100
AcDbVisualStyle
  2
Conceptual
 70
     9
177
     2
291
     0
 71
     3
176
     1
 72
     2
176
     1
 73
     0
176
     1
 90
        0
176
     1
 40
-0.6
176
     1
 41
-30.0
176
     1
 62
     5
 63
     7
421
 16777215
176
     1
 74
     2
176
     1
 91
        2
176
     1
 64
     7
176
     1
 65
   257
176
     1
 75
     1
176
     1
175
     1
176
     1
 42
40.0
176
     1
 92
        8
176
     1
 66
     7
176
     1
 43
1.0
176
     1
 76
     1
176
     1
 77
     6
176
     1
 78
     2
176
     1
 67
     7
176
     1
 79
     3
176
     1
170
     0
176
     1
171
     0
176
     1
290
     0
176
     1
 93
        1
176
     1
 44
0.0
176
     1
173
     0
176
     1
  0
VISUALSTYLE
  5
35
102
{ACAD_REACTORS
330
2A
102
}
330
2A
100
AcDbVisualStyle
  2
Dim
 70
    11
177
     2
291
     1
 71
     2
176
     1
 72
     2
176
     1
 73
     0
176
     1
 90
        0
176
     1
 40
-0.6
176
     1
 41
-30.0
176
     1
 62
     5
 63
     7
421
 16777215
176
     1
 74
     1
176
     1
 91
        4
176
     1
 64
     7
176
     1
 65
   257
176
     1
 75
     1
176
     1
175
     1
176
     1
 42
1.0
176
     1
 92
        8
176
     1
 66
     7
176
     1
 43
1.0
176
     1
 76
     1
176
     1
 77
     6
176
     1
 78
     2
176
     1
 67
     7
176
     1
 79
     5
176
     1
170
     0
176
     1
171
     0
176
     1
290
     0
176
     1
 93
        1
176
     1
 44
-50.0
176
     1
173
     0
176
     1
  0
VISUALSTYLE
  5
39
102
{ACAD_REACTORS
330
2A
102
}
330
2A
100
AcDbVisualStyle
  2
Facepattern
 70
    15
177
     2
291
     1
 71
     2
176
     1
 72
     2
176
     1
 73
     0
176
     1
 90
        0
176
     1
 40
-0.6
176
     1
 41
-30.0
176
     1
 62
     5
 63
     7
421
 16777215
176
     1
 74
     1
176
     1
 91
        4
176
     1
 64
     7
176
     1
 65
   257
176
     1
 75
     1
176
     1
175
     1
176
     1
 42
1.0
176
     1
 92
        8
176
     1
 66
     7
176
     1
 43
1.0
176
     1
 76
     1
176
     1
 77
     6
176
     1
 78
     2
176
     1
 67
     7
176
     1
 79
     5
176
     1
170
     0
176
     1
171
     0
176
     1
290
     0
176
     1
 93
        1
176
     1
 44
0.0
176
     1
173
     0
176
     1
  0
VISUALSTYLE
  5
2B
102
{ACAD_REACTORS
330
2A
102
}
330
2A
100
AcDbVisualStyle
  2
Flat
 70
     0
177
     2
291
     1
 71
     2
176
     1
 72
     1
176
     1
 73
     1
176
     1
 90
        2
176
     1
 40
-0.6
176
     1
 41
30.0
176
     1
 62
     5
 63
     7
421
 16777215
176
     1
 74
     0
176
     1
 91
        4
176
     1
 64
     7
176
     1
 65
   257
176
     1
 75
     1
176
     1
175
     1
176
     1
 42
1.0
176
     1
 92
        8
176
     1
 66
     7
176
     1
 43
1.0
176
     1
 76
     1
176
     1
 77
     6
176
     1
 78
     2
176
     1
 67
     7
176
     1
 79
     5
176
     1
170
     0
176
     1
171
     0
176
     1
290
     0
176
     1
 93
       13
176
     1
 44
0.0
176
     1
173
     0
176
     1
  0
VISUALSTYLE
  5
2C
102
{ACAD_REACTORS
330
2A
102
}
330
2A
100
AcDbVisualStyle
  2
FlatWithEdges
 70
     1
177
     2
291
     1
 71
     2
176
     1
 72
     1
176
     1
 73
     1
176
     1
 90
        2
176
     1
 40
-0.6
176
     1
 41
30.0
176
     1
 62
     5
 63
     7
421
 16777215
176
     1
 74
     1
176
     1
 91
        4
176
     1
 64
     7
176
     1
 65
   257
176
     1
 75
     1
176
     1
175
     1
176
     1
 42
1.0
176
     1
 92
        0
176
     1
 66
   257
176
     1
 43
1.0
176
     1
 76
     1
176
     1
 77
     6
176
     1
 78
     2
176
     1
 67
     7
176
     1
 79
     5
176
     1
170
     0
176
     1
171
     0
176
     1
290
     0
176
     1
 93
       13
176
     1
 44
0.0
176
     1
173
     0
176
     1
  0
VISUALSTYLE
  5
2D
102
{ACAD_REACTORS
330
2A
102
}
330
2A
100
AcDbVisualStyle
  2
Gouraud
 70
     2
177
     2
291
     1
 71
     2
176
     1
 72
     2
176
     1
 73
     1
176
     1
 90
        2
176
     1
 40
-0.6
176
     1
 41
30.0
176
     1
 62
     5
 63
     7
421
 16777215
176
     1
 74
     0
176
     1
 91
        4
176
     1
 64
     7
176
     1
 65
   257
176
     1
 75
     1
176
     1
175
     1
176
     1
 42
1.0
176
     1
 92
        0
176
     1
 66
     7
176
     1
 43
1.0
176
     1
 76
     1
176
     1
 77
     6
176
     1
 78
     2
176
     1
 67
     7
176
     1
 79
     5
176
     1
170
     0
176
     1
171
     0
176
     1
290
     0
176
     1
 93
       13
176
     1
 44
0.0
176
     1
173
     0
176
     1
  0
VISUALSTYLE
  5
2E
102
{ACAD_REACTORS
330
2A
102
}
330
2A
100
AcDbVisualStyle
  2
GouraudWithEdges
 70
     3
177
     2
291
     1
 71
     2
176
     1
 72
     2
176
     1
 73
     1
176
     1
 90
        2
176
     1
 40
-0.6
176
     1
 41
30.0
176
     1
 62
     5
 63
     7
421
 16777215
176
     1
 74
     1
176
     1
 91
        4
176
     1
 64
     7
176
     1
 65
   257
176
     1
 75
     1
176
     1
175
     1
176
     1
 42
1.0
176
     1
 92
        0
176
     1
 66
   257
176
     1
 43
1.0
176
     1
 76
     1
176
     1
 77
     6
176
     1
 78
     2
176
     1
 67
     7
176
     1
 79
     5
176
     1
170
     0
176
     1
171
     0
176
     1
290
     0
176
     1
 93
       13
176
     1
 44
0.0
176
     1
173
     0
176
     1
  0
VISUALSTYLE
  5
38
102
{ACAD_REACTORS
330
2A
102
}
330
2A
100
AcDbVisualStyle
  2
Linepattern
 70
    14
177
     2
291
     1
 71
     2
176
     1
 72
     2
176
     1
 73
     0
176
     1
 90
        0
176
     1
 40
-0.6
176
     1
 41
-30.0
176
     1
 62
     5
 63
     7
421
 16777215
176
     1
 74
     1
176
     1
 91
        4
176
     1
 64
     7
176
     1
 65
   257
176
     1
 75
     7
176
     1
175
     7
176
     1
 42
1.0
176
     1
 92
        8
176
     1
 66
     7
176
     1
 43
1.0
176
     1
 76
     1
176
     1
 77
     6
176
     1
 78
     2
176
     1
 67
     7
176
     1
 79
     5
176
     1
170
     0
176
     1
171
     0
176
     1
290
     0
176
     1
 93
        1
176
     1
 44
0.0
176
     1
173
     0
176
     1
  0
VISUALSTYLE
  5
33
102
{ACAD_REACTORS
330
2A
102
}
330
2A
100
AcDbVisualStyle
  2
Realistic
 70
     8
177
     2
291
     0
 71
     2
176
     1
 72
     2
176
     1
 73
     0
176
     1
 90
        0
176
     1
 40
-0.6
176
     1
 41
-30.0
176
     1
 62
     5
 63
     7
421
 16777215
176
     1
 74
     1
176
     1
 91
        0
176
     1
 64
     7
176
     1
 65
   257
176
     1
 75
     1
176
     1
175
     1
176
     1
 42
1.0
176
     1
 92
        8
176
     1
 66
     8
424
  7895160
176
     1
 43
1.0
176
     1
 76
     1
176
     1
 77
     6
176
     1
 78
     2
176
     1
 67
     7
176
     1
 79
     5
176
     1
170
     0
176
     1
171
     0
176
     1
290
     0
176
     1
 93
       13
176
     1
 44
0.0
176
     1
173
     0
176
     1
  0
VISUALSTYLE
  5
37
102
{ACAD_REACTORS
330
2A
102
}
330
2A
100
AcDbVisualStyle
  2
Thicken
 70
    13
177
     2
291
     1
 71
     2
176
     1
 72
     2
176
     1
 73
     0
176
     1
 90
        0
176
     1
 40
-0.6
176
     1
 41
-30.0
176
     1
 62
     5
 63
     7
421
 16777215
176
     1
 74
     1
176
     1
 91
        4
176
     1
 64
     7
176
     1
 65
   257
176
     1
 75
     1
176
     1
175
     1
176
     1
 42
1.0
176
     1
 92
       12
176
     1
 66
     7
176
     1
 43
1.0
176
     1
 76
     1
176
     1
 77
     6
176
     1
 78
     2
176
     1
 67
     7
176
     1
 79
     5
176
     1
170
     0
176
     1
171
     0
176
     1
290
     0
176
     1
 93
        1
176
     1
 44
0.0
176
     1
173
     0
176
     1
  0
ENDSEC
  0
EOF
